{"glyphs":{"0":{"ha":860,"x_min":99,"x_max":893,"o":"m 378 -14 q 227 30 289 -14 q 132 144 165 73 q 99 297 99 215 q 127 530 99 417 q 204 737 155 642 q 318 904 253 833 q 459 1016 383 976 q 614 1056 534 1056 q 765 1012 703 1056 q 860 898 828 969 q 893 744 893 827 q 865 512 893 624 q 788 305 838 400 q 674 138 739 209 q 533 26 608 66 q 378 -14 458 -14 m 378 11 q 469 40 426 11 q 551 118 513 68 q 621 233 589 168 q 678 370 653 297 q 721 517 703 442 q 748 660 738 591 q 757 786 757 729 q 751 875 757 831 q 731 953 746 918 q 688 1009 716 988 q 614 1031 659 1031 q 523 1002 566 1031 q 441 924 479 974 q 371 809 403 874 q 314 672 339 744 q 271 525 288 599 q 244 382 253 451 q 235 256 235 313 q 240 167 235 211 q 261 89 246 124 q 304 32 276 53 q 378 11 333 11 z "},"1":{"ha":603,"x_min":-22,"x_max":494,"o":"m 126 0 l 355 1015 l 198 1015 l 198 1042 l 494 1042 l 258 0 l 126 0 m -22 0 l -22 27 l 415 27 l 415 0 l -22 0 z "},"2":{"ha":763,"x_min":-15,"x_max":786,"o":"m -15 0 l 3 90 l 376 398 q 470 484 422 435 q 559 589 518 533 q 624 706 599 644 q 649 830 649 767 q 630 930 649 887 q 573 996 611 972 q 479 1020 535 1020 q 375 999 425 1020 q 284 939 324 977 q 221 850 244 900 q 198 742 198 800 l 173 742 q 186 775 173 760 q 219 799 199 790 q 263 808 240 808 q 318 788 293 808 q 344 731 344 767 q 319 665 344 689 q 257 642 294 642 q 196 668 221 642 q 172 742 172 694 q 197 860 172 803 q 268 960 222 916 q 379 1030 315 1004 q 521 1056 443 1056 q 664 1027 605 1056 q 755 949 724 999 q 786 838 786 900 q 769 756 786 796 q 723 678 751 715 q 662 607 695 640 q 598 547 629 574 q 542 499 566 519 l 85 125 l 616 125 l 638 229 l 665 229 l 617 0 l -15 0 z "},"3":{"ha":723,"x_min":3,"x_max":734,"o":"m 286 -14 q 125 16 188 -14 q 33 91 63 45 q 3 188 3 138 q 27 253 3 231 q 87 276 51 276 q 140 257 119 276 q 161 199 161 237 q 150 161 161 177 q 121 135 139 144 q 83 126 103 126 q 45 134 63 126 q 16 156 27 142 q 5 188 5 170 l 31 188 q 63 95 31 135 q 145 35 94 56 q 258 13 197 13 q 374 37 324 13 q 457 102 424 61 q 508 196 491 144 q 524 306 524 249 q 517 387 524 344 q 487 467 510 429 q 419 527 464 504 q 299 551 374 551 l 299 568 q 483 549 412 568 q 594 494 555 530 q 649 411 634 459 q 665 306 665 363 q 633 177 665 235 q 549 75 602 118 q 427 9 495 33 q 286 -14 360 -14 m 299 560 l 299 578 q 439 608 382 578 q 529 684 495 638 q 578 780 563 731 q 594 866 594 828 q 577 949 594 914 q 526 1005 561 985 q 432 1024 490 1024 q 359 1012 396 1024 q 292 977 323 999 q 243 924 262 954 q 225 856 225 893 l 199 856 q 211 892 199 877 q 242 914 224 906 q 278 921 260 921 q 316 913 299 921 q 345 888 334 904 q 356 847 356 872 q 344 802 356 819 q 313 778 331 785 q 278 770 295 770 q 239 780 257 770 q 209 809 220 790 q 197 856 197 828 q 218 929 197 894 q 276 993 239 965 q 361 1038 313 1021 q 463 1054 409 1054 q 571 1044 522 1054 q 657 1012 620 1035 q 714 951 693 990 q 734 856 734 913 q 711 751 734 803 q 637 656 688 699 q 503 586 586 613 q 299 560 419 560 z "},"4":{"ha":826,"x_min":26,"x_max":794,"o":"m 440 0 l 648 982 l 83 313 l 794 313 l 794 285 l 26 285 l 663 1042 l 794 1042 l 572 0 l 440 0 m 322 0 l 322 27 l 690 27 l 690 0 l 322 0 z "},"5":{"ha":694,"x_min":3,"x_max":777,"o":"m 90 524 l 271 1042 l 735 1042 l 750 1117 l 777 1117 l 736 917 l 256 917 l 118 524 l 90 524 m 251 -14 q 125 14 181 -14 q 36 85 69 41 q 3 179 3 129 q 14 227 3 208 q 43 256 25 246 q 82 265 61 265 q 118 257 99 265 q 150 232 137 249 q 163 188 163 215 q 152 146 163 163 q 124 120 141 129 q 85 111 106 111 q 46 121 65 111 q 16 146 28 131 q 5 179 5 162 l 31 179 q 49 114 31 144 q 97 62 67 84 q 164 27 127 40 q 238 15 200 15 q 334 38 291 15 q 411 101 378 61 q 466 189 444 140 q 499 290 488 238 q 510 390 510 342 q 493 507 510 455 q 443 591 476 560 q 358 622 409 622 q 271 610 313 622 q 194 577 229 599 q 135 524 160 555 l 108 524 q 172 592 133 563 q 263 636 211 621 q 378 652 315 652 q 527 624 465 652 q 623 538 590 596 q 656 390 656 480 q 622 239 656 312 q 532 110 589 167 q 402 19 475 53 q 251 -14 330 -14 z "},"6":{"ha":777,"x_min":56,"x_max":771,"o":"m 325 -14 q 187 19 248 -14 q 91 123 126 53 q 56 305 56 194 q 92 496 56 394 q 194 697 128 598 q 349 877 260 796 q 546 1007 439 958 q 771 1056 653 1056 l 771 1031 q 620 998 693 1031 q 484 910 548 966 q 368 784 420 855 q 277 634 315 713 q 219 476 240 555 q 199 327 199 397 l 194 236 q 209 120 194 171 q 254 42 224 70 q 329 13 284 13 q 415 38 374 13 q 489 106 456 63 q 547 200 522 148 q 584 309 571 253 q 597 417 597 365 q 570 583 597 525 q 485 641 542 641 q 384 614 430 641 q 303 543 339 588 q 244 445 268 499 q 207 336 219 391 q 194 236 194 282 l 171 236 q 180 325 171 277 q 209 424 190 374 q 256 519 228 474 q 323 602 285 565 q 410 659 362 638 q 515 681 458 681 q 597 666 558 681 q 668 621 637 652 q 718 540 699 590 q 736 417 736 490 q 702 262 736 339 q 609 123 667 185 q 477 24 551 61 q 325 -14 403 -14 z "},"7":{"ha":701,"x_min":155,"x_max":843,"o":"m 290 -14 q 228 14 255 -14 q 202 92 202 41 q 225 189 202 134 q 285 307 248 244 q 366 432 322 369 q 449 553 409 494 q 526 661 481 599 q 620 789 572 724 q 711 910 669 855 l 205 910 l 182 806 l 155 806 l 205 1042 l 843 1042 q 818 1008 843 1042 q 752 920 793 975 q 664 800 712 865 q 569 670 616 735 q 485 552 522 605 q 395 425 439 487 q 323 314 351 364 q 295 232 295 263 q 308 193 295 207 q 339 168 322 180 q 369 136 356 156 q 383 81 383 117 q 359 14 383 42 q 290 -14 336 -14 z "},"8":{"ha":763,"x_min":42,"x_max":764,"o":"m 340 -14 q 118 45 194 -14 q 42 208 42 104 q 81 367 42 292 q 199 489 120 442 q 396 535 277 535 q 619 480 543 535 q 694 319 694 424 q 655 160 694 236 q 538 35 616 83 q 340 -14 459 -14 m 340 13 q 415 30 381 13 q 475 74 449 46 q 519 140 501 103 q 547 219 538 177 q 556 305 556 262 q 539 410 556 363 q 486 484 522 457 q 396 512 451 512 q 321 496 355 512 q 261 452 287 480 q 217 386 235 424 q 190 307 199 349 q 181 222 181 265 q 198 117 181 164 q 250 41 215 69 q 340 13 285 13 m 423 527 q 282 555 339 527 q 196 628 225 582 q 167 729 167 674 q 192 850 167 792 q 263 955 217 908 q 371 1028 309 1001 q 507 1056 433 1056 q 648 1021 591 1056 q 735 934 706 987 q 764 826 764 881 q 739 709 764 763 q 667 614 713 655 q 559 550 621 573 q 423 527 497 527 m 423 551 q 491 565 460 551 q 548 603 523 578 q 590 663 572 628 q 616 736 607 697 q 625 819 625 776 q 616 912 625 864 q 581 994 606 960 q 507 1028 556 1028 q 439 1012 470 1028 q 382 967 407 996 q 340 902 358 939 q 314 822 323 865 q 305 737 305 780 q 315 650 305 693 q 350 579 324 607 q 423 551 375 551 z "},"9":{"ha":777,"x_min":47,"x_max":762,"o":"m 47 -14 l 47 11 q 197 43 124 11 q 333 131 269 76 q 449 258 397 187 q 539 408 501 329 q 598 566 577 487 q 618 715 618 644 l 623 806 q 608 921 623 871 q 563 1000 593 972 q 488 1028 533 1028 q 402 1003 443 1028 q 328 936 362 978 q 271 841 295 894 q 233 733 247 789 q 220 625 220 676 q 248 459 220 517 q 333 401 275 401 q 433 427 388 401 q 513 499 478 454 q 573 597 549 543 q 610 705 598 651 q 623 806 623 760 l 646 806 q 636 717 646 765 q 608 618 627 668 q 560 522 589 568 q 494 440 532 476 q 408 382 456 403 q 302 361 360 361 q 220 375 260 361 q 149 420 181 390 q 100 502 118 451 q 81 625 81 552 q 116 780 81 703 q 208 918 150 856 q 340 1018 267 981 q 492 1056 414 1056 q 631 1022 569 1056 q 727 918 692 989 q 762 737 762 848 q 726 546 762 648 q 624 345 690 444 q 468 165 558 246 q 272 35 378 83 q 47 -14 165 -14 z "},"A":{"ha":1006,"x_min":-62,"x_max":910,"o":"m 40 0 l 653 1062 l 681 1062 l 813 0 l 667 0 l 577 881 l 72 0 l 40 0 m -62 0 l -62 27 l 243 27 l 243 0 l -62 0 m 507 0 l 507 27 l 910 27 l 910 0 l 507 0 m 253 326 l 253 353 l 715 353 l 715 326 l 253 326 z "},"Á":{"ha":1006,"x_min":-62,"x_max":910,"o":"m 40 0 l 653 1062 l 681 1062 l 813 0 l 667 0 l 577 881 l 72 0 l 40 0 m -62 0 l -62 27 l 243 27 l 243 0 l -62 0 m 507 0 l 507 27 l 910 27 l 910 0 l 507 0 m 253 326 l 253 353 l 715 353 l 715 326 l 253 326 m 607 1167 l 590 1185 l 730 1338 q 752 1351 741 1348 q 775 1353 764 1355 q 794 1344 785 1351 q 808 1330 803 1338 q 814 1305 815 1319 q 807 1280 813 1292 q 789 1262 800 1269 l 607 1167 z "},"Ă":{"ha":1006,"x_min":-62,"x_max":910,"o":"m 40 0 l 653 1062 l 681 1062 l 813 0 l 667 0 l 577 881 l 72 0 l 40 0 m -62 0 l -62 27 l 243 27 l 243 0 l -62 0 m 507 0 l 507 27 l 910 27 l 910 0 l 507 0 m 253 326 l 253 353 l 715 353 l 715 326 l 253 326 m 678 1168 q 612 1184 637 1168 q 576 1226 588 1200 q 564 1284 565 1252 q 567 1347 563 1315 l 594 1347 q 600 1290 589 1313 q 635 1256 611 1267 q 692 1244 660 1244 q 758 1256 725 1244 q 815 1290 790 1267 q 846 1347 839 1313 l 873 1347 q 855 1284 868 1315 q 817 1226 841 1252 q 760 1184 794 1200 q 678 1168 726 1168 z "},"Â":{"ha":1006,"x_min":-62,"x_max":910,"o":"m 40 0 l 653 1062 l 681 1062 l 813 0 l 667 0 l 577 881 l 72 0 l 40 0 m -62 0 l -62 27 l 243 27 l 243 0 l -62 0 m 507 0 l 507 27 l 910 27 l 910 0 l 507 0 m 253 326 l 253 353 l 715 353 l 715 326 l 253 326 m 499 1178 l 483 1194 l 667 1347 l 757 1347 l 880 1194 l 863 1176 l 709 1284 l 499 1178 z "},"Ä":{"ha":1006,"x_min":-62,"x_max":910,"o":"m 40 0 l 653 1062 l 681 1062 l 813 0 l 667 0 l 577 881 l 72 0 l 40 0 m -62 0 l -62 27 l 243 27 l 243 0 l -62 0 m 507 0 l 507 27 l 910 27 l 910 0 l 507 0 m 253 326 l 253 353 l 715 353 l 715 326 l 253 326 m 783 1174 q 736 1193 756 1174 q 716 1240 716 1213 q 736 1288 716 1268 q 783 1308 756 1308 q 830 1288 811 1308 q 849 1240 849 1268 q 830 1193 849 1213 q 783 1174 811 1174 m 561 1174 q 514 1193 533 1174 q 494 1240 494 1213 q 514 1288 494 1268 q 561 1308 533 1308 q 608 1288 589 1308 q 627 1240 627 1268 q 608 1193 627 1213 q 561 1174 589 1174 z "},"À":{"ha":1006,"x_min":-62,"x_max":910,"o":"m 40 0 l 653 1062 l 681 1062 l 813 0 l 667 0 l 577 881 l 72 0 l 40 0 m -62 0 l -62 27 l 243 27 l 243 0 l -62 0 m 507 0 l 507 27 l 910 27 l 910 0 l 507 0 m 253 326 l 253 353 l 715 353 l 715 326 l 253 326 m 741 1167 l 559 1262 q 541 1280 548 1269 q 534 1305 535 1292 q 540 1330 534 1319 q 554 1344 545 1338 q 573 1353 563 1351 q 595 1351 584 1355 q 618 1338 607 1348 l 758 1185 l 741 1167 z "},"Ā":{"ha":1006,"x_min":-62,"x_max":910,"o":"m 40 0 l 653 1062 l 681 1062 l 813 0 l 667 0 l 577 881 l 72 0 l 40 0 m -62 0 l -62 27 l 243 27 l 243 0 l -62 0 m 507 0 l 507 27 l 910 27 l 910 0 l 507 0 m 253 326 l 253 353 l 715 353 l 715 326 l 253 326 m 482 1181 l 482 1208 l 815 1208 l 815 1181 l 482 1181 z "},"Ą":{"ha":1006,"x_min":-62,"x_max":910,"o":"m 40 0 l 653 1062 l 681 1062 l 813 0 l 667 0 l 577 881 l 72 0 l 40 0 m -62 0 l -62 27 l 243 27 l 243 0 l -62 0 m 507 0 l 507 27 l 910 27 l 910 0 l 507 0 m 253 326 l 253 353 l 715 353 l 715 326 l 253 326 m 686 -301 q 618 -292 651 -301 q 564 -260 585 -283 q 543 -196 543 -237 q 567 -119 543 -154 q 629 -58 592 -85 q 707 -12 667 -31 q 779 16 747 6 l 787 5 q 736 -34 763 -9 q 691 -95 709 -59 q 672 -178 672 -131 q 690 -240 672 -220 q 732 -260 707 -260 q 773 -249 755 -260 q 803 -223 790 -239 q 824 -190 816 -206 l 846 -200 q 817 -243 836 -219 q 767 -284 799 -267 q 686 -301 735 -301 z "},"Å":{"ha":1006,"x_min":-62,"x_max":910,"o":"m 40 0 l 653 1062 l 681 1062 l 813 0 l 667 0 l 577 881 l 72 0 l 40 0 m -62 0 l -62 27 l 243 27 l 243 0 l -62 0 m 507 0 l 507 27 l 910 27 l 910 0 l 507 0 m 253 326 l 253 353 l 715 353 l 715 326 l 253 326 m 683 1167 q 595 1202 631 1167 q 559 1291 559 1238 q 595 1381 559 1344 q 683 1417 631 1417 q 773 1381 737 1417 q 808 1291 808 1344 q 773 1202 808 1238 q 683 1167 737 1167 m 680 1194 q 711 1203 697 1194 q 735 1229 725 1213 q 751 1265 745 1245 q 757 1305 757 1285 q 739 1367 757 1344 q 687 1389 720 1389 q 656 1379 670 1389 q 632 1353 642 1369 q 616 1317 622 1337 q 610 1277 610 1297 q 628 1216 610 1238 q 680 1194 647 1194 z "},"Ã":{"ha":1006,"x_min":-62,"x_max":987,"o":"m 40 0 l 653 1062 l 681 1062 l 813 0 l 667 0 l 577 881 l 72 0 l 40 0 m -62 0 l -62 27 l 243 27 l 243 0 l -62 0 m 507 0 l 507 27 l 910 27 l 910 0 l 507 0 m 253 326 l 253 353 l 715 353 l 715 326 l 253 326 m 819 1167 q 747 1183 778 1167 q 690 1222 715 1200 q 639 1260 664 1243 q 584 1276 614 1276 q 521 1254 544 1276 q 478 1181 497 1231 l 450 1181 q 494 1279 464 1240 q 561 1338 524 1318 q 632 1357 598 1357 q 700 1340 670 1357 q 754 1302 729 1324 q 803 1264 779 1281 q 853 1247 826 1247 q 917 1271 892 1247 q 959 1343 941 1294 l 987 1343 q 947 1239 973 1278 q 887 1183 920 1200 q 819 1167 853 1167 z "},"Æ":{"ha":1389,"x_min":-35,"x_max":1519,"o":"m 55 0 l 894 1042 l 928 1042 l 91 0 l 55 0 m -35 0 l -35 27 l 272 27 l 272 0 l -35 0 m 361 338 l 361 365 l 770 365 l 770 338 l 361 338 m 556 0 l 556 27 l 1012 27 q 1172 62 1107 27 q 1276 160 1236 97 q 1337 313 1317 224 l 1364 313 l 1291 0 l 556 0 m 674 0 l 915 1042 l 1047 1042 l 806 0 l 674 0 m 1104 387 q 1107 464 1115 433 q 1075 510 1099 494 q 1011 525 1051 525 l 913 525 l 913 552 l 1011 552 q 1083 566 1051 552 q 1139 609 1116 580 q 1172 685 1163 638 l 1200 685 l 1131 387 l 1104 387 m 1426 757 q 1432 890 1443 831 q 1378 981 1422 948 q 1253 1015 1335 1015 l 942 1015 l 942 1042 l 1519 1042 l 1453 757 l 1426 757 z "},"B":{"ha":868,"x_min":-62,"x_max":875,"o":"m -62 0 l -62 27 l 69 27 l 299 1015 l 181 1015 l 181 1042 l 569 1042 q 806 993 738 1042 q 875 840 875 944 q 849 734 875 785 q 778 643 824 684 q 672 575 733 602 q 540 537 610 547 q 680 507 622 531 q 768 440 738 483 q 799 333 799 397 q 765 194 799 256 q 672 89 731 132 q 534 23 613 45 q 367 0 456 0 l -62 0 m 201 27 l 367 27 q 482 54 431 27 q 569 127 533 81 q 626 234 606 174 q 646 361 646 294 q 625 458 646 423 q 565 507 603 492 q 474 521 526 521 l 290 521 l 296 549 l 465 549 q 552 567 505 549 q 641 624 599 586 q 710 719 683 662 q 737 854 737 776 q 720 939 737 903 q 666 994 703 974 q 569 1015 629 1015 l 431 1015 l 201 27 z "},"C":{"ha":932,"x_min":76,"x_max":1023,"o":"m 431 -14 q 244 31 324 -14 q 120 158 165 76 q 76 354 76 241 q 124 623 76 497 q 257 847 172 750 q 450 1000 341 944 q 681 1056 559 1056 q 827 1022 763 1056 q 924 923 891 989 q 944 757 956 856 l 929 757 q 923 878 939 827 q 872 961 906 928 q 791 1009 838 993 q 694 1024 745 1024 q 557 991 620 1024 q 442 901 494 958 q 350 769 390 844 q 284 609 310 694 q 243 439 257 525 q 229 272 229 352 q 253 143 229 201 q 325 51 277 85 q 445 17 373 17 q 614 52 538 17 q 745 148 690 87 q 832 285 801 208 l 848 285 q 759 132 820 199 q 614 25 699 64 q 431 -14 530 -14 m 759 0 l 722 98 q 769 152 745 124 q 813 219 794 181 l 832 285 l 859 285 l 783 0 l 759 0 m 929 757 l 940 815 q 930 879 937 849 q 906 941 924 909 l 999 1042 l 1023 1042 l 956 757 l 929 757 z "},"Ć":{"ha":932,"x_min":76,"x_max":1023,"o":"m 431 -14 q 244 31 324 -14 q 120 158 165 76 q 76 354 76 241 q 124 623 76 497 q 257 847 172 750 q 450 1000 341 944 q 681 1056 559 1056 q 827 1022 763 1056 q 924 923 891 989 q 944 757 956 856 l 929 757 q 923 878 939 827 q 872 961 906 928 q 791 1009 838 993 q 694 1024 745 1024 q 557 991 620 1024 q 442 901 494 958 q 350 769 390 844 q 284 609 310 694 q 243 439 257 525 q 229 272 229 352 q 253 143 229 201 q 325 51 277 85 q 445 17 373 17 q 614 52 538 17 q 745 148 690 87 q 832 285 801 208 l 848 285 q 759 132 820 199 q 614 25 699 64 q 431 -14 530 -14 m 759 0 l 722 98 q 769 152 745 124 q 813 219 794 181 l 832 285 l 859 285 l 783 0 l 759 0 m 929 757 l 940 815 q 930 879 937 849 q 906 941 924 909 l 999 1042 l 1023 1042 l 956 757 l 929 757 m 629 1167 l 613 1185 l 752 1338 q 775 1351 763 1348 q 797 1353 786 1355 q 816 1344 808 1351 q 830 1330 825 1338 q 836 1305 837 1319 q 829 1280 835 1292 q 811 1262 822 1269 l 629 1167 z "},"Č":{"ha":932,"x_min":76,"x_max":1023,"o":"m 431 -14 q 244 31 324 -14 q 120 158 165 76 q 76 354 76 241 q 124 623 76 497 q 257 847 172 750 q 450 1000 341 944 q 681 1056 559 1056 q 827 1022 763 1056 q 924 923 891 989 q 944 757 956 856 l 929 757 q 923 878 939 827 q 872 961 906 928 q 791 1009 838 993 q 694 1024 745 1024 q 557 991 620 1024 q 442 901 494 958 q 350 769 390 844 q 284 609 310 694 q 243 439 257 525 q 229 272 229 352 q 253 143 229 201 q 325 51 277 85 q 445 17 373 17 q 614 52 538 17 q 745 148 690 87 q 832 285 801 208 l 848 285 q 759 132 820 199 q 614 25 699 64 q 431 -14 530 -14 m 759 0 l 722 98 q 769 152 745 124 q 813 219 794 181 l 832 285 l 859 285 l 783 0 l 759 0 m 929 757 l 940 815 q 930 879 937 849 q 906 941 924 909 l 999 1042 l 1023 1042 l 956 757 l 929 757 m 661 1181 l 538 1334 l 557 1352 l 709 1243 l 918 1350 l 934 1334 l 750 1181 l 661 1181 z "},"Ç":{"ha":932,"x_min":76,"x_max":1023,"o":"m 431 -14 q 244 31 324 -14 q 120 158 165 76 q 76 354 76 241 q 124 623 76 497 q 257 847 172 750 q 450 1000 341 944 q 681 1056 559 1056 q 827 1022 763 1056 q 924 923 891 989 q 944 757 956 856 l 929 757 q 923 878 939 827 q 872 961 906 928 q 791 1009 838 993 q 694 1024 745 1024 q 557 991 620 1024 q 442 901 494 958 q 350 769 390 844 q 284 609 310 694 q 243 439 257 525 q 229 272 229 352 q 253 143 229 201 q 325 51 277 85 q 445 17 373 17 q 614 52 538 17 q 745 148 690 87 q 832 285 801 208 l 848 285 q 759 132 820 199 q 614 25 699 64 q 431 -14 530 -14 m 759 0 l 722 98 q 769 152 745 124 q 813 219 794 181 l 832 285 l 859 285 l 783 0 l 759 0 m 929 757 l 940 815 q 930 879 937 849 q 906 941 924 909 l 999 1042 l 1023 1042 l 956 757 l 929 757 m 305 -353 l 305 -327 q 407 -301 365 -327 q 448 -231 448 -276 q 408 -173 448 -187 q 299 -158 367 -158 l 444 8 l 478 8 l 381 -103 q 472 -115 434 -103 q 529 -149 509 -126 q 549 -208 549 -172 q 520 -280 549 -247 q 437 -333 492 -312 q 305 -353 383 -353 z "},"Ĉ":{"ha":932,"x_min":76,"x_max":1023,"o":"m 431 -14 q 244 31 324 -14 q 120 158 165 76 q 76 354 76 241 q 124 623 76 497 q 257 847 172 750 q 450 1000 341 944 q 681 1056 559 1056 q 827 1022 763 1056 q 924 923 891 989 q 944 757 956 856 l 929 757 q 923 878 939 827 q 872 961 906 928 q 791 1009 838 993 q 694 1024 745 1024 q 557 991 620 1024 q 442 901 494 958 q 350 769 390 844 q 284 609 310 694 q 243 439 257 525 q 229 272 229 352 q 253 143 229 201 q 325 51 277 85 q 445 17 373 17 q 614 52 538 17 q 745 148 690 87 q 832 285 801 208 l 848 285 q 759 132 820 199 q 614 25 699 64 q 431 -14 530 -14 m 759 0 l 722 98 q 769 152 745 124 q 813 219 794 181 l 832 285 l 859 285 l 783 0 l 759 0 m 929 757 l 940 815 q 930 879 937 849 q 906 941 924 909 l 999 1042 l 1023 1042 l 956 757 l 929 757 m 521 1178 l 506 1194 l 689 1347 l 779 1347 l 902 1194 l 885 1176 l 731 1284 l 521 1178 z "},"Ċ":{"ha":932,"x_min":76,"x_max":1023,"o":"m 431 -14 q 244 31 324 -14 q 120 158 165 76 q 76 354 76 241 q 124 623 76 497 q 257 847 172 750 q 450 1000 341 944 q 681 1056 559 1056 q 827 1022 763 1056 q 924 923 891 989 q 944 757 956 856 l 929 757 q 923 878 939 827 q 872 961 906 928 q 791 1009 838 993 q 694 1024 745 1024 q 557 991 620 1024 q 442 901 494 958 q 350 769 390 844 q 284 609 310 694 q 243 439 257 525 q 229 272 229 352 q 253 143 229 201 q 325 51 277 85 q 445 17 373 17 q 614 52 538 17 q 745 148 690 87 q 832 285 801 208 l 848 285 q 759 132 820 199 q 614 25 699 64 q 431 -14 530 -14 m 759 0 l 722 98 q 769 152 745 124 q 813 219 794 181 l 832 285 l 859 285 l 783 0 l 759 0 m 929 757 l 940 815 q 930 879 937 849 q 906 941 924 909 l 999 1042 l 1023 1042 l 956 757 l 929 757 m 744 1285 q 702 1297 721 1285 q 672 1327 683 1308 q 661 1369 661 1347 q 672 1411 661 1392 q 702 1442 683 1431 q 744 1453 721 1453 q 786 1442 767 1453 q 816 1411 805 1431 q 828 1369 828 1392 q 816 1327 828 1347 q 786 1297 805 1308 q 744 1285 767 1285 z "},"D":{"ha":965,"x_min":-49,"x_max":966,"o":"m -49 0 l -49 27 l 347 27 q 485 59 422 27 q 600 147 548 91 q 691 275 651 203 q 758 427 731 347 q 799 588 785 507 q 813 743 813 669 q 801 839 813 791 q 763 927 789 887 q 692 991 736 967 q 583 1015 648 1015 l 174 1015 l 174 1042 l 583 1042 q 783 1000 697 1042 q 917 880 869 959 q 966 688 966 801 q 917 420 966 545 q 783 201 869 296 q 586 53 698 107 q 347 0 474 0 l -49 0 m 76 0 l 313 1042 l 445 1042 l 208 0 l 76 0 z "},"Ď":{"ha":965,"x_min":-49,"x_max":966,"o":"m -49 0 l -49 27 l 347 27 q 485 59 422 27 q 600 147 548 91 q 691 275 651 203 q 758 427 731 347 q 799 588 785 507 q 813 743 813 669 q 801 839 813 791 q 763 927 789 887 q 692 991 736 967 q 583 1015 648 1015 l 174 1015 l 174 1042 l 583 1042 q 783 1000 697 1042 q 917 880 869 959 q 966 688 966 801 q 917 420 966 545 q 783 201 869 296 q 586 53 698 107 q 347 0 474 0 l -49 0 m 76 0 l 313 1042 l 445 1042 l 208 0 l 76 0 m 500 1181 l 377 1334 l 396 1352 l 548 1243 l 757 1350 l 773 1334 l 589 1181 l 500 1181 z "},"Đ":{"ha":965,"x_min":-49,"x_max":966,"o":"m 101 494 l 101 520 l 510 520 l 510 494 l 101 494 m -49 0 l -49 27 l 347 27 q 485 59 422 27 q 600 147 548 91 q 691 275 651 203 q 758 427 731 347 q 799 588 785 507 q 813 743 813 669 q 801 839 813 791 q 763 927 789 887 q 692 991 736 967 q 583 1015 648 1015 l 174 1015 l 174 1042 l 583 1042 q 783 1000 697 1042 q 917 880 869 959 q 966 688 966 801 q 917 420 966 545 q 783 201 869 296 q 586 53 698 107 q 347 0 474 0 l -49 0 m 76 0 l 313 1042 l 445 1042 l 208 0 l 76 0 z "},"Ð":{"ha":965,"x_min":-49,"x_max":966,"o":"m 101 494 l 101 520 l 510 520 l 510 494 l 101 494 m -49 0 l -49 27 l 347 27 q 485 59 422 27 q 600 147 548 91 q 691 275 651 203 q 758 427 731 347 q 799 588 785 507 q 813 743 813 669 q 801 839 813 791 q 763 927 789 887 q 692 991 736 967 q 583 1015 648 1015 l 174 1015 l 174 1042 l 583 1042 q 783 1000 697 1042 q 917 880 869 959 q 966 688 966 801 q 917 420 966 545 q 783 201 869 296 q 586 53 698 107 q 347 0 474 0 l -49 0 m 76 0 l 313 1042 l 445 1042 l 208 0 l 76 0 z "},"E":{"ha":808,"x_min":-62,"x_max":913,"o":"m 56 0 l 297 1042 l 429 1042 l 188 0 l 56 0 m -62 0 l -62 27 l 417 27 q 574 62 512 27 q 673 160 635 97 q 731 313 710 224 l 758 313 l 685 0 l -62 0 m 499 387 q 498 464 509 433 q 460 510 487 494 q 393 525 433 525 l 294 525 l 294 552 l 393 552 q 468 566 433 552 q 530 609 504 580 q 567 685 556 638 l 594 685 l 526 387 l 499 387 m 819 757 q 829 890 837 831 q 780 981 821 948 q 658 1015 740 1015 l 172 1015 l 172 1042 l 913 1042 l 847 757 l 819 757 z "},"É":{"ha":808,"x_min":-62,"x_max":913,"o":"m 56 0 l 297 1042 l 429 1042 l 188 0 l 56 0 m -62 0 l -62 27 l 417 27 q 574 62 512 27 q 673 160 635 97 q 731 313 710 224 l 758 313 l 685 0 l -62 0 m 499 387 q 498 464 509 433 q 460 510 487 494 q 393 525 433 525 l 294 525 l 294 552 l 393 552 q 468 566 433 552 q 530 609 504 580 q 567 685 556 638 l 594 685 l 526 387 l 499 387 m 819 757 q 829 890 837 831 q 780 981 821 948 q 658 1015 740 1015 l 172 1015 l 172 1042 l 913 1042 l 847 757 l 819 757 m 538 1167 l 521 1185 l 660 1338 q 683 1351 672 1348 q 705 1353 694 1355 q 725 1344 716 1351 q 738 1330 733 1338 q 744 1305 745 1319 q 737 1280 744 1292 q 719 1262 731 1269 l 538 1167 z "},"Ĕ":{"ha":808,"x_min":-62,"x_max":913,"o":"m 56 0 l 297 1042 l 429 1042 l 188 0 l 56 0 m -62 0 l -62 27 l 417 27 q 574 62 512 27 q 673 160 635 97 q 731 313 710 224 l 758 313 l 685 0 l -62 0 m 499 387 q 498 464 509 433 q 460 510 487 494 q 393 525 433 525 l 294 525 l 294 552 l 393 552 q 468 566 433 552 q 530 609 504 580 q 567 685 556 638 l 594 685 l 526 387 l 499 387 m 819 757 q 829 890 837 831 q 780 981 821 948 q 658 1015 740 1015 l 172 1015 l 172 1042 l 913 1042 l 847 757 l 819 757 m 609 1168 q 543 1184 567 1168 q 507 1226 518 1200 q 494 1284 495 1252 q 498 1347 493 1315 l 525 1347 q 531 1290 519 1313 q 566 1256 542 1267 q 623 1244 590 1244 q 688 1256 656 1244 q 745 1290 721 1267 q 776 1347 769 1313 l 803 1347 q 785 1284 799 1315 q 748 1226 772 1252 q 690 1184 724 1200 q 609 1168 656 1168 z "},"Ě":{"ha":808,"x_min":-62,"x_max":913,"o":"m 56 0 l 297 1042 l 429 1042 l 188 0 l 56 0 m -62 0 l -62 27 l 417 27 q 574 62 512 27 q 673 160 635 97 q 731 313 710 224 l 758 313 l 685 0 l -62 0 m 499 387 q 498 464 509 433 q 460 510 487 494 q 393 525 433 525 l 294 525 l 294 552 l 393 552 q 468 566 433 552 q 530 609 504 580 q 567 685 556 638 l 594 685 l 526 387 l 499 387 m 819 757 q 829 890 837 831 q 780 981 821 948 q 658 1015 740 1015 l 172 1015 l 172 1042 l 913 1042 l 847 757 l 819 757 m 569 1181 l 447 1334 l 465 1352 l 617 1243 l 826 1350 l 842 1334 l 658 1181 l 569 1181 z "},"Ê":{"ha":808,"x_min":-62,"x_max":913,"o":"m 56 0 l 297 1042 l 429 1042 l 188 0 l 56 0 m -62 0 l -62 27 l 417 27 q 574 62 512 27 q 673 160 635 97 q 731 313 710 224 l 758 313 l 685 0 l -62 0 m 499 387 q 498 464 509 433 q 460 510 487 494 q 393 525 433 525 l 294 525 l 294 552 l 393 552 q 468 566 433 552 q 530 609 504 580 q 567 685 556 638 l 594 685 l 526 387 l 499 387 m 819 757 q 829 890 837 831 q 780 981 821 948 q 658 1015 740 1015 l 172 1015 l 172 1042 l 913 1042 l 847 757 l 819 757 m 429 1178 l 414 1194 l 597 1347 l 688 1347 l 810 1194 l 793 1176 l 640 1284 l 429 1178 z "},"Ë":{"ha":808,"x_min":-62,"x_max":913,"o":"m 56 0 l 297 1042 l 429 1042 l 188 0 l 56 0 m -62 0 l -62 27 l 417 27 q 574 62 512 27 q 673 160 635 97 q 731 313 710 224 l 758 313 l 685 0 l -62 0 m 499 387 q 498 464 509 433 q 460 510 487 494 q 393 525 433 525 l 294 525 l 294 552 l 393 552 q 468 566 433 552 q 530 609 504 580 q 567 685 556 638 l 594 685 l 526 387 l 499 387 m 819 757 q 829 890 837 831 q 780 981 821 948 q 658 1015 740 1015 l 172 1015 l 172 1042 l 913 1042 l 847 757 l 819 757 m 714 1174 q 666 1193 686 1174 q 647 1240 647 1213 q 666 1288 647 1268 q 714 1308 686 1308 q 761 1288 742 1308 q 780 1240 780 1268 q 761 1193 780 1213 q 714 1174 742 1174 m 492 1174 q 444 1193 464 1174 q 424 1240 424 1213 q 444 1288 424 1268 q 492 1308 464 1308 q 539 1288 519 1308 q 558 1240 558 1268 q 539 1193 558 1213 q 492 1174 519 1174 z "},"Ė":{"ha":808,"x_min":-62,"x_max":913,"o":"m 56 0 l 297 1042 l 429 1042 l 188 0 l 56 0 m -62 0 l -62 27 l 417 27 q 574 62 512 27 q 673 160 635 97 q 731 313 710 224 l 758 313 l 685 0 l -62 0 m 499 387 q 498 464 509 433 q 460 510 487 494 q 393 525 433 525 l 294 525 l 294 552 l 393 552 q 468 566 433 552 q 530 609 504 580 q 567 685 556 638 l 594 685 l 526 387 l 499 387 m 819 757 q 829 890 837 831 q 780 981 821 948 q 658 1015 740 1015 l 172 1015 l 172 1042 l 913 1042 l 847 757 l 819 757 m 652 1285 q 610 1297 629 1285 q 581 1327 592 1308 q 569 1369 569 1347 q 581 1411 569 1392 q 610 1442 592 1431 q 652 1453 629 1453 q 694 1442 675 1453 q 725 1411 713 1431 q 736 1369 736 1392 q 725 1327 736 1347 q 694 1297 713 1308 q 652 1285 675 1285 z "},"È":{"ha":808,"x_min":-62,"x_max":913,"o":"m 56 0 l 297 1042 l 429 1042 l 188 0 l 56 0 m -62 0 l -62 27 l 417 27 q 574 62 512 27 q 673 160 635 97 q 731 313 710 224 l 758 313 l 685 0 l -62 0 m 499 387 q 498 464 509 433 q 460 510 487 494 q 393 525 433 525 l 294 525 l 294 552 l 393 552 q 468 566 433 552 q 530 609 504 580 q 567 685 556 638 l 594 685 l 526 387 l 499 387 m 819 757 q 829 890 837 831 q 780 981 821 948 q 658 1015 740 1015 l 172 1015 l 172 1042 l 913 1042 l 847 757 l 819 757 m 672 1167 l 490 1262 q 472 1280 478 1269 q 465 1305 465 1292 q 471 1330 465 1319 q 484 1344 476 1338 q 504 1353 493 1351 q 526 1351 515 1355 q 549 1338 538 1348 l 688 1185 l 672 1167 z "},"Ē":{"ha":808,"x_min":-62,"x_max":913,"o":"m 56 0 l 297 1042 l 429 1042 l 188 0 l 56 0 m -62 0 l -62 27 l 417 27 q 574 62 512 27 q 673 160 635 97 q 731 313 710 224 l 758 313 l 685 0 l -62 0 m 499 387 q 498 464 509 433 q 460 510 487 494 q 393 525 433 525 l 294 525 l 294 552 l 393 552 q 468 566 433 552 q 530 609 504 580 q 567 685 556 638 l 594 685 l 526 387 l 499 387 m 819 757 q 829 890 837 831 q 780 981 821 948 q 658 1015 740 1015 l 172 1015 l 172 1042 l 913 1042 l 847 757 l 819 757 m 413 1181 l 413 1208 l 746 1208 l 746 1181 l 413 1181 z "},"Ę":{"ha":808,"x_min":-62,"x_max":913,"o":"m 56 0 l 297 1042 l 429 1042 l 188 0 l 56 0 m -62 0 l -62 27 l 417 27 q 574 62 512 27 q 673 160 635 97 q 731 313 710 224 l 758 313 l 685 0 l -62 0 m 499 387 q 498 464 509 433 q 460 510 487 494 q 393 525 433 525 l 294 525 l 294 552 l 393 552 q 468 566 433 552 q 530 609 504 580 q 567 685 556 638 l 594 685 l 526 387 l 499 387 m 819 757 q 829 890 837 831 q 780 981 821 948 q 658 1015 740 1015 l 172 1015 l 172 1042 l 913 1042 l 847 757 l 819 757 m 490 -301 q 422 -292 455 -301 q 368 -260 390 -283 q 347 -196 347 -237 q 372 -119 347 -154 q 433 -58 396 -85 q 511 -12 471 -31 q 583 16 551 6 l 591 5 q 540 -34 567 -9 q 495 -95 513 -59 q 476 -178 476 -131 q 494 -240 476 -220 q 536 -260 511 -260 q 577 -249 559 -260 q 607 -223 594 -239 q 628 -190 620 -206 l 650 -200 q 622 -243 640 -219 q 571 -284 603 -267 q 490 -301 540 -301 z "},"F":{"ha":781,"x_min":-62,"x_max":899,"o":"m 56 0 l 297 1042 l 429 1042 l 188 0 l 56 0 m -62 0 l -62 27 l 327 27 l 327 0 l -62 0 m 508 372 q 507 448 519 419 q 461 491 496 477 q 366 505 426 505 l 290 505 l 290 532 l 366 532 q 469 544 426 532 q 540 583 513 556 q 575 656 567 610 l 602 656 l 535 372 l 508 372 m 806 757 q 815 890 823 831 q 766 981 807 948 q 644 1015 726 1015 l 172 1015 l 172 1042 l 899 1042 l 833 757 l 806 757 z "},"G":{"ha":1022,"x_min":76,"x_max":1023,"o":"m 431 -14 q 244 31 324 -14 q 120 158 165 76 q 76 354 76 241 q 107 572 76 468 q 195 765 139 676 q 328 918 252 853 q 494 1019 404 983 q 681 1056 583 1056 q 827 1022 763 1056 q 924 923 891 989 q 944 757 956 856 l 929 757 q 922 878 938 828 q 871 960 906 928 q 790 1007 836 992 q 694 1022 744 1022 q 532 976 606 1022 q 402 851 459 930 q 307 675 346 772 q 249 473 269 577 q 229 272 229 368 q 246 142 229 201 q 304 48 263 83 q 417 13 345 13 q 531 33 482 13 q 614 82 580 53 q 669 136 649 110 q 697 174 690 163 l 755 392 l 899 392 l 857 229 q 796 155 833 197 q 705 75 758 113 q 584 11 652 36 q 431 -14 515 -14 m 632 382 l 632 409 l 1007 409 l 1007 382 l 632 382 m 929 757 l 940 808 q 933 877 940 843 q 906 941 926 911 l 999 1042 l 1023 1042 l 956 757 l 929 757 z "},"Ğ":{"ha":1022,"x_min":76,"x_max":1023,"o":"m 431 -14 q 244 31 324 -14 q 120 158 165 76 q 76 354 76 241 q 107 572 76 468 q 195 765 139 676 q 328 918 252 853 q 494 1019 404 983 q 681 1056 583 1056 q 827 1022 763 1056 q 924 923 891 989 q 944 757 956 856 l 929 757 q 922 878 938 828 q 871 960 906 928 q 790 1007 836 992 q 694 1022 744 1022 q 532 976 606 1022 q 402 851 459 930 q 307 675 346 772 q 249 473 269 577 q 229 272 229 368 q 246 142 229 201 q 304 48 263 83 q 417 13 345 13 q 531 33 482 13 q 614 82 580 53 q 669 136 649 110 q 697 174 690 163 l 755 392 l 899 392 l 857 229 q 796 155 833 197 q 705 75 758 113 q 584 11 652 36 q 431 -14 515 -14 m 632 382 l 632 409 l 1007 409 l 1007 382 l 632 382 m 929 757 l 940 808 q 933 877 940 843 q 906 941 926 911 l 999 1042 l 1023 1042 l 956 757 l 929 757 m 708 1168 q 641 1184 666 1168 q 605 1226 617 1200 q 593 1284 594 1252 q 597 1347 592 1315 l 624 1347 q 629 1290 618 1313 q 665 1256 640 1267 q 722 1244 689 1244 q 787 1256 754 1244 q 844 1290 819 1267 q 875 1347 868 1313 l 902 1347 q 884 1284 897 1315 q 847 1226 870 1252 q 789 1184 823 1200 q 708 1168 755 1168 z "},"Ĝ":{"ha":1022,"x_min":76,"x_max":1023,"o":"m 431 -14 q 244 31 324 -14 q 120 158 165 76 q 76 354 76 241 q 107 572 76 468 q 195 765 139 676 q 328 918 252 853 q 494 1019 404 983 q 681 1056 583 1056 q 827 1022 763 1056 q 924 923 891 989 q 944 757 956 856 l 929 757 q 922 878 938 828 q 871 960 906 928 q 790 1007 836 992 q 694 1022 744 1022 q 532 976 606 1022 q 402 851 459 930 q 307 675 346 772 q 249 473 269 577 q 229 272 229 368 q 246 142 229 201 q 304 48 263 83 q 417 13 345 13 q 531 33 482 13 q 614 82 580 53 q 669 136 649 110 q 697 174 690 163 l 755 392 l 899 392 l 857 229 q 796 155 833 197 q 705 75 758 113 q 584 11 652 36 q 431 -14 515 -14 m 632 382 l 632 409 l 1007 409 l 1007 382 l 632 382 m 929 757 l 940 808 q 933 877 940 843 q 906 941 926 911 l 999 1042 l 1023 1042 l 956 757 l 929 757 m 528 1178 l 513 1194 l 696 1347 l 786 1347 l 909 1194 l 892 1176 l 738 1284 l 528 1178 z "},"Ģ":{"ha":1022,"x_min":76,"x_max":1023,"o":"m 431 -14 q 244 31 324 -14 q 120 158 165 76 q 76 354 76 241 q 107 572 76 468 q 195 765 139 676 q 328 918 252 853 q 494 1019 404 983 q 681 1056 583 1056 q 827 1022 763 1056 q 924 923 891 989 q 944 757 956 856 l 929 757 q 922 878 938 828 q 871 960 906 928 q 790 1007 836 992 q 694 1022 744 1022 q 532 976 606 1022 q 402 851 459 930 q 307 675 346 772 q 249 473 269 577 q 229 272 229 368 q 246 142 229 201 q 304 48 263 83 q 417 13 345 13 q 531 33 482 13 q 614 82 580 53 q 669 136 649 110 q 697 174 690 163 l 755 392 l 899 392 l 857 229 q 796 155 833 197 q 705 75 758 113 q 584 11 652 36 q 431 -14 515 -14 m 632 382 l 632 409 l 1007 409 l 1007 382 l 632 382 m 929 757 l 940 808 q 933 877 940 843 q 906 941 926 911 l 999 1042 l 1023 1042 l 956 757 l 929 757 m 257 -433 l 257 -410 q 322 -392 290 -410 q 382 -346 355 -375 q 423 -282 408 -317 q 434 -212 438 -247 l 456 -212 q 445 -242 456 -229 q 415 -263 433 -256 q 378 -270 397 -270 q 326 -252 342 -270 q 309 -208 309 -233 q 319 -174 309 -190 q 345 -149 328 -158 q 383 -139 363 -139 q 437 -160 416 -139 q 458 -224 458 -181 q 441 -299 458 -262 q 395 -366 424 -335 q 330 -415 366 -397 q 257 -433 294 -433 z "},"Ġ":{"ha":1022,"x_min":76,"x_max":1023,"o":"m 431 -14 q 244 31 324 -14 q 120 158 165 76 q 76 354 76 241 q 107 572 76 468 q 195 765 139 676 q 328 918 252 853 q 494 1019 404 983 q 681 1056 583 1056 q 827 1022 763 1056 q 924 923 891 989 q 944 757 956 856 l 929 757 q 922 878 938 828 q 871 960 906 928 q 790 1007 836 992 q 694 1022 744 1022 q 532 976 606 1022 q 402 851 459 930 q 307 675 346 772 q 249 473 269 577 q 229 272 229 368 q 246 142 229 201 q 304 48 263 83 q 417 13 345 13 q 531 33 482 13 q 614 82 580 53 q 669 136 649 110 q 697 174 690 163 l 755 392 l 899 392 l 857 229 q 796 155 833 197 q 705 75 758 113 q 584 11 652 36 q 431 -14 515 -14 m 632 382 l 632 409 l 1007 409 l 1007 382 l 632 382 m 929 757 l 940 808 q 933 877 940 843 q 906 941 926 911 l 999 1042 l 1023 1042 l 956 757 l 929 757 m 751 1285 q 709 1297 728 1285 q 679 1327 690 1308 q 668 1369 668 1347 q 679 1411 668 1392 q 709 1442 690 1431 q 751 1453 728 1453 q 793 1442 774 1453 q 823 1411 812 1431 q 835 1369 835 1392 q 823 1327 835 1347 q 793 1297 812 1308 q 751 1285 774 1285 z "},"H":{"ha":999,"x_min":-56,"x_max":1132,"o":"m 288 500 l 288 527 l 788 527 l 788 500 l 288 500 m 549 1015 l 424 1015 l 201 27 l 319 27 l 319 0 l -56 0 l -56 27 l 69 27 l 292 1015 l 174 1015 l 174 1042 l 549 1042 l 549 1015 m 1132 1042 l 1132 1015 l 1008 1015 l 784 27 l 903 27 l 903 0 l 528 0 l 528 27 l 652 27 l 876 1015 l 757 1015 l 757 1042 l 1132 1042 z "},"Ħ":{"ha":999,"x_min":-56,"x_max":1132,"o":"m 153 758 l 153 784 l 1125 784 l 1125 758 l 153 758 m 288 500 l 288 527 l 788 527 l 788 500 l 288 500 m 549 1015 l 424 1015 l 201 27 l 319 27 l 319 0 l -56 0 l -56 27 l 69 27 l 292 1015 l 174 1015 l 174 1042 l 549 1042 l 549 1015 m 1132 1042 l 1132 1015 l 1008 1015 l 784 27 l 903 27 l 903 0 l 528 0 l 528 27 l 652 27 l 876 1015 l 757 1015 l 757 1042 l 1132 1042 z "},"Ĥ":{"ha":999,"x_min":-56,"x_max":1132,"o":"m 288 500 l 288 527 l 788 527 l 788 500 l 288 500 m 549 1015 l 424 1015 l 201 27 l 319 27 l 319 0 l -56 0 l -56 27 l 69 27 l 292 1015 l 174 1015 l 174 1042 l 549 1042 l 549 1015 m 1132 1042 l 1132 1015 l 1008 1015 l 784 27 l 903 27 l 903 0 l 528 0 l 528 27 l 652 27 l 876 1015 l 757 1015 l 757 1042 l 1132 1042 m 502 1178 l 487 1194 l 670 1347 l 760 1347 l 883 1194 l 866 1176 l 713 1284 l 502 1178 z "},"I":{"ha":485,"x_min":-56,"x_max":619,"o":"m 98 0 l 333 1042 l 465 1042 l 229 0 l 98 0 m -56 0 l -56 27 l 390 27 l 390 0 l -56 0 m 174 1015 l 174 1042 l 619 1042 l 619 1015 l 174 1015 z "},"Ĳ":{"ha":1190,"x_min":-56,"x_max":1256,"o":"m 98 0 l 333 1042 l 465 1042 l 229 0 l 98 0 m -56 0 l -56 27 l 390 27 l 390 0 l -56 0 m 174 1015 l 174 1042 l 619 1042 l 619 1015 l 174 1015 m 651 -42 q 560 -19 598 -42 q 503 38 523 3 q 483 108 483 73 q 494 157 483 137 q 524 188 506 177 q 563 198 542 198 q 598 190 580 198 q 628 163 616 181 q 641 117 641 145 q 630 73 641 90 q 601 48 619 56 q 563 40 583 40 q 527 49 545 40 q 497 72 509 57 q 485 108 485 87 l 511 108 q 521 64 511 85 q 550 25 531 42 q 593 -4 568 7 q 648 -15 618 -15 q 717 17 691 -15 q 764 110 744 48 q 805 264 783 172 l 985 1042 l 1117 1042 l 936 236 q 888 152 915 199 q 825 60 860 105 q 746 -13 790 16 q 651 -42 703 -42 m 801 1015 l 801 1042 l 1256 1042 l 1256 1015 l 801 1015 z "},"Í":{"ha":485,"x_min":-56,"x_max":619,"o":"m 98 0 l 333 1042 l 465 1042 l 229 0 l 98 0 m -56 0 l -56 27 l 390 27 l 390 0 l -56 0 m 174 1015 l 174 1042 l 619 1042 l 619 1015 l 174 1015 m 356 1167 l 339 1185 l 478 1338 q 501 1351 490 1348 q 523 1353 513 1355 q 543 1344 534 1351 q 556 1330 551 1338 q 563 1305 563 1319 q 555 1280 562 1292 q 538 1262 549 1269 l 356 1167 z "},"Ĭ":{"ha":485,"x_min":-56,"x_max":622,"o":"m 98 0 l 333 1042 l 465 1042 l 229 0 l 98 0 m -56 0 l -56 27 l 390 27 l 390 0 l -56 0 m 174 1015 l 174 1042 l 619 1042 l 619 1015 l 174 1015 m 427 1168 q 361 1184 385 1168 q 325 1226 336 1200 q 312 1284 313 1252 q 316 1347 311 1315 l 343 1347 q 349 1290 338 1313 q 384 1256 360 1267 q 441 1244 408 1244 q 506 1256 474 1244 q 563 1290 539 1267 q 594 1347 588 1313 l 622 1347 q 603 1284 617 1315 q 566 1226 590 1252 q 508 1184 542 1200 q 427 1168 474 1168 z "},"Î":{"ha":485,"x_min":-56,"x_max":628,"o":"m 98 0 l 333 1042 l 465 1042 l 229 0 l 98 0 m -56 0 l -56 27 l 390 27 l 390 0 l -56 0 m 174 1015 l 174 1042 l 619 1042 l 619 1015 l 174 1015 m 247 1178 l 232 1194 l 415 1347 l 506 1347 l 628 1194 l 611 1176 l 458 1284 l 247 1178 z "},"Ï":{"ha":485,"x_min":-56,"x_max":619,"o":"m 98 0 l 333 1042 l 465 1042 l 229 0 l 98 0 m -56 0 l -56 27 l 390 27 l 390 0 l -56 0 m 174 1015 l 174 1042 l 619 1042 l 619 1015 l 174 1015 m 532 1174 q 484 1193 504 1174 q 465 1240 465 1213 q 484 1288 465 1268 q 532 1308 504 1308 q 579 1288 560 1308 q 598 1240 598 1268 q 579 1193 598 1213 q 532 1174 560 1174 m 310 1174 q 262 1193 282 1174 q 242 1240 242 1213 q 262 1288 242 1268 q 310 1308 282 1308 q 357 1288 338 1308 q 376 1240 376 1268 q 357 1193 376 1213 q 310 1174 338 1174 z "},"İ":{"ha":485,"x_min":-56,"x_max":619,"o":"m 98 0 l 333 1042 l 465 1042 l 229 0 l 98 0 m -56 0 l -56 27 l 390 27 l 390 0 l -56 0 m 174 1015 l 174 1042 l 619 1042 l 619 1015 l 174 1015 m 470 1285 q 428 1297 447 1285 q 399 1327 410 1308 q 388 1369 388 1347 q 399 1411 388 1392 q 428 1442 410 1431 q 470 1453 447 1453 q 512 1442 493 1453 q 543 1411 531 1431 q 554 1369 554 1392 q 543 1327 554 1347 q 512 1297 531 1308 q 470 1285 493 1285 z "},"Ì":{"ha":485,"x_min":-56,"x_max":619,"o":"m 98 0 l 333 1042 l 465 1042 l 229 0 l 98 0 m -56 0 l -56 27 l 390 27 l 390 0 l -56 0 m 174 1015 l 174 1042 l 619 1042 l 619 1015 l 174 1015 m 490 1167 l 308 1262 q 290 1280 297 1269 q 283 1305 283 1292 q 289 1330 283 1319 q 302 1344 294 1338 q 322 1353 311 1351 q 344 1351 333 1355 q 367 1338 356 1348 l 506 1185 l 490 1167 z "},"Ī":{"ha":485,"x_min":-56,"x_max":619,"o":"m 98 0 l 333 1042 l 465 1042 l 229 0 l 98 0 m -56 0 l -56 27 l 390 27 l 390 0 l -56 0 m 174 1015 l 174 1042 l 619 1042 l 619 1015 l 174 1015 m 231 1181 l 231 1208 l 564 1208 l 564 1181 l 231 1181 z "},"Į":{"ha":485,"x_min":-56,"x_max":619,"o":"m 98 0 l 333 1042 l 465 1042 l 229 0 l 98 0 m -56 0 l -56 27 l 390 27 l 390 0 l -56 0 m 174 1015 l 174 1042 l 619 1042 l 619 1015 l 174 1015 m 99 -301 q 31 -292 64 -301 q -23 -260 -1 -283 q -44 -196 -44 -237 q -19 -119 -44 -154 q 42 -58 5 -85 q 120 -12 80 -31 q 192 16 160 6 l 200 5 q 149 -34 176 -9 q 104 -95 122 -59 q 85 -178 85 -131 q 103 -240 85 -220 q 145 -260 120 -260 q 186 -249 168 -260 q 216 -223 203 -239 q 238 -190 229 -206 l 259 -200 q 231 -243 249 -219 q 180 -284 212 -267 q 99 -301 149 -301 z "},"Ĩ":{"ha":485,"x_min":-56,"x_max":735,"o":"m 98 0 l 333 1042 l 465 1042 l 229 0 l 98 0 m -56 0 l -56 27 l 390 27 l 390 0 l -56 0 m 174 1015 l 174 1042 l 619 1042 l 619 1015 l 174 1015 m 568 1167 q 495 1183 526 1167 q 438 1222 464 1200 q 388 1260 413 1243 q 333 1276 363 1276 q 269 1254 293 1276 q 226 1181 246 1231 l 199 1181 q 243 1279 213 1240 q 310 1338 273 1318 q 381 1357 347 1357 q 448 1340 419 1357 q 503 1302 478 1324 q 551 1264 528 1281 q 601 1247 575 1247 q 665 1271 641 1247 q 708 1343 690 1294 l 735 1343 q 695 1239 722 1278 q 635 1183 669 1200 q 568 1167 602 1167 z "},"J":{"ha":594,"x_min":-44,"x_max":728,"o":"m 124 -42 q 33 -19 70 -42 q -25 38 -5 3 q -44 108 -44 73 q -33 157 -44 137 q -4 188 -22 177 q 35 198 14 198 q 70 190 52 198 q 101 163 88 181 q 113 117 113 145 q 102 73 113 90 q 73 48 91 56 q 35 40 56 40 q -1 49 17 40 q -31 72 -19 57 q -43 108 -43 87 l -17 108 q -7 64 -17 85 q 22 25 3 42 q 65 -4 40 7 q 120 -15 90 -15 q 190 17 163 -15 q 236 110 216 48 q 277 264 256 172 l 458 1042 l 589 1042 l 408 236 q 360 152 388 199 q 297 60 332 105 q 218 -13 262 16 q 124 -42 175 -42 m 274 1015 l 274 1042 l 728 1042 l 728 1015 l 274 1015 z "},"Ĵ":{"ha":594,"x_min":-44,"x_max":753,"o":"m 124 -42 q 33 -19 70 -42 q -25 38 -5 3 q -44 108 -44 73 q -33 157 -44 137 q -4 188 -22 177 q 35 198 14 198 q 70 190 52 198 q 101 163 88 181 q 113 117 113 145 q 102 73 113 90 q 73 48 91 56 q 35 40 56 40 q -1 49 17 40 q -31 72 -19 57 q -43 108 -43 87 l -17 108 q -7 64 -17 85 q 22 25 3 42 q 65 -4 40 7 q 120 -15 90 -15 q 190 17 163 -15 q 236 110 216 48 q 277 264 256 172 l 458 1042 l 589 1042 l 408 236 q 360 152 388 199 q 297 60 332 105 q 218 -13 262 16 q 124 -42 175 -42 m 274 1015 l 274 1042 l 728 1042 l 728 1015 l 274 1015 m 372 1178 l 356 1194 l 540 1347 l 630 1347 l 753 1194 l 735 1176 l 582 1284 l 372 1178 z "},"K":{"ha":933,"x_min":-56,"x_max":1017,"o":"m 173 301 l 865 1040 l 904 1040 l 212 301 l 173 301 m -56 0 l -56 27 l 319 27 l 319 0 l -56 0 m 413 0 l 413 27 l 843 27 l 843 0 l 413 0 m 63 0 l 299 1042 l 431 1042 l 194 0 l 63 0 m 577 0 l 403 535 l 503 638 l 728 0 l 577 0 m 174 1015 l 174 1042 l 549 1042 l 549 1015 l 174 1015 m 683 1015 l 683 1042 l 1017 1042 l 1017 1015 l 683 1015 z "},"Ķ":{"ha":933,"x_min":-56,"x_max":1017,"o":"m 173 301 l 865 1040 l 904 1040 l 212 301 l 173 301 m -56 0 l -56 27 l 319 27 l 319 0 l -56 0 m 413 0 l 413 27 l 843 27 l 843 0 l 413 0 m 63 0 l 299 1042 l 431 1042 l 194 0 l 63 0 m 577 0 l 403 535 l 503 638 l 728 0 l 577 0 m 174 1015 l 174 1042 l 549 1042 l 549 1015 l 174 1015 m 683 1015 l 683 1042 l 1017 1042 l 1017 1015 l 683 1015 m 210 -433 l 210 -410 q 276 -392 243 -410 q 335 -346 308 -375 q 376 -282 362 -317 q 388 -212 391 -247 l 410 -212 q 398 -242 410 -229 q 369 -263 387 -256 q 332 -270 351 -270 q 279 -252 296 -270 q 263 -208 263 -233 q 272 -174 263 -190 q 299 -149 282 -158 q 337 -139 316 -139 q 390 -160 369 -139 q 411 -224 411 -181 q 394 -299 411 -262 q 348 -366 377 -335 q 284 -415 319 -397 q 210 -433 248 -433 z "},"L":{"ha":792,"x_min":-62,"x_max":751,"o":"m 56 0 l 297 1042 l 429 1042 l 188 0 l 56 0 m -62 0 l -62 27 l 410 27 q 580 62 519 27 q 672 160 640 97 q 723 313 703 224 l 751 313 l 678 0 l -62 0 m 172 1015 l 172 1042 l 554 1042 l 554 1015 l 172 1015 z "},"Ĺ":{"ha":792,"x_min":-62,"x_max":751,"o":"m 56 0 l 297 1042 l 429 1042 l 188 0 l 56 0 m -62 0 l -62 27 l 410 27 q 580 62 519 27 q 672 160 640 97 q 723 313 703 224 l 751 313 l 678 0 l -62 0 m 172 1015 l 172 1042 l 554 1042 l 554 1015 l 172 1015 m 315 1167 l 299 1185 l 438 1338 q 461 1351 449 1348 q 483 1353 472 1355 q 502 1344 494 1351 q 516 1330 511 1338 q 522 1305 523 1319 q 515 1280 522 1292 q 497 1262 508 1269 l 315 1167 z "},"Ľ":{"ha":792,"x_min":-62,"x_max":831,"o":"m 56 0 l 297 1042 l 429 1042 l 188 0 l 56 0 m -62 0 l -62 27 l 410 27 q 580 62 519 27 q 672 160 640 97 q 723 313 703 224 l 751 313 l 678 0 l -62 0 m 172 1015 l 172 1042 l 554 1042 l 554 1015 l 172 1015 m 580 689 l 580 717 q 661 738 621 717 q 736 796 702 760 q 788 876 769 832 q 802 964 806 919 l 828 964 q 814 927 828 943 q 778 901 800 910 q 732 892 756 892 q 666 915 688 892 q 645 969 645 938 q 657 1012 645 992 q 691 1044 669 1032 q 738 1056 712 1056 q 805 1030 779 1056 q 831 949 831 1003 q 810 856 831 902 q 752 772 788 810 q 672 711 717 734 q 580 689 627 689 z "},"Ļ":{"ha":792,"x_min":-62,"x_max":751,"o":"m 56 0 l 297 1042 l 429 1042 l 188 0 l 56 0 m -62 0 l -62 27 l 410 27 q 580 62 519 27 q 672 160 640 97 q 723 313 703 224 l 751 313 l 678 0 l -62 0 m 172 1015 l 172 1042 l 554 1042 l 554 1015 l 172 1015 m 138 -433 l 138 -410 q 203 -392 171 -410 q 263 -346 236 -375 q 304 -282 290 -317 q 315 -212 319 -247 l 338 -212 q 326 -242 338 -229 q 297 -263 315 -256 q 260 -270 278 -270 q 207 -252 224 -270 q 190 -208 190 -233 q 200 -174 190 -190 q 227 -149 210 -158 q 265 -139 244 -139 q 318 -160 297 -139 q 339 -224 339 -181 q 322 -299 339 -262 q 276 -366 305 -335 q 211 -415 247 -397 q 138 -433 176 -433 z "},"Ŀ":{"ha":792,"x_min":-62,"x_max":751,"o":"m 56 0 l 297 1042 l 429 1042 l 188 0 l 56 0 m -62 0 l -62 27 l 410 27 q 580 62 519 27 q 672 160 640 97 q 723 313 703 224 l 751 313 l 678 0 l -62 0 m 172 1015 l 172 1042 l 554 1042 l 554 1015 l 172 1015 m 655 472 q 613 483 632 472 q 582 514 594 494 q 571 556 571 533 q 582 598 571 578 q 613 628 594 617 q 655 640 632 640 q 697 628 678 640 q 726 598 715 617 q 738 556 738 578 q 726 514 738 533 q 697 483 715 494 q 655 472 678 472 z "},"Ł":{"ha":792,"x_min":-62,"x_max":751,"o":"m 67 469 l 67 501 l 546 806 l 546 774 l 67 469 m 56 0 l 297 1042 l 429 1042 l 188 0 l 56 0 m -62 0 l -62 27 l 410 27 q 580 62 519 27 q 672 160 640 97 q 723 313 703 224 l 751 313 l 678 0 l -62 0 m 172 1015 l 172 1042 l 554 1042 l 554 1015 l 172 1015 z "},"M":{"ha":1183,"x_min":-35,"x_max":1281,"o":"m 458 -14 l 294 1042 l 427 1042 l 567 181 l 1044 1042 l 1075 1042 l 488 -14 l 458 -14 m -35 0 l -35 27 l 195 27 l 195 0 l -35 0 m 60 0 l 275 1015 l 174 1015 l 174 1042 l 308 1042 l 88 0 l 60 0 m 746 0 l 746 27 l 1086 27 l 1086 0 l 746 0 m 843 0 l 1065 1042 l 1281 1042 l 1281 1015 l 1192 1015 l 975 0 l 843 0 z "},"N":{"ha":1016,"x_min":-49,"x_max":1149,"o":"m 738 -14 l 324 1042 l 484 1042 l 800 218 l 988 1042 l 1017 1042 l 776 -14 l 738 -14 m -49 0 l -49 27 l 274 27 l 274 0 l -49 0 m 83 0 l 311 1015 l 174 1015 l 174 1042 l 345 1042 l 111 0 l 83 0 m 822 1015 l 822 1042 l 1149 1042 l 1149 1015 l 822 1015 z "},"Ń":{"ha":1016,"x_min":-49,"x_max":1149,"o":"m 738 -14 l 324 1042 l 484 1042 l 800 218 l 988 1042 l 1017 1042 l 776 -14 l 738 -14 m -49 0 l -49 27 l 274 27 l 274 0 l -49 0 m 83 0 l 311 1015 l 174 1015 l 174 1042 l 345 1042 l 111 0 l 83 0 m 822 1015 l 822 1042 l 1149 1042 l 1149 1015 l 822 1015 m 608 1167 l 592 1185 l 731 1338 q 754 1351 742 1348 q 776 1353 765 1355 q 795 1344 787 1351 q 809 1330 804 1338 q 815 1305 816 1319 q 808 1280 815 1292 q 790 1262 801 1269 l 608 1167 z "},"Ň":{"ha":1016,"x_min":-49,"x_max":1149,"o":"m 738 -14 l 324 1042 l 484 1042 l 800 218 l 988 1042 l 1017 1042 l 776 -14 l 738 -14 m -49 0 l -49 27 l 274 27 l 274 0 l -49 0 m 83 0 l 311 1015 l 174 1015 l 174 1042 l 345 1042 l 111 0 l 83 0 m 822 1015 l 822 1042 l 1149 1042 l 1149 1015 l 822 1015 m 640 1181 l 517 1334 l 536 1352 l 688 1243 l 897 1350 l 913 1334 l 729 1181 l 640 1181 z "},"Ņ":{"ha":1016,"x_min":-49,"x_max":1149,"o":"m 738 -14 l 324 1042 l 484 1042 l 800 218 l 988 1042 l 1017 1042 l 776 -14 l 738 -14 m -49 0 l -49 27 l 274 27 l 274 0 l -49 0 m 83 0 l 311 1015 l 174 1015 l 174 1042 l 345 1042 l 111 0 l 83 0 m 822 1015 l 822 1042 l 1149 1042 l 1149 1015 l 822 1015 m 277 -433 l 277 -410 q 342 -392 310 -410 q 402 -346 375 -375 q 443 -282 428 -317 q 454 -212 458 -247 l 476 -212 q 465 -242 476 -229 q 435 -263 453 -256 q 399 -270 417 -270 q 346 -252 363 -270 q 329 -208 329 -233 q 339 -174 329 -190 q 366 -149 349 -158 q 403 -139 383 -139 q 457 -160 436 -139 q 478 -224 478 -181 q 461 -299 478 -262 q 415 -366 444 -335 q 350 -415 386 -397 q 277 -433 315 -433 z "},"Ñ":{"ha":1016,"x_min":-49,"x_max":1149,"o":"m 738 -14 l 324 1042 l 484 1042 l 800 218 l 988 1042 l 1017 1042 l 776 -14 l 738 -14 m -49 0 l -49 27 l 274 27 l 274 0 l -49 0 m 83 0 l 311 1015 l 174 1015 l 174 1042 l 345 1042 l 111 0 l 83 0 m 822 1015 l 822 1042 l 1149 1042 l 1149 1015 l 822 1015 m 821 1167 q 748 1183 779 1167 q 691 1222 717 1200 q 640 1260 665 1243 q 585 1276 615 1276 q 522 1254 546 1276 q 479 1181 499 1231 l 451 1181 q 495 1279 465 1240 q 563 1338 526 1318 q 633 1357 599 1357 q 701 1340 672 1357 q 756 1302 731 1324 q 804 1264 781 1281 q 854 1247 828 1247 q 918 1271 894 1247 q 960 1343 942 1294 l 988 1343 q 948 1239 974 1278 q 888 1183 922 1200 q 821 1167 855 1167 z "},"Ŋ":{"ha":1078,"x_min":-89,"x_max":972,"o":"m 450 -361 q 343 -338 383 -361 q 288 -278 303 -315 q 281 -203 272 -242 q 303 -155 288 -174 q 339 -126 319 -136 q 380 -117 359 -117 q 428 -133 406 -117 q 440 -192 449 -150 q 408 -243 433 -218 q 348 -267 383 -267 q 326 -261 335 -267 q 315 -244 316 -256 q 353 -308 319 -281 q 452 -335 387 -335 q 533 -304 499 -335 q 591 -220 567 -272 q 634 -103 616 -167 q 667 28 652 -38 l 820 689 q 830 811 835 753 q 803 913 826 869 q 739 982 780 957 q 642 1008 699 1008 q 512 979 572 1008 q 407 905 453 950 q 332 810 361 860 q 292 716 303 760 l 275 716 q 316 816 285 759 q 398 928 347 874 q 521 1019 449 983 q 683 1055 592 1055 q 866 1007 801 1055 q 952 881 932 958 q 951 715 972 803 l 782 -16 q 741 -145 767 -83 q 676 -256 715 -208 q 581 -333 637 -305 q 450 -361 526 -361 m -89 0 l -83 27 l 15 27 l 242 1015 l 145 1015 l 151 1042 l 367 1042 l 133 27 l 229 27 l 223 0 l -89 0 z "},"O":{"ha":992,"x_min":76,"x_max":993,"o":"m 417 -14 q 166 85 257 -14 q 76 354 76 185 q 107 572 76 468 q 193 765 138 676 q 322 918 249 853 q 479 1019 394 983 q 652 1056 563 1056 q 828 1011 751 1056 q 949 883 906 966 q 993 688 993 801 q 947 418 993 545 q 820 194 901 292 q 636 42 740 97 q 417 -14 533 -14 m 417 11 q 542 44 484 11 q 647 136 599 78 q 730 270 694 194 q 791 430 766 345 q 828 602 815 515 q 840 770 840 690 q 831 859 840 813 q 800 943 822 904 q 743 1006 779 982 q 652 1031 706 1031 q 532 997 588 1031 q 429 906 476 964 q 345 772 382 847 q 282 611 308 697 q 243 439 256 526 q 229 272 229 352 q 246 142 229 201 q 303 47 263 83 q 417 11 344 11 z "},"Ó":{"ha":992,"x_min":76,"x_max":993,"o":"m 417 -14 q 166 85 257 -14 q 76 354 76 185 q 107 572 76 468 q 193 765 138 676 q 322 918 249 853 q 479 1019 394 983 q 652 1056 563 1056 q 828 1011 751 1056 q 949 883 906 966 q 993 688 993 801 q 947 418 993 545 q 820 194 901 292 q 636 42 740 97 q 417 -14 533 -14 m 417 11 q 542 44 484 11 q 647 136 599 78 q 730 270 694 194 q 791 430 766 345 q 828 602 815 515 q 840 770 840 690 q 831 859 840 813 q 800 943 822 904 q 743 1006 779 982 q 652 1031 706 1031 q 532 997 588 1031 q 429 906 476 964 q 345 772 382 847 q 282 611 308 697 q 243 439 256 526 q 229 272 229 352 q 246 142 229 201 q 303 47 263 83 q 417 11 344 11 m 608 1167 l 592 1185 l 731 1338 q 754 1351 742 1348 q 776 1353 765 1355 q 795 1344 787 1351 q 809 1330 804 1338 q 815 1305 816 1319 q 808 1280 815 1292 q 790 1262 801 1269 l 608 1167 z "},"Ŏ":{"ha":992,"x_min":76,"x_max":993,"o":"m 417 -14 q 166 85 257 -14 q 76 354 76 185 q 107 572 76 468 q 193 765 138 676 q 322 918 249 853 q 479 1019 394 983 q 652 1056 563 1056 q 828 1011 751 1056 q 949 883 906 966 q 993 688 993 801 q 947 418 993 545 q 820 194 901 292 q 636 42 740 97 q 417 -14 533 -14 m 417 11 q 542 44 484 11 q 647 136 599 78 q 730 270 694 194 q 791 430 766 345 q 828 602 815 515 q 840 770 840 690 q 831 859 840 813 q 800 943 822 904 q 743 1006 779 982 q 652 1031 706 1031 q 532 997 588 1031 q 429 906 476 964 q 345 772 382 847 q 282 611 308 697 q 243 439 256 526 q 229 272 229 352 q 246 142 229 201 q 303 47 263 83 q 417 11 344 11 m 680 1168 q 614 1184 638 1168 q 577 1226 589 1200 q 565 1284 566 1252 q 569 1347 564 1315 l 596 1347 q 601 1290 590 1313 q 637 1256 613 1267 q 694 1244 661 1244 q 759 1256 726 1244 q 816 1290 792 1267 q 847 1347 840 1313 l 874 1347 q 856 1284 869 1315 q 819 1226 842 1252 q 761 1184 795 1200 q 680 1168 727 1168 z "},"Ô":{"ha":992,"x_min":76,"x_max":993,"o":"m 417 -14 q 166 85 257 -14 q 76 354 76 185 q 107 572 76 468 q 193 765 138 676 q 322 918 249 853 q 479 1019 394 983 q 652 1056 563 1056 q 828 1011 751 1056 q 949 883 906 966 q 993 688 993 801 q 947 418 993 545 q 820 194 901 292 q 636 42 740 97 q 417 -14 533 -14 m 417 11 q 542 44 484 11 q 647 136 599 78 q 730 270 694 194 q 791 430 766 345 q 828 602 815 515 q 840 770 840 690 q 831 859 840 813 q 800 943 822 904 q 743 1006 779 982 q 652 1031 706 1031 q 532 997 588 1031 q 429 906 476 964 q 345 772 382 847 q 282 611 308 697 q 243 439 256 526 q 229 272 229 352 q 246 142 229 201 q 303 47 263 83 q 417 11 344 11 m 500 1178 l 485 1194 l 668 1347 l 758 1347 l 881 1194 l 864 1176 l 710 1284 l 500 1178 z "},"Ö":{"ha":992,"x_min":76,"x_max":993,"o":"m 417 -14 q 166 85 257 -14 q 76 354 76 185 q 107 572 76 468 q 193 765 138 676 q 322 918 249 853 q 479 1019 394 983 q 652 1056 563 1056 q 828 1011 751 1056 q 949 883 906 966 q 993 688 993 801 q 947 418 993 545 q 820 194 901 292 q 636 42 740 97 q 417 -14 533 -14 m 417 11 q 542 44 484 11 q 647 136 599 78 q 730 270 694 194 q 791 430 766 345 q 828 602 815 515 q 840 770 840 690 q 831 859 840 813 q 800 943 822 904 q 743 1006 779 982 q 652 1031 706 1031 q 532 997 588 1031 q 429 906 476 964 q 345 772 382 847 q 282 611 308 697 q 243 439 256 526 q 229 272 229 352 q 246 142 229 201 q 303 47 263 83 q 417 11 344 11 m 785 1174 q 737 1193 757 1174 q 717 1240 717 1213 q 737 1288 717 1268 q 785 1308 757 1308 q 832 1288 813 1308 q 851 1240 851 1268 q 832 1193 851 1213 q 785 1174 813 1174 m 563 1174 q 515 1193 535 1174 q 495 1240 495 1213 q 515 1288 495 1268 q 563 1308 535 1308 q 609 1288 590 1308 q 628 1240 628 1268 q 609 1193 628 1213 q 563 1174 590 1174 z "},"Ò":{"ha":992,"x_min":76,"x_max":993,"o":"m 417 -14 q 166 85 257 -14 q 76 354 76 185 q 107 572 76 468 q 193 765 138 676 q 322 918 249 853 q 479 1019 394 983 q 652 1056 563 1056 q 828 1011 751 1056 q 949 883 906 966 q 993 688 993 801 q 947 418 993 545 q 820 194 901 292 q 636 42 740 97 q 417 -14 533 -14 m 417 11 q 542 44 484 11 q 647 136 599 78 q 730 270 694 194 q 791 430 766 345 q 828 602 815 515 q 840 770 840 690 q 831 859 840 813 q 800 943 822 904 q 743 1006 779 982 q 652 1031 706 1031 q 532 997 588 1031 q 429 906 476 964 q 345 772 382 847 q 282 611 308 697 q 243 439 256 526 q 229 272 229 352 q 246 142 229 201 q 303 47 263 83 q 417 11 344 11 m 742 1167 l 560 1262 q 543 1280 549 1269 q 536 1305 536 1292 q 542 1330 535 1319 q 555 1344 547 1338 q 575 1353 564 1351 q 597 1351 585 1355 q 619 1338 608 1348 l 759 1185 l 742 1167 z "},"Ő":{"ha":992,"x_min":76,"x_max":993,"o":"m 417 -14 q 166 85 257 -14 q 76 354 76 185 q 107 572 76 468 q 193 765 138 676 q 322 918 249 853 q 479 1019 394 983 q 652 1056 563 1056 q 828 1011 751 1056 q 949 883 906 966 q 993 688 993 801 q 947 418 993 545 q 820 194 901 292 q 636 42 740 97 q 417 -14 533 -14 m 417 11 q 542 44 484 11 q 647 136 599 78 q 730 270 694 194 q 791 430 766 345 q 828 602 815 515 q 840 770 840 690 q 831 859 840 813 q 800 943 822 904 q 743 1006 779 982 q 652 1031 706 1031 q 532 997 588 1031 q 429 906 476 964 q 345 772 382 847 q 282 611 308 697 q 243 439 256 526 q 229 272 229 352 q 246 142 229 201 q 303 47 263 83 q 417 11 344 11 m 754 1167 l 738 1185 l 877 1338 q 900 1351 888 1348 q 922 1353 911 1355 q 941 1344 933 1351 q 955 1330 950 1338 q 961 1305 962 1319 q 954 1280 960 1292 q 936 1262 947 1269 l 754 1167 m 469 1167 l 453 1185 l 592 1338 q 615 1351 603 1348 q 637 1353 626 1355 q 657 1344 648 1351 q 670 1330 665 1338 q 676 1305 677 1319 q 669 1280 676 1292 q 651 1262 663 1269 l 469 1167 z "},"Ō":{"ha":992,"x_min":76,"x_max":993,"o":"m 417 -14 q 166 85 257 -14 q 76 354 76 185 q 107 572 76 468 q 193 765 138 676 q 322 918 249 853 q 479 1019 394 983 q 652 1056 563 1056 q 828 1011 751 1056 q 949 883 906 966 q 993 688 993 801 q 947 418 993 545 q 820 194 901 292 q 636 42 740 97 q 417 -14 533 -14 m 417 11 q 542 44 484 11 q 647 136 599 78 q 730 270 694 194 q 791 430 766 345 q 828 602 815 515 q 840 770 840 690 q 831 859 840 813 q 800 943 822 904 q 743 1006 779 982 q 652 1031 706 1031 q 532 997 588 1031 q 429 906 476 964 q 345 772 382 847 q 282 611 308 697 q 243 439 256 526 q 229 272 229 352 q 246 142 229 201 q 303 47 263 83 q 417 11 344 11 m 483 1181 l 483 1208 l 817 1208 l 817 1181 l 483 1181 z "},"Ø":{"ha":992,"x_min":76,"x_max":993,"o":"m 83 -139 l 951 1153 l 986 1153 l 119 -139 l 83 -139 m 417 -14 q 166 85 257 -14 q 76 354 76 185 q 107 572 76 468 q 193 765 138 676 q 322 918 249 853 q 479 1019 394 983 q 652 1056 563 1056 q 828 1011 751 1056 q 949 883 906 966 q 993 688 993 801 q 947 418 993 545 q 820 194 901 292 q 636 42 740 97 q 417 -14 533 -14 m 417 11 q 542 44 484 11 q 647 136 599 78 q 730 270 694 194 q 791 430 766 345 q 828 602 815 515 q 840 770 840 690 q 831 859 840 813 q 800 943 822 904 q 743 1006 779 982 q 652 1031 706 1031 q 532 997 588 1031 q 429 906 476 964 q 345 772 382 847 q 282 611 308 697 q 243 439 256 526 q 229 272 229 352 q 246 142 229 201 q 303 47 263 83 q 417 11 344 11 z "},"Õ":{"ha":992,"x_min":76,"x_max":993,"o":"m 417 -14 q 166 85 257 -14 q 76 354 76 185 q 107 572 76 468 q 193 765 138 676 q 322 918 249 853 q 479 1019 394 983 q 652 1056 563 1056 q 828 1011 751 1056 q 949 883 906 966 q 993 688 993 801 q 947 418 993 545 q 820 194 901 292 q 636 42 740 97 q 417 -14 533 -14 m 417 11 q 542 44 484 11 q 647 136 599 78 q 730 270 694 194 q 791 430 766 345 q 828 602 815 515 q 840 770 840 690 q 831 859 840 813 q 800 943 822 904 q 743 1006 779 982 q 652 1031 706 1031 q 532 997 588 1031 q 429 906 476 964 q 345 772 382 847 q 282 611 308 697 q 243 439 256 526 q 229 272 229 352 q 246 142 229 201 q 303 47 263 83 q 417 11 344 11 m 821 1167 q 748 1183 779 1167 q 691 1222 717 1200 q 640 1260 665 1243 q 585 1276 615 1276 q 522 1254 546 1276 q 479 1181 499 1231 l 451 1181 q 495 1279 465 1240 q 563 1338 526 1318 q 633 1357 599 1357 q 701 1340 672 1357 q 756 1302 731 1324 q 804 1264 781 1281 q 854 1247 828 1247 q 918 1271 894 1247 q 960 1343 942 1294 l 988 1343 q 948 1239 974 1278 q 888 1183 922 1200 q 821 1167 855 1167 z "},"Œ":{"ha":1319,"x_min":103,"x_max":1420,"o":"m 445 0 q 302 23 365 0 q 194 92 238 47 q 126 203 149 138 q 103 354 103 269 q 151 621 103 497 q 281 840 199 746 q 466 988 363 935 q 680 1042 569 1042 l 680 991 q 538 948 603 991 q 420 831 472 905 q 331 664 368 757 q 275 469 294 571 q 256 272 256 368 q 296 108 256 165 q 445 51 337 51 l 445 0 m 563 0 l 804 1042 l 936 1042 l 694 0 l 563 0 m 444 0 l 444 27 l 924 27 q 1081 62 1019 27 q 1180 160 1142 97 q 1238 313 1217 224 l 1265 313 l 1192 0 l 444 0 m 1006 387 q 1005 464 1016 433 q 967 510 994 494 q 900 525 940 525 l 801 525 l 801 552 l 900 552 q 975 566 940 552 q 1037 609 1011 580 q 1074 685 1063 638 l 1101 685 l 1033 387 l 1006 387 m 1326 757 q 1336 890 1344 831 q 1287 981 1328 948 q 1165 1015 1247 1015 l 679 1015 l 679 1042 l 1420 1042 l 1353 757 l 1326 757 z "},"P":{"ha":840,"x_min":-56,"x_max":882,"o":"m 235 453 l 241 480 l 431 480 q 557 510 501 480 q 650 590 612 540 q 709 698 689 640 q 729 814 729 757 q 723 879 729 844 q 699 945 716 914 q 651 995 682 976 q 569 1015 619 1015 l 424 1015 l 194 27 l 327 27 l 327 0 l -56 0 l -56 27 l 62 27 l 292 1015 l 174 1015 l 174 1042 l 569 1042 q 731 1016 660 1042 q 842 937 801 990 q 882 800 882 883 q 827 618 882 696 q 672 496 773 540 q 431 453 570 453 l 235 453 z "},"Þ":{"ha":840,"x_min":-35,"x_max":868,"o":"m 90 0 l 331 1042 l 463 1042 l 222 0 l 90 0 m -35 0 l -35 27 l 347 27 l 347 0 l -35 0 m 264 249 l 264 278 l 417 278 q 543 308 488 278 q 636 388 598 338 q 694 495 674 437 q 715 611 715 554 q 708 676 715 642 q 685 739 702 710 q 637 788 668 769 q 556 806 606 806 l 354 806 l 354 833 l 556 833 q 717 809 647 833 q 828 732 788 784 q 868 597 868 680 q 814 414 868 492 q 658 293 759 336 q 417 249 556 249 l 264 249 m 206 1015 l 206 1042 l 588 1042 l 588 1015 l 206 1015 z "},"Q":{"ha":992,"x_min":76,"x_max":993,"o":"m 417 -14 q 166 85 257 -14 q 76 354 76 185 q 107 572 76 468 q 193 765 138 676 q 322 918 249 853 q 479 1019 394 983 q 652 1056 563 1056 q 828 1011 751 1056 q 949 883 906 966 q 993 688 993 801 q 947 418 993 545 q 820 194 901 292 q 636 42 740 97 q 417 -14 533 -14 m 590 -347 q 390 -310 456 -347 q 315 -197 324 -274 q 340 0 306 -120 q 420 -6 378 -6 q 501 0 462 -6 q 470 -157 475 -94 q 478 -255 465 -219 q 520 -305 492 -290 q 590 -320 549 -320 l 590 -347 m 417 11 q 542 44 484 11 q 647 136 599 78 q 730 270 694 194 q 791 430 766 345 q 828 602 815 515 q 840 770 840 690 q 831 859 840 813 q 800 943 822 904 q 743 1006 779 982 q 652 1031 706 1031 q 532 997 588 1031 q 429 906 476 964 q 345 772 382 847 q 282 611 308 697 q 243 439 256 526 q 229 272 229 352 q 246 142 229 201 q 303 47 263 83 q 417 11 344 11 z "},"R":{"ha":992,"x_min":-56,"x_max":938,"o":"m 83 0 l 327 1042 l 458 1042 l 216 0 l 83 0 m -56 0 l -56 27 l 367 27 l 367 0 l -56 0 m 778 -7 q 685 15 717 -7 q 639 75 652 38 q 624 160 626 113 q 625 257 623 207 q 625 354 627 307 q 607 439 622 401 q 557 499 592 476 q 458 521 522 521 l 299 521 l 299 535 l 486 535 q 647 508 588 535 q 733 435 706 481 q 766 335 760 390 q 770 227 773 281 q 766 127 767 173 q 777 55 765 82 q 826 27 789 27 q 864 32 848 27 q 894 44 879 38 l 903 16 q 840 -2 865 2 q 778 -7 815 -7 m 299 532 l 299 549 l 501 549 q 602 566 557 549 q 682 614 648 584 q 739 683 716 644 q 773 764 762 722 q 785 848 785 807 q 780 902 785 874 q 761 957 776 931 q 718 999 747 983 q 639 1015 689 1015 l 174 1015 l 174 1042 l 639 1042 q 797 1022 730 1042 q 901 956 864 1001 q 938 833 938 910 q 886 669 938 737 q 738 567 835 602 q 501 532 640 532 l 299 532 z "},"Ŕ":{"ha":992,"x_min":-56,"x_max":938,"o":"m 83 0 l 327 1042 l 458 1042 l 216 0 l 83 0 m -56 0 l -56 27 l 367 27 l 367 0 l -56 0 m 778 -7 q 685 15 717 -7 q 639 75 652 38 q 624 160 626 113 q 625 257 623 207 q 625 354 627 307 q 607 439 622 401 q 557 499 592 476 q 458 521 522 521 l 299 521 l 299 535 l 486 535 q 647 508 588 535 q 733 435 706 481 q 766 335 760 390 q 770 227 773 281 q 766 127 767 173 q 777 55 765 82 q 826 27 789 27 q 864 32 848 27 q 894 44 879 38 l 903 16 q 840 -2 865 2 q 778 -7 815 -7 m 299 532 l 299 549 l 501 549 q 602 566 557 549 q 682 614 648 584 q 739 683 716 644 q 773 764 762 722 q 785 848 785 807 q 780 902 785 874 q 761 957 776 931 q 718 999 747 983 q 639 1015 689 1015 l 174 1015 l 174 1042 l 639 1042 q 797 1022 730 1042 q 901 956 864 1001 q 938 833 938 910 q 886 669 938 737 q 738 567 835 602 q 501 532 640 532 l 299 532 m 518 1167 l 501 1185 l 641 1338 q 664 1351 652 1348 q 686 1353 675 1355 q 705 1344 697 1351 q 719 1330 714 1338 q 725 1305 726 1319 q 718 1280 724 1292 q 700 1262 711 1269 l 518 1167 z "},"Ř":{"ha":992,"x_min":-56,"x_max":938,"o":"m 83 0 l 327 1042 l 458 1042 l 216 0 l 83 0 m -56 0 l -56 27 l 367 27 l 367 0 l -56 0 m 778 -7 q 685 15 717 -7 q 639 75 652 38 q 624 160 626 113 q 625 257 623 207 q 625 354 627 307 q 607 439 622 401 q 557 499 592 476 q 458 521 522 521 l 299 521 l 299 535 l 486 535 q 647 508 588 535 q 733 435 706 481 q 766 335 760 390 q 770 227 773 281 q 766 127 767 173 q 777 55 765 82 q 826 27 789 27 q 864 32 848 27 q 894 44 879 38 l 903 16 q 840 -2 865 2 q 778 -7 815 -7 m 299 532 l 299 549 l 501 549 q 602 566 557 549 q 682 614 648 584 q 739 683 716 644 q 773 764 762 722 q 785 848 785 807 q 780 902 785 874 q 761 957 776 931 q 718 999 747 983 q 639 1015 689 1015 l 174 1015 l 174 1042 l 639 1042 q 797 1022 730 1042 q 901 956 864 1001 q 938 833 938 910 q 886 669 938 737 q 738 567 835 602 q 501 532 640 532 l 299 532 m 550 1181 l 427 1334 l 446 1352 l 598 1243 l 807 1350 l 823 1334 l 639 1181 l 550 1181 z "},"Ŗ":{"ha":992,"x_min":-56,"x_max":938,"o":"m 83 0 l 327 1042 l 458 1042 l 216 0 l 83 0 m -56 0 l -56 27 l 367 27 l 367 0 l -56 0 m 778 -7 q 685 15 717 -7 q 639 75 652 38 q 624 160 626 113 q 625 257 623 207 q 625 354 627 307 q 607 439 622 401 q 557 499 592 476 q 458 521 522 521 l 299 521 l 299 535 l 486 535 q 647 508 588 535 q 733 435 706 481 q 766 335 760 390 q 770 227 773 281 q 766 127 767 173 q 777 55 765 82 q 826 27 789 27 q 864 32 848 27 q 894 44 879 38 l 903 16 q 840 -2 865 2 q 778 -7 815 -7 m 299 532 l 299 549 l 501 549 q 602 566 557 549 q 682 614 648 584 q 739 683 716 644 q 773 764 762 722 q 785 848 785 807 q 780 902 785 874 q 761 957 776 931 q 718 999 747 983 q 639 1015 689 1015 l 174 1015 l 174 1042 l 639 1042 q 797 1022 730 1042 q 901 956 864 1001 q 938 833 938 910 q 886 669 938 737 q 738 567 835 602 q 501 532 640 532 l 299 532 m 305 -433 l 305 -410 q 370 -392 338 -410 q 430 -346 403 -375 q 471 -282 456 -317 q 482 -212 485 -247 l 504 -212 q 493 -242 504 -229 q 463 -263 481 -256 q 426 -270 445 -270 q 374 -252 390 -270 q 357 -208 357 -233 q 367 -174 357 -190 q 393 -149 376 -158 q 431 -139 410 -139 q 485 -160 464 -139 q 506 -224 506 -181 q 489 -299 506 -262 q 443 -366 472 -335 q 378 -415 414 -397 q 305 -433 342 -433 z "},"Ȓ":{"ha":992,"x_min":-56,"x_max":938,"o":"m 83 0 l 327 1042 l 458 1042 l 216 0 l 83 0 m -56 0 l -56 27 l 367 27 l 367 0 l -56 0 m 778 -7 q 685 15 717 -7 q 639 75 652 38 q 624 160 626 113 q 625 257 623 207 q 625 354 627 307 q 607 439 622 401 q 557 499 592 476 q 458 521 522 521 l 299 521 l 299 535 l 486 535 q 647 508 588 535 q 733 435 706 481 q 766 335 760 390 q 770 227 773 281 q 766 127 767 173 q 777 55 765 82 q 826 27 789 27 q 864 32 848 27 q 894 44 879 38 l 903 16 q 840 -2 865 2 q 778 -7 815 -7 m 299 532 l 299 549 l 501 549 q 602 566 557 549 q 682 614 648 584 q 739 683 716 644 q 773 764 762 722 q 785 848 785 807 q 780 902 785 874 q 761 957 776 931 q 718 999 747 983 q 639 1015 689 1015 l 174 1015 l 174 1042 l 639 1042 q 797 1022 730 1042 q 901 956 864 1001 q 938 833 938 910 q 886 669 938 737 q 738 567 835 602 q 501 532 640 532 l 299 532 m 389 1165 q 408 1229 394 1197 q 444 1286 421 1260 q 502 1328 468 1313 q 583 1344 537 1344 q 650 1328 625 1344 q 686 1286 674 1313 q 699 1229 697 1260 q 694 1165 700 1197 l 667 1165 q 662 1222 674 1199 q 626 1257 651 1245 q 569 1268 602 1268 q 504 1257 537 1268 q 447 1222 472 1245 q 416 1165 423 1199 l 389 1165 z "},"S":{"ha":772,"x_min":-40,"x_max":833,"o":"m 324 -20 q 186 2 242 -20 q 96 63 131 24 q 45 156 62 103 q 27 272 29 209 l 54 272 q 69 166 56 215 q 113 83 83 118 q 193 27 143 47 q 316 8 242 8 q 451 35 390 8 q 550 114 513 63 q 588 233 588 165 q 565 338 588 296 q 504 409 542 380 q 421 460 466 438 q 331 506 376 483 q 248 559 285 529 q 187 634 210 590 q 164 743 164 678 q 196 880 164 822 q 279 977 228 938 q 387 1036 330 1017 q 493 1056 444 1056 q 644 1022 582 1056 q 738 925 706 989 q 770 770 770 861 l 743 770 q 716 910 743 853 q 634 997 688 967 q 500 1026 581 1026 q 393 1002 446 1026 q 306 934 340 978 q 272 833 272 891 q 295 740 272 776 q 356 678 318 703 q 440 633 394 653 q 531 588 485 612 q 614 528 576 563 q 675 439 652 492 q 699 305 699 385 q 669 172 699 232 q 587 69 639 113 q 467 3 535 26 q 324 -20 399 -20 m -40 -14 l 27 272 l 54 272 l 54 197 q 69 145 61 169 q 86 99 76 121 l -16 -14 l -40 -14 m 743 770 l 751 831 q 736 892 745 863 q 710 953 727 921 l 809 1056 l 833 1056 l 770 770 l 743 770 z "},"Ś":{"ha":772,"x_min":-40,"x_max":833,"o":"m 324 -20 q 186 2 242 -20 q 96 63 131 24 q 45 156 62 103 q 27 272 29 209 l 54 272 q 69 166 56 215 q 113 83 83 118 q 193 27 143 47 q 316 8 242 8 q 451 35 390 8 q 550 114 513 63 q 588 233 588 165 q 565 338 588 296 q 504 409 542 380 q 421 460 466 438 q 331 506 376 483 q 248 559 285 529 q 187 634 210 590 q 164 743 164 678 q 196 880 164 822 q 279 977 228 938 q 387 1036 330 1017 q 493 1056 444 1056 q 644 1022 582 1056 q 738 925 706 989 q 770 770 770 861 l 743 770 q 716 910 743 853 q 634 997 688 967 q 500 1026 581 1026 q 393 1002 446 1026 q 306 934 340 978 q 272 833 272 891 q 295 740 272 776 q 356 678 318 703 q 440 633 394 653 q 531 588 485 612 q 614 528 576 563 q 675 439 652 492 q 699 305 699 385 q 669 172 699 232 q 587 69 639 113 q 467 3 535 26 q 324 -20 399 -20 m -40 -14 l 27 272 l 54 272 l 54 197 q 69 145 61 169 q 86 99 76 121 l -16 -14 l -40 -14 m 743 770 l 751 831 q 736 892 745 863 q 710 953 727 921 l 809 1056 l 833 1056 l 770 770 l 743 770 m 463 1167 l 446 1185 l 585 1338 q 608 1351 597 1348 q 630 1353 619 1355 q 650 1344 641 1351 q 663 1330 658 1338 q 669 1305 670 1319 q 662 1280 669 1292 q 644 1262 656 1269 l 463 1167 z "},"Š":{"ha":772,"x_min":-40,"x_max":833,"o":"m 324 -20 q 186 2 242 -20 q 96 63 131 24 q 45 156 62 103 q 27 272 29 209 l 54 272 q 69 166 56 215 q 113 83 83 118 q 193 27 143 47 q 316 8 242 8 q 451 35 390 8 q 550 114 513 63 q 588 233 588 165 q 565 338 588 296 q 504 409 542 380 q 421 460 466 438 q 331 506 376 483 q 248 559 285 529 q 187 634 210 590 q 164 743 164 678 q 196 880 164 822 q 279 977 228 938 q 387 1036 330 1017 q 493 1056 444 1056 q 644 1022 582 1056 q 738 925 706 989 q 770 770 770 861 l 743 770 q 716 910 743 853 q 634 997 688 967 q 500 1026 581 1026 q 393 1002 446 1026 q 306 934 340 978 q 272 833 272 891 q 295 740 272 776 q 356 678 318 703 q 440 633 394 653 q 531 588 485 612 q 614 528 576 563 q 675 439 652 492 q 699 305 699 385 q 669 172 699 232 q 587 69 639 113 q 467 3 535 26 q 324 -20 399 -20 m -40 -14 l 27 272 l 54 272 l 54 197 q 69 145 61 169 q 86 99 76 121 l -16 -14 l -40 -14 m 743 770 l 751 831 q 736 892 745 863 q 710 953 727 921 l 809 1056 l 833 1056 l 770 770 l 743 770 m 494 1181 l 372 1334 l 390 1352 l 542 1243 l 751 1350 l 767 1334 l 583 1181 l 494 1181 z "},"Ş":{"ha":772,"x_min":-40,"x_max":833,"o":"m 324 -20 q 186 2 242 -20 q 96 63 131 24 q 45 156 62 103 q 27 272 29 209 l 54 272 q 69 166 56 215 q 113 83 83 118 q 193 27 143 47 q 316 8 242 8 q 451 35 390 8 q 550 114 513 63 q 588 233 588 165 q 565 338 588 296 q 504 409 542 380 q 421 460 466 438 q 331 506 376 483 q 248 559 285 529 q 187 634 210 590 q 164 743 164 678 q 196 880 164 822 q 279 977 228 938 q 387 1036 330 1017 q 493 1056 444 1056 q 644 1022 582 1056 q 738 925 706 989 q 770 770 770 861 l 743 770 q 716 910 743 853 q 634 997 688 967 q 500 1026 581 1026 q 393 1002 446 1026 q 306 934 340 978 q 272 833 272 891 q 295 740 272 776 q 356 678 318 703 q 440 633 394 653 q 531 588 485 612 q 614 528 576 563 q 675 439 652 492 q 699 305 699 385 q 669 172 699 232 q 587 69 639 113 q 467 3 535 26 q 324 -20 399 -20 m -40 -14 l 27 272 l 54 272 l 54 197 q 69 145 61 169 q 86 99 76 121 l -16 -14 l -40 -14 m 743 770 l 751 831 q 736 892 745 863 q 710 953 727 921 l 809 1056 l 833 1056 l 770 770 l 743 770 m 174 -353 l 174 -327 q 276 -301 235 -327 q 317 -231 317 -276 q 277 -173 317 -187 q 169 -158 237 -158 l 314 8 l 347 8 l 250 -103 q 341 -115 303 -103 q 399 -149 378 -126 q 419 -208 419 -172 q 390 -280 419 -247 q 307 -333 361 -312 q 174 -353 252 -353 z "},"Ŝ":{"ha":772,"x_min":-40,"x_max":833,"o":"m 324 -20 q 186 2 242 -20 q 96 63 131 24 q 45 156 62 103 q 27 272 29 209 l 54 272 q 69 166 56 215 q 113 83 83 118 q 193 27 143 47 q 316 8 242 8 q 451 35 390 8 q 550 114 513 63 q 588 233 588 165 q 565 338 588 296 q 504 409 542 380 q 421 460 466 438 q 331 506 376 483 q 248 559 285 529 q 187 634 210 590 q 164 743 164 678 q 196 880 164 822 q 279 977 228 938 q 387 1036 330 1017 q 493 1056 444 1056 q 644 1022 582 1056 q 738 925 706 989 q 770 770 770 861 l 743 770 q 716 910 743 853 q 634 997 688 967 q 500 1026 581 1026 q 393 1002 446 1026 q 306 934 340 978 q 272 833 272 891 q 295 740 272 776 q 356 678 318 703 q 440 633 394 653 q 531 588 485 612 q 614 528 576 563 q 675 439 652 492 q 699 305 699 385 q 669 172 699 232 q 587 69 639 113 q 467 3 535 26 q 324 -20 399 -20 m -40 -14 l 27 272 l 54 272 l 54 197 q 69 145 61 169 q 86 99 76 121 l -16 -14 l -40 -14 m 743 770 l 751 831 q 736 892 745 863 q 710 953 727 921 l 809 1056 l 833 1056 l 770 770 l 743 770 m 354 1178 l 339 1194 l 522 1347 l 613 1347 l 735 1194 l 718 1176 l 565 1284 l 354 1178 z "},"Ș":{"ha":772,"x_min":-40,"x_max":833,"o":"m 324 -20 q 186 2 242 -20 q 96 63 131 24 q 45 156 62 103 q 27 272 29 209 l 54 272 q 69 166 56 215 q 113 83 83 118 q 193 27 143 47 q 316 8 242 8 q 451 35 390 8 q 550 114 513 63 q 588 233 588 165 q 565 338 588 296 q 504 409 542 380 q 421 460 466 438 q 331 506 376 483 q 248 559 285 529 q 187 634 210 590 q 164 743 164 678 q 196 880 164 822 q 279 977 228 938 q 387 1036 330 1017 q 493 1056 444 1056 q 644 1022 582 1056 q 738 925 706 989 q 770 770 770 861 l 743 770 q 716 910 743 853 q 634 997 688 967 q 500 1026 581 1026 q 393 1002 446 1026 q 306 934 340 978 q 272 833 272 891 q 295 740 272 776 q 356 678 318 703 q 440 633 394 653 q 531 588 485 612 q 614 528 576 563 q 675 439 652 492 q 699 305 699 385 q 669 172 699 232 q 587 69 639 113 q 467 3 535 26 q 324 -20 399 -20 m -40 -14 l 27 272 l 54 272 l 54 197 q 69 145 61 169 q 86 99 76 121 l -16 -14 l -40 -14 m 743 770 l 751 831 q 736 892 745 863 q 710 953 727 921 l 809 1056 l 833 1056 l 770 770 l 743 770 m 153 -433 l 153 -410 q 219 -392 186 -410 q 278 -346 251 -375 q 319 -282 305 -317 q 331 -212 334 -247 l 353 -212 q 341 -242 353 -229 q 312 -263 330 -256 q 275 -270 294 -270 q 222 -252 239 -270 q 206 -208 206 -233 q 215 -174 206 -190 q 242 -149 225 -158 q 280 -139 259 -139 q 333 -160 313 -139 q 354 -224 354 -181 q 337 -299 354 -262 q 291 -366 320 -335 q 227 -415 263 -397 q 153 -433 191 -433 z "},"ẞ":{"ha":1112,"x_min":-31,"x_max":1154,"o":"m 90 0 l 229 613 q 337 847 260 747 q 527 1001 414 946 q 782 1056 641 1056 q 953 1040 883 1056 q 1069 995 1024 1024 q 1134 930 1113 967 q 1154 849 1154 892 q 1134 757 1154 808 q 1064 661 1113 707 q 928 585 1015 615 q 712 556 842 556 l 712 577 q 863 608 805 577 q 953 686 922 640 q 995 781 984 733 q 1007 863 1007 829 q 1000 919 1007 890 q 969 974 992 948 q 902 1015 947 999 q 782 1031 857 1031 q 623 995 692 1031 q 504 899 553 960 q 421 760 454 838 q 367 598 388 683 l 229 0 l 90 0 m -31 0 l -31 27 l 358 27 l 358 0 l -31 0 m 668 -14 q 516 16 572 -14 q 434 92 459 46 q 410 188 410 138 q 420 237 410 217 q 450 268 431 258 q 493 279 469 279 q 547 259 525 279 q 568 201 568 239 q 557 162 568 179 q 528 135 546 144 q 489 125 510 125 q 461 134 472 125 q 446 150 450 144 q 470 90 451 120 q 531 41 490 60 q 640 22 572 22 q 766 45 713 22 q 854 111 819 69 q 906 206 889 152 q 924 319 924 260 q 915 399 924 358 q 885 473 907 439 q 821 528 863 507 q 712 549 779 549 l 712 565 q 930 535 851 565 q 1039 451 1008 506 q 1071 319 1071 397 q 1040 180 1071 242 q 953 75 1008 118 q 825 9 898 31 q 668 -14 752 -14 z "},"T":{"ha":887,"x_min":104,"x_max":1026,"o":"m 294 0 l 535 1042 l 667 1042 l 426 0 l 294 0 m 148 0 l 148 27 l 585 27 l 585 0 l 148 0 m 104 729 l 176 1042 l 1026 1042 l 954 729 l 926 729 q 948 881 947 817 q 914 980 948 945 q 799 1015 881 1015 l 390 1015 q 286 995 328 1015 q 215 938 244 975 q 166 848 186 900 q 131 729 147 795 l 104 729 z "},"Ŧ":{"ha":887,"x_min":104,"x_max":1026,"o":"m 284 508 l 284 534 l 690 534 l 690 508 l 284 508 m 294 0 l 535 1042 l 667 1042 l 426 0 l 294 0 m 148 0 l 148 27 l 585 27 l 585 0 l 148 0 m 104 729 l 176 1042 l 1026 1042 l 954 729 l 926 729 q 948 881 947 817 q 914 980 948 945 q 799 1015 881 1015 l 390 1015 q 286 995 328 1015 q 215 938 244 975 q 166 848 186 900 q 131 729 147 795 l 104 729 z "},"Ť":{"ha":887,"x_min":104,"x_max":1026,"o":"m 294 0 l 535 1042 l 667 1042 l 426 0 l 294 0 m 148 0 l 148 27 l 585 27 l 585 0 l 148 0 m 104 729 l 176 1042 l 1026 1042 l 954 729 l 926 729 q 948 881 947 817 q 914 980 948 945 q 799 1015 881 1015 l 390 1015 q 286 995 328 1015 q 215 938 244 975 q 166 848 186 900 q 131 729 147 795 l 104 729 m 598 1181 l 475 1334 l 494 1352 l 646 1243 l 855 1350 l 871 1334 l 687 1181 l 598 1181 z "},"Ţ":{"ha":887,"x_min":104,"x_max":1026,"o":"m 294 0 l 535 1042 l 667 1042 l 426 0 l 294 0 m 148 0 l 148 27 l 585 27 l 585 0 l 148 0 m 104 729 l 176 1042 l 1026 1042 l 954 729 l 926 729 q 948 881 947 817 q 914 980 948 945 q 799 1015 881 1015 l 390 1015 q 286 995 328 1015 q 215 938 244 975 q 166 848 186 900 q 131 729 147 795 l 104 729 m 235 -353 l 235 -327 q 337 -301 296 -327 q 378 -231 378 -276 q 338 -173 378 -187 q 230 -158 298 -158 l 375 8 l 408 8 l 311 -103 q 402 -115 365 -103 q 460 -149 440 -126 q 480 -208 480 -172 q 451 -280 480 -247 q 368 -333 422 -312 q 235 -353 313 -353 z "},"Ț":{"ha":887,"x_min":104,"x_max":1026,"o":"m 294 0 l 535 1042 l 667 1042 l 426 0 l 294 0 m 148 0 l 148 27 l 585 27 l 585 0 l 148 0 m 104 729 l 176 1042 l 1026 1042 l 954 729 l 926 729 q 948 881 947 817 q 914 980 948 945 q 799 1015 881 1015 l 390 1015 q 286 995 328 1015 q 215 938 244 975 q 166 848 186 900 q 131 729 147 795 l 104 729 m 215 -433 l 215 -410 q 280 -392 247 -410 q 339 -346 313 -375 q 381 -282 366 -317 q 392 -212 395 -247 l 414 -212 q 402 -242 414 -229 q 373 -263 391 -256 q 336 -270 355 -270 q 283 -252 300 -270 q 267 -208 267 -233 q 276 -174 267 -190 q 303 -149 286 -158 q 341 -139 320 -139 q 394 -160 374 -139 q 415 -224 415 -181 q 398 -299 415 -262 q 352 -366 381 -335 q 288 -415 324 -397 q 215 -433 252 -433 z "},"U":{"ha":961,"x_min":111,"x_max":1094,"o":"m 429 -20 q 241 17 316 -20 q 139 130 167 55 q 138 319 111 206 l 304 1042 l 436 1042 l 270 333 q 255 210 255 268 q 273 107 254 151 q 335 36 292 62 q 447 10 377 10 q 606 45 540 10 q 716 148 672 79 q 783 319 759 217 l 949 1042 l 977 1042 l 810 319 q 738 135 785 210 q 615 19 690 59 q 429 -20 539 -20 m 172 1015 l 172 1042 l 568 1042 l 568 1015 l 172 1015 m 811 1015 l 811 1042 l 1094 1042 l 1094 1015 l 811 1015 z "},"Ú":{"ha":961,"x_min":111,"x_max":1094,"o":"m 429 -20 q 241 17 316 -20 q 139 130 167 55 q 138 319 111 206 l 304 1042 l 436 1042 l 270 333 q 255 210 255 268 q 273 107 254 151 q 335 36 292 62 q 447 10 377 10 q 606 45 540 10 q 716 148 672 79 q 783 319 759 217 l 949 1042 l 977 1042 l 810 319 q 738 135 785 210 q 615 19 690 59 q 429 -20 539 -20 m 172 1015 l 172 1042 l 568 1042 l 568 1015 l 172 1015 m 811 1015 l 811 1042 l 1094 1042 l 1094 1015 l 811 1015 m 608 1167 l 592 1185 l 731 1338 q 754 1351 742 1348 q 776 1353 765 1355 q 795 1344 787 1351 q 809 1330 804 1338 q 815 1305 816 1319 q 808 1280 815 1292 q 790 1262 801 1269 l 608 1167 z "},"Ŭ":{"ha":961,"x_min":111,"x_max":1094,"o":"m 429 -20 q 241 17 316 -20 q 139 130 167 55 q 138 319 111 206 l 304 1042 l 436 1042 l 270 333 q 255 210 255 268 q 273 107 254 151 q 335 36 292 62 q 447 10 377 10 q 606 45 540 10 q 716 148 672 79 q 783 319 759 217 l 949 1042 l 977 1042 l 810 319 q 738 135 785 210 q 615 19 690 59 q 429 -20 539 -20 m 172 1015 l 172 1042 l 568 1042 l 568 1015 l 172 1015 m 811 1015 l 811 1042 l 1094 1042 l 1094 1015 l 811 1015 m 680 1168 q 614 1184 638 1168 q 577 1226 589 1200 q 565 1284 566 1252 q 569 1347 564 1315 l 596 1347 q 601 1290 590 1313 q 637 1256 613 1267 q 694 1244 661 1244 q 759 1256 726 1244 q 816 1290 792 1267 q 847 1347 840 1313 l 874 1347 q 856 1284 869 1315 q 819 1226 842 1252 q 761 1184 795 1200 q 680 1168 727 1168 z "},"Û":{"ha":961,"x_min":111,"x_max":1094,"o":"m 429 -20 q 241 17 316 -20 q 139 130 167 55 q 138 319 111 206 l 304 1042 l 436 1042 l 270 333 q 255 210 255 268 q 273 107 254 151 q 335 36 292 62 q 447 10 377 10 q 606 45 540 10 q 716 148 672 79 q 783 319 759 217 l 949 1042 l 977 1042 l 810 319 q 738 135 785 210 q 615 19 690 59 q 429 -20 539 -20 m 172 1015 l 172 1042 l 568 1042 l 568 1015 l 172 1015 m 811 1015 l 811 1042 l 1094 1042 l 1094 1015 l 811 1015 m 500 1178 l 485 1194 l 668 1347 l 758 1347 l 881 1194 l 864 1176 l 710 1284 l 500 1178 z "},"Ü":{"ha":961,"x_min":111,"x_max":1094,"o":"m 429 -20 q 241 17 316 -20 q 139 130 167 55 q 138 319 111 206 l 304 1042 l 436 1042 l 270 333 q 255 210 255 268 q 273 107 254 151 q 335 36 292 62 q 447 10 377 10 q 606 45 540 10 q 716 148 672 79 q 783 319 759 217 l 949 1042 l 977 1042 l 810 319 q 738 135 785 210 q 615 19 690 59 q 429 -20 539 -20 m 172 1015 l 172 1042 l 568 1042 l 568 1015 l 172 1015 m 811 1015 l 811 1042 l 1094 1042 l 1094 1015 l 811 1015 m 785 1174 q 737 1193 757 1174 q 717 1240 717 1213 q 737 1288 717 1268 q 785 1308 757 1308 q 832 1288 813 1308 q 851 1240 851 1268 q 832 1193 851 1213 q 785 1174 813 1174 m 563 1174 q 515 1193 535 1174 q 495 1240 495 1213 q 515 1288 495 1268 q 563 1308 535 1308 q 609 1288 590 1308 q 628 1240 628 1268 q 609 1193 628 1213 q 563 1174 590 1174 z "},"Ù":{"ha":961,"x_min":111,"x_max":1094,"o":"m 429 -20 q 241 17 316 -20 q 139 130 167 55 q 138 319 111 206 l 304 1042 l 436 1042 l 270 333 q 255 210 255 268 q 273 107 254 151 q 335 36 292 62 q 447 10 377 10 q 606 45 540 10 q 716 148 672 79 q 783 319 759 217 l 949 1042 l 977 1042 l 810 319 q 738 135 785 210 q 615 19 690 59 q 429 -20 539 -20 m 172 1015 l 172 1042 l 568 1042 l 568 1015 l 172 1015 m 811 1015 l 811 1042 l 1094 1042 l 1094 1015 l 811 1015 m 742 1167 l 560 1262 q 543 1280 549 1269 q 536 1305 536 1292 q 542 1330 535 1319 q 555 1344 547 1338 q 575 1353 564 1351 q 597 1351 585 1355 q 619 1338 608 1348 l 759 1185 l 742 1167 z "},"Ű":{"ha":961,"x_min":111,"x_max":1094,"o":"m 429 -20 q 241 17 316 -20 q 139 130 167 55 q 138 319 111 206 l 304 1042 l 436 1042 l 270 333 q 255 210 255 268 q 273 107 254 151 q 335 36 292 62 q 447 10 377 10 q 606 45 540 10 q 716 148 672 79 q 783 319 759 217 l 949 1042 l 977 1042 l 810 319 q 738 135 785 210 q 615 19 690 59 q 429 -20 539 -20 m 172 1015 l 172 1042 l 568 1042 l 568 1015 l 172 1015 m 811 1015 l 811 1042 l 1094 1042 l 1094 1015 l 811 1015 m 754 1167 l 738 1185 l 877 1338 q 900 1351 888 1348 q 922 1353 911 1355 q 941 1344 933 1351 q 955 1330 950 1338 q 961 1305 962 1319 q 954 1280 960 1292 q 936 1262 947 1269 l 754 1167 m 469 1167 l 453 1185 l 592 1338 q 615 1351 603 1348 q 637 1353 626 1355 q 657 1344 648 1351 q 670 1330 665 1338 q 676 1305 677 1319 q 669 1280 676 1292 q 651 1262 663 1269 l 469 1167 z "},"Ū":{"ha":961,"x_min":111,"x_max":1094,"o":"m 429 -20 q 241 17 316 -20 q 139 130 167 55 q 138 319 111 206 l 304 1042 l 436 1042 l 270 333 q 255 210 255 268 q 273 107 254 151 q 335 36 292 62 q 447 10 377 10 q 606 45 540 10 q 716 148 672 79 q 783 319 759 217 l 949 1042 l 977 1042 l 810 319 q 738 135 785 210 q 615 19 690 59 q 429 -20 539 -20 m 172 1015 l 172 1042 l 568 1042 l 568 1015 l 172 1015 m 811 1015 l 811 1042 l 1094 1042 l 1094 1015 l 811 1015 m 483 1181 l 483 1208 l 817 1208 l 817 1181 l 483 1181 z "},"Ų":{"ha":961,"x_min":111,"x_max":1094,"o":"m 429 -20 q 241 17 316 -20 q 139 130 167 55 q 138 319 111 206 l 304 1042 l 436 1042 l 270 333 q 255 210 255 268 q 273 107 254 151 q 335 36 292 62 q 447 10 377 10 q 606 45 540 10 q 716 148 672 79 q 783 319 759 217 l 949 1042 l 977 1042 l 810 319 q 738 135 785 210 q 615 19 690 59 q 429 -20 539 -20 m 172 1015 l 172 1042 l 568 1042 l 568 1015 l 172 1015 m 811 1015 l 811 1042 l 1094 1042 l 1094 1015 l 811 1015 m 481 -301 q 413 -292 446 -301 q 359 -260 381 -283 q 338 -196 338 -237 q 363 -119 338 -154 q 424 -58 387 -85 q 502 -12 462 -31 q 574 16 542 6 l 582 5 q 531 -34 558 -9 q 486 -95 504 -59 q 467 -178 467 -131 q 485 -240 467 -220 q 527 -260 502 -260 q 568 -249 550 -260 q 598 -223 585 -239 q 619 -190 611 -206 l 641 -200 q 613 -243 631 -219 q 562 -284 594 -267 q 481 -301 531 -301 z "},"Ů":{"ha":961,"x_min":111,"x_max":1094,"o":"m 429 -20 q 241 17 316 -20 q 139 130 167 55 q 138 319 111 206 l 304 1042 l 436 1042 l 270 333 q 255 210 255 268 q 273 107 254 151 q 335 36 292 62 q 447 10 377 10 q 606 45 540 10 q 716 148 672 79 q 783 319 759 217 l 949 1042 l 977 1042 l 810 319 q 738 135 785 210 q 615 19 690 59 q 429 -20 539 -20 m 172 1015 l 172 1042 l 568 1042 l 568 1015 l 172 1015 m 811 1015 l 811 1042 l 1094 1042 l 1094 1015 l 811 1015 m 685 1167 q 596 1202 632 1167 q 560 1291 560 1238 q 596 1381 560 1344 q 685 1417 632 1417 q 774 1381 738 1417 q 810 1291 810 1344 q 774 1202 810 1238 q 685 1167 738 1167 m 681 1194 q 712 1203 698 1194 q 736 1229 726 1213 q 752 1265 747 1245 q 758 1305 758 1285 q 740 1367 758 1344 q 688 1389 722 1389 q 658 1379 672 1389 q 633 1353 644 1369 q 617 1317 623 1337 q 612 1277 612 1297 q 630 1216 612 1238 q 681 1194 648 1194 z "},"Ũ":{"ha":961,"x_min":111,"x_max":1094,"o":"m 429 -20 q 241 17 316 -20 q 139 130 167 55 q 138 319 111 206 l 304 1042 l 436 1042 l 270 333 q 255 210 255 268 q 273 107 254 151 q 335 36 292 62 q 447 10 377 10 q 606 45 540 10 q 716 148 672 79 q 783 319 759 217 l 949 1042 l 977 1042 l 810 319 q 738 135 785 210 q 615 19 690 59 q 429 -20 539 -20 m 172 1015 l 172 1042 l 568 1042 l 568 1015 l 172 1015 m 811 1015 l 811 1042 l 1094 1042 l 1094 1015 l 811 1015 m 821 1167 q 748 1183 779 1167 q 691 1222 717 1200 q 640 1260 665 1243 q 585 1276 615 1276 q 522 1254 546 1276 q 479 1181 499 1231 l 451 1181 q 495 1279 465 1240 q 563 1338 526 1318 q 633 1357 599 1357 q 701 1340 672 1357 q 756 1302 731 1324 q 804 1264 781 1281 q 854 1247 828 1247 q 918 1271 894 1247 q 960 1343 942 1294 l 988 1343 q 948 1239 974 1278 q 888 1183 922 1200 q 821 1167 855 1167 z "},"V":{"ha":1011,"x_min":167,"x_max":1151,"o":"m 396 -20 l 264 1042 l 410 1042 l 498 164 l 1003 1042 l 1034 1042 l 424 -20 l 396 -20 m 167 1015 l 167 1042 l 569 1042 l 569 1015 l 167 1015 m 833 1015 l 833 1042 l 1151 1042 l 1151 1015 l 833 1015 z "},"W":{"ha":1337,"x_min":167,"x_max":1488,"o":"m 740 -14 l 663 1042 l 794 1042 l 856 190 l 1342 1042 l 1373 1042 l 772 -14 l 740 -14 m 372 -14 l 294 1042 l 426 1042 l 488 190 l 710 579 l 740 579 l 403 -14 l 372 -14 m 167 1015 l 167 1042 l 1158 1042 l 1158 1015 l 167 1015 m 767 579 l 1031 1042 l 1060 1042 l 797 579 l 767 579 m 1224 1015 l 1224 1042 l 1488 1042 l 1488 1015 l 1224 1015 z "},"Ẃ":{"ha":1337,"x_min":167,"x_max":1488,"o":"m 740 -14 l 663 1042 l 794 1042 l 856 190 l 1342 1042 l 1373 1042 l 772 -14 l 740 -14 m 372 -14 l 294 1042 l 426 1042 l 488 190 l 710 579 l 740 579 l 403 -14 l 372 -14 m 167 1015 l 167 1042 l 1158 1042 l 1158 1015 l 167 1015 m 767 579 l 1031 1042 l 1060 1042 l 797 579 l 767 579 m 1224 1015 l 1224 1042 l 1488 1042 l 1488 1015 l 1224 1015 m 789 1167 l 772 1185 l 912 1338 q 934 1351 923 1348 q 957 1353 946 1355 q 976 1344 967 1351 q 990 1330 985 1338 q 996 1305 997 1319 q 989 1280 995 1292 q 971 1262 982 1269 l 789 1167 z "},"Ŵ":{"ha":1337,"x_min":167,"x_max":1488,"o":"m 740 -14 l 663 1042 l 794 1042 l 856 190 l 1342 1042 l 1373 1042 l 772 -14 l 740 -14 m 372 -14 l 294 1042 l 426 1042 l 488 190 l 710 579 l 740 579 l 403 -14 l 372 -14 m 167 1015 l 167 1042 l 1158 1042 l 1158 1015 l 167 1015 m 767 579 l 1031 1042 l 1060 1042 l 797 579 l 767 579 m 1224 1015 l 1224 1042 l 1488 1042 l 1488 1015 l 1224 1015 m 681 1178 l 665 1194 l 849 1347 l 939 1347 l 1062 1194 l 1044 1176 l 891 1284 l 681 1178 z "},"Ẅ":{"ha":1337,"x_min":167,"x_max":1488,"o":"m 740 -14 l 663 1042 l 794 1042 l 856 190 l 1342 1042 l 1373 1042 l 772 -14 l 740 -14 m 372 -14 l 294 1042 l 426 1042 l 488 190 l 710 579 l 740 579 l 403 -14 l 372 -14 m 167 1015 l 167 1042 l 1158 1042 l 1158 1015 l 167 1015 m 767 579 l 1031 1042 l 1060 1042 l 797 579 l 767 579 m 1224 1015 l 1224 1042 l 1488 1042 l 1488 1015 l 1224 1015 m 965 1174 q 918 1193 938 1174 q 898 1240 898 1213 q 918 1288 898 1268 q 965 1308 938 1308 q 1012 1288 993 1308 q 1031 1240 1031 1268 q 1012 1193 1031 1213 q 965 1174 993 1174 m 743 1174 q 695 1193 715 1174 q 676 1240 676 1213 q 695 1288 676 1268 q 743 1308 715 1308 q 790 1288 771 1308 q 809 1240 809 1268 q 790 1193 809 1213 q 743 1174 771 1174 z "},"Ẇ":{"ha":1337,"x_min":167,"x_max":1488,"o":"m 740 -14 l 663 1042 l 794 1042 l 856 190 l 1342 1042 l 1373 1042 l 772 -14 l 740 -14 m 372 -14 l 294 1042 l 426 1042 l 488 190 l 710 579 l 740 579 l 403 -14 l 372 -14 m 167 1015 l 167 1042 l 1158 1042 l 1158 1015 l 167 1015 m 767 579 l 1031 1042 l 1060 1042 l 797 579 l 767 579 m 1224 1015 l 1224 1042 l 1488 1042 l 1488 1015 l 1224 1015 m 903 1285 q 862 1297 881 1285 q 832 1327 843 1308 q 821 1369 821 1347 q 832 1411 821 1392 q 862 1442 843 1431 q 903 1453 881 1453 q 945 1442 926 1453 q 976 1411 965 1431 q 988 1369 988 1392 q 976 1327 988 1347 q 945 1297 965 1308 q 903 1285 926 1285 z "},"Ẉ":{"ha":1337,"x_min":167,"x_max":1488,"o":"m 740 -14 l 663 1042 l 794 1042 l 856 190 l 1342 1042 l 1373 1042 l 772 -14 l 740 -14 m 372 -14 l 294 1042 l 426 1042 l 488 190 l 710 579 l 740 579 l 403 -14 l 372 -14 m 167 1015 l 167 1042 l 1158 1042 l 1158 1015 l 167 1015 m 767 579 l 1031 1042 l 1060 1042 l 797 579 l 767 579 m 1224 1015 l 1224 1042 l 1488 1042 l 1488 1015 l 1224 1015 m 571 -285 q 512 -260 537 -285 q 488 -201 488 -235 q 512 -142 488 -166 q 571 -117 537 -117 q 630 -142 606 -117 q 654 -201 654 -166 q 630 -260 654 -235 q 571 -285 606 -285 z "},"Ẁ":{"ha":1337,"x_min":167,"x_max":1488,"o":"m 740 -14 l 663 1042 l 794 1042 l 856 190 l 1342 1042 l 1373 1042 l 772 -14 l 740 -14 m 372 -14 l 294 1042 l 426 1042 l 488 190 l 710 579 l 740 579 l 403 -14 l 372 -14 m 167 1015 l 167 1042 l 1158 1042 l 1158 1015 l 167 1015 m 767 579 l 1031 1042 l 1060 1042 l 797 579 l 767 579 m 1224 1015 l 1224 1042 l 1488 1042 l 1488 1015 l 1224 1015 m 923 1167 l 741 1262 q 723 1280 730 1269 q 716 1305 717 1292 q 722 1330 716 1319 q 736 1344 727 1338 q 755 1353 744 1351 q 777 1351 766 1355 q 800 1338 789 1348 l 940 1185 l 923 1167 z "},"X":{"ha":1006,"x_min":-69,"x_max":1090,"o":"m 673 0 l 313 1042 l 467 1042 l 833 0 l 673 0 m -69 0 l -69 27 l 264 27 l 264 0 l -69 0 m 65 0 l 533 579 l 569 579 l 101 0 l 65 0 m 540 0 l 540 27 l 928 27 l 928 0 l 540 0 m 216 1015 l 216 1042 l 604 1042 l 604 1015 l 216 1015 m 522 524 l 935 1039 l 969 1039 l 559 524 l 522 524 m 785 1015 l 785 1042 l 1090 1042 l 1090 1015 l 785 1015 z "},"Y":{"ha":1006,"x_min":167,"x_max":1146,"o":"m 354 0 l 472 524 l 264 1042 l 417 1042 l 600 540 l 1010 1039 l 1044 1039 l 598 496 l 486 0 l 354 0 m 229 0 l 229 27 l 625 27 l 625 0 l 229 0 m 167 1015 l 167 1042 l 569 1042 l 569 1015 l 167 1015 m 854 1015 l 854 1042 l 1146 1042 l 1146 1015 l 854 1015 z "},"Ý":{"ha":1006,"x_min":167,"x_max":1146,"o":"m 354 0 l 472 524 l 264 1042 l 417 1042 l 600 540 l 1010 1039 l 1044 1039 l 598 496 l 486 0 l 354 0 m 229 0 l 229 27 l 625 27 l 625 0 l 229 0 m 167 1015 l 167 1042 l 569 1042 l 569 1015 l 167 1015 m 854 1015 l 854 1042 l 1146 1042 l 1146 1015 l 854 1015 m 629 1167 l 613 1185 l 752 1338 q 775 1351 763 1348 q 797 1353 786 1355 q 816 1344 808 1351 q 830 1330 825 1338 q 836 1305 837 1319 q 829 1280 835 1292 q 811 1262 822 1269 l 629 1167 z "},"Ŷ":{"ha":1006,"x_min":167,"x_max":1146,"o":"m 354 0 l 472 524 l 264 1042 l 417 1042 l 600 540 l 1010 1039 l 1044 1039 l 598 496 l 486 0 l 354 0 m 229 0 l 229 27 l 625 27 l 625 0 l 229 0 m 167 1015 l 167 1042 l 569 1042 l 569 1015 l 167 1015 m 854 1015 l 854 1042 l 1146 1042 l 1146 1015 l 854 1015 m 521 1178 l 506 1194 l 689 1347 l 779 1347 l 902 1194 l 885 1176 l 731 1284 l 521 1178 z "},"Ÿ":{"ha":1006,"x_min":167,"x_max":1146,"o":"m 354 0 l 472 524 l 264 1042 l 417 1042 l 600 540 l 1010 1039 l 1044 1039 l 598 496 l 486 0 l 354 0 m 229 0 l 229 27 l 625 27 l 625 0 l 229 0 m 167 1015 l 167 1042 l 569 1042 l 569 1015 l 167 1015 m 854 1015 l 854 1042 l 1146 1042 l 1146 1015 l 854 1015 m 806 1174 q 758 1193 778 1174 q 738 1240 738 1213 q 758 1288 738 1268 q 806 1308 778 1308 q 852 1288 833 1308 q 872 1240 872 1268 q 852 1193 872 1213 q 806 1174 833 1174 m 583 1174 q 536 1193 556 1174 q 516 1240 516 1213 q 536 1288 516 1268 q 583 1308 556 1308 q 630 1288 611 1308 q 649 1240 649 1268 q 630 1193 649 1213 q 583 1174 611 1174 z "},"Ỳ":{"ha":1006,"x_min":167,"x_max":1146,"o":"m 354 0 l 472 524 l 264 1042 l 417 1042 l 600 540 l 1010 1039 l 1044 1039 l 598 496 l 486 0 l 354 0 m 229 0 l 229 27 l 625 27 l 625 0 l 229 0 m 167 1015 l 167 1042 l 569 1042 l 569 1015 l 167 1015 m 854 1015 l 854 1042 l 1146 1042 l 1146 1015 l 854 1015 m 763 1167 l 581 1262 q 564 1280 570 1269 q 557 1305 557 1292 q 563 1330 556 1319 q 576 1344 567 1338 q 595 1353 585 1351 q 618 1351 606 1355 q 640 1338 629 1348 l 780 1185 l 763 1167 z "},"Z":{"ha":762,"x_min":-69,"x_max":853,"o":"m -69 0 l -69 27 l 686 1015 l 436 1015 q 286 993 342 1015 q 200 926 230 972 q 153 806 170 880 l 126 806 l 181 1042 l 853 1042 l 853 1015 l 98 27 l 390 27 q 540 50 485 27 q 627 125 596 73 q 678 264 658 176 l 705 264 l 644 0 l -69 0 z "},"Ź":{"ha":762,"x_min":-69,"x_max":853,"o":"m -69 0 l -69 27 l 686 1015 l 436 1015 q 286 993 342 1015 q 200 926 230 972 q 153 806 170 880 l 126 806 l 181 1042 l 853 1042 l 853 1015 l 98 27 l 390 27 q 540 50 485 27 q 627 125 596 73 q 678 264 658 176 l 705 264 l 644 0 l -69 0 m 428 1167 l 411 1185 l 551 1338 q 573 1351 562 1348 q 595 1353 585 1355 q 615 1344 606 1351 q 628 1330 624 1338 q 635 1305 635 1319 q 627 1280 634 1292 q 610 1262 621 1269 l 428 1167 z "},"Ž":{"ha":762,"x_min":-69,"x_max":853,"o":"m -69 0 l -69 27 l 686 1015 l 436 1015 q 286 993 342 1015 q 200 926 230 972 q 153 806 170 880 l 126 806 l 181 1042 l 853 1042 l 853 1015 l 98 27 l 390 27 q 540 50 485 27 q 627 125 596 73 q 678 264 658 176 l 705 264 l 644 0 l -69 0 m 460 1181 l 337 1334 l 356 1352 l 508 1243 l 717 1350 l 733 1334 l 549 1181 l 460 1181 z "},"Ż":{"ha":762,"x_min":-69,"x_max":853,"o":"m -69 0 l -69 27 l 686 1015 l 436 1015 q 286 993 342 1015 q 200 926 230 972 q 153 806 170 880 l 126 806 l 181 1042 l 853 1042 l 853 1015 l 98 27 l 390 27 q 540 50 485 27 q 627 125 596 73 q 678 264 658 176 l 705 264 l 644 0 l -69 0 m 542 1285 q 501 1297 519 1285 q 471 1327 482 1308 q 460 1369 460 1347 q 471 1411 460 1392 q 501 1442 482 1431 q 542 1453 519 1453 q 584 1442 565 1453 q 615 1411 603 1431 q 626 1369 626 1392 q 615 1327 626 1347 q 584 1297 603 1308 q 542 1285 565 1285 z "},"a":{"ha":762,"x_min":45,"x_max":731,"o":"m 221 -14 q 88 47 131 -14 q 45 212 45 108 q 75 370 45 292 q 155 512 106 448 q 265 614 205 576 q 383 653 324 653 q 464 625 435 653 q 504 552 492 597 q 516 452 516 506 q 506 351 516 404 q 477 246 496 298 q 431 147 458 194 q 372 64 405 100 q 301 7 339 28 q 221 -14 263 -14 m 242 26 q 317 52 281 26 q 386 122 354 78 q 442 221 418 166 q 480 335 467 276 q 494 450 494 394 q 484 538 494 501 q 453 596 474 576 q 399 617 433 617 q 327 587 363 617 q 259 508 291 558 q 203 398 228 458 q 165 276 178 338 q 151 160 151 214 q 175 60 151 94 q 242 26 199 26 m 523 -14 q 451 13 474 -14 q 428 81 428 39 q 429 102 428 92 q 431 118 430 111 l 451 230 l 487 338 l 507 464 l 549 639 l 667 639 l 516 72 q 513 50 513 62 q 520 30 513 38 q 542 21 526 21 q 599 42 572 21 q 651 107 625 63 q 704 222 676 151 l 731 213 q 670 83 701 133 q 605 9 640 33 q 523 -14 569 -14 z "},"á":{"ha":762,"x_min":45,"x_max":731,"o":"m 221 -14 q 88 47 131 -14 q 45 212 45 108 q 75 370 45 292 q 155 512 106 448 q 265 614 205 576 q 383 653 324 653 q 464 625 435 653 q 504 552 492 597 q 516 452 516 506 q 506 351 516 404 q 477 246 496 298 q 431 147 458 194 q 372 64 405 100 q 301 7 339 28 q 221 -14 263 -14 m 242 26 q 317 52 281 26 q 386 122 354 78 q 442 221 418 166 q 480 335 467 276 q 494 450 494 394 q 484 538 494 501 q 453 596 474 576 q 399 617 433 617 q 327 587 363 617 q 259 508 291 558 q 203 398 228 458 q 165 276 178 338 q 151 160 151 214 q 175 60 151 94 q 242 26 199 26 m 523 -14 q 451 13 474 -14 q 428 81 428 39 q 429 102 428 92 q 431 118 430 111 l 451 230 l 487 338 l 507 464 l 549 639 l 667 639 l 516 72 q 513 50 513 62 q 520 30 513 38 q 542 21 526 21 q 599 42 572 21 q 651 107 625 63 q 704 222 676 151 l 731 213 q 670 83 701 133 q 605 9 640 33 q 523 -14 569 -14 m 397 765 l 380 783 l 519 935 q 542 949 531 945 q 564 950 553 952 q 584 942 575 948 q 597 927 592 935 q 603 902 604 916 q 596 877 603 889 q 578 859 590 866 l 397 765 z "},"ă":{"ha":762,"x_min":45,"x_max":731,"o":"m 221 -14 q 88 47 131 -14 q 45 212 45 108 q 75 370 45 292 q 155 512 106 448 q 265 614 205 576 q 383 653 324 653 q 464 625 435 653 q 504 552 492 597 q 516 452 516 506 q 506 351 516 404 q 477 246 496 298 q 431 147 458 194 q 372 64 405 100 q 301 7 339 28 q 221 -14 263 -14 m 242 26 q 317 52 281 26 q 386 122 354 78 q 442 221 418 166 q 480 335 467 276 q 494 450 494 394 q 484 538 494 501 q 453 596 474 576 q 399 617 433 617 q 327 587 363 617 q 259 508 291 558 q 203 398 228 458 q 165 276 178 338 q 151 160 151 214 q 175 60 151 94 q 242 26 199 26 m 523 -14 q 451 13 474 -14 q 428 81 428 39 q 429 102 428 92 q 431 118 430 111 l 451 230 l 487 338 l 507 464 l 549 639 l 667 639 l 516 72 q 513 50 513 62 q 520 30 513 38 q 542 21 526 21 q 599 42 572 21 q 651 107 625 63 q 704 222 676 151 l 731 213 q 670 83 701 133 q 605 9 640 33 q 523 -14 569 -14 m 468 765 q 402 781 426 765 q 366 823 377 797 q 353 881 354 849 q 357 944 352 913 l 384 944 q 390 888 378 910 q 425 853 401 865 q 482 842 449 842 q 547 853 515 842 q 604 888 580 865 q 635 944 628 910 l 663 944 q 644 881 658 913 q 607 823 631 849 q 549 781 583 797 q 468 765 515 765 z "},"â":{"ha":762,"x_min":45,"x_max":731,"o":"m 221 -14 q 88 47 131 -14 q 45 212 45 108 q 75 370 45 292 q 155 512 106 448 q 265 614 205 576 q 383 653 324 653 q 464 625 435 653 q 504 552 492 597 q 516 452 516 506 q 506 351 516 404 q 477 246 496 298 q 431 147 458 194 q 372 64 405 100 q 301 7 339 28 q 221 -14 263 -14 m 242 26 q 317 52 281 26 q 386 122 354 78 q 442 221 418 166 q 480 335 467 276 q 494 450 494 394 q 484 538 494 501 q 453 596 474 576 q 399 617 433 617 q 327 587 363 617 q 259 508 291 558 q 203 398 228 458 q 165 276 178 338 q 151 160 151 214 q 175 60 151 94 q 242 26 199 26 m 523 -14 q 451 13 474 -14 q 428 81 428 39 q 429 102 428 92 q 431 118 430 111 l 451 230 l 487 338 l 507 464 l 549 639 l 667 639 l 516 72 q 513 50 513 62 q 520 30 513 38 q 542 21 526 21 q 599 42 572 21 q 651 107 625 63 q 704 222 676 151 l 731 213 q 670 83 701 133 q 605 9 640 33 q 523 -14 569 -14 m 288 775 l 273 791 l 456 944 l 547 944 l 669 791 l 652 773 l 499 881 l 288 775 z "},"ä":{"ha":762,"x_min":45,"x_max":731,"o":"m 221 -14 q 88 47 131 -14 q 45 212 45 108 q 75 370 45 292 q 155 512 106 448 q 265 614 205 576 q 383 653 324 653 q 464 625 435 653 q 504 552 492 597 q 516 452 516 506 q 506 351 516 404 q 477 246 496 298 q 431 147 458 194 q 372 64 405 100 q 301 7 339 28 q 221 -14 263 -14 m 242 26 q 317 52 281 26 q 386 122 354 78 q 442 221 418 166 q 480 335 467 276 q 494 450 494 394 q 484 538 494 501 q 453 596 474 576 q 399 617 433 617 q 327 587 363 617 q 259 508 291 558 q 203 398 228 458 q 165 276 178 338 q 151 160 151 214 q 175 60 151 94 q 242 26 199 26 m 523 -14 q 451 13 474 -14 q 428 81 428 39 q 429 102 428 92 q 431 118 430 111 l 451 230 l 487 338 l 507 464 l 549 639 l 667 639 l 516 72 q 513 50 513 62 q 520 30 513 38 q 542 21 526 21 q 599 42 572 21 q 651 107 625 63 q 704 222 676 151 l 731 213 q 670 83 701 133 q 605 9 640 33 q 523 -14 569 -14 m 573 771 q 525 790 545 771 q 506 838 506 810 q 525 885 506 865 q 573 905 545 905 q 620 885 601 905 q 639 838 639 865 q 620 790 639 810 q 573 771 601 771 m 351 771 q 303 790 323 771 q 283 838 283 810 q 303 885 283 865 q 351 905 323 905 q 398 885 378 905 q 417 838 417 865 q 398 790 417 810 q 351 771 378 771 z "},"à":{"ha":762,"x_min":45,"x_max":731,"o":"m 221 -14 q 88 47 131 -14 q 45 212 45 108 q 75 370 45 292 q 155 512 106 448 q 265 614 205 576 q 383 653 324 653 q 464 625 435 653 q 504 552 492 597 q 516 452 516 506 q 506 351 516 404 q 477 246 496 298 q 431 147 458 194 q 372 64 405 100 q 301 7 339 28 q 221 -14 263 -14 m 242 26 q 317 52 281 26 q 386 122 354 78 q 442 221 418 166 q 480 335 467 276 q 494 450 494 394 q 484 538 494 501 q 453 596 474 576 q 399 617 433 617 q 327 587 363 617 q 259 508 291 558 q 203 398 228 458 q 165 276 178 338 q 151 160 151 214 q 175 60 151 94 q 242 26 199 26 m 523 -14 q 451 13 474 -14 q 428 81 428 39 q 429 102 428 92 q 431 118 430 111 l 451 230 l 487 338 l 507 464 l 549 639 l 667 639 l 516 72 q 513 50 513 62 q 520 30 513 38 q 542 21 526 21 q 599 42 572 21 q 651 107 625 63 q 704 222 676 151 l 731 213 q 670 83 701 133 q 605 9 640 33 q 523 -14 569 -14 m 531 765 l 349 859 q 331 877 338 866 q 324 902 324 889 q 330 927 324 916 q 343 942 335 935 q 363 950 352 948 q 385 949 374 952 q 408 935 397 945 l 547 783 l 531 765 z "},"ā":{"ha":762,"x_min":45,"x_max":731,"o":"m 221 -14 q 88 47 131 -14 q 45 212 45 108 q 75 370 45 292 q 155 512 106 448 q 265 614 205 576 q 383 653 324 653 q 464 625 435 653 q 504 552 492 597 q 516 452 516 506 q 506 351 516 404 q 477 246 496 298 q 431 147 458 194 q 372 64 405 100 q 301 7 339 28 q 221 -14 263 -14 m 242 26 q 317 52 281 26 q 386 122 354 78 q 442 221 418 166 q 480 335 467 276 q 494 450 494 394 q 484 538 494 501 q 453 596 474 576 q 399 617 433 617 q 327 587 363 617 q 259 508 291 558 q 203 398 228 458 q 165 276 178 338 q 151 160 151 214 q 175 60 151 94 q 242 26 199 26 m 523 -14 q 451 13 474 -14 q 428 81 428 39 q 429 102 428 92 q 431 118 430 111 l 451 230 l 487 338 l 507 464 l 549 639 l 667 639 l 516 72 q 513 50 513 62 q 520 30 513 38 q 542 21 526 21 q 599 42 572 21 q 651 107 625 63 q 704 222 676 151 l 731 213 q 670 83 701 133 q 605 9 640 33 q 523 -14 569 -14 m 272 778 l 272 805 l 605 805 l 605 778 l 272 778 z "},"ą":{"ha":762,"x_min":45,"x_max":731,"o":"m 221 -14 q 88 47 131 -14 q 45 212 45 108 q 75 370 45 292 q 155 512 106 448 q 265 614 205 576 q 383 653 324 653 q 464 625 435 653 q 504 552 492 597 q 516 452 516 506 q 506 351 516 404 q 477 246 496 298 q 431 147 458 194 q 372 64 405 100 q 301 7 339 28 q 221 -14 263 -14 m 242 26 q 317 52 281 26 q 386 122 354 78 q 442 221 418 166 q 480 335 467 276 q 494 450 494 394 q 484 538 494 501 q 453 596 474 576 q 399 617 433 617 q 327 587 363 617 q 259 508 291 558 q 203 398 228 458 q 165 276 178 338 q 151 160 151 214 q 175 60 151 94 q 242 26 199 26 m 523 -14 q 451 13 474 -14 q 428 81 428 39 q 429 102 428 92 q 431 118 430 111 l 451 230 l 487 338 l 507 464 l 549 639 l 667 639 l 516 72 q 513 50 513 62 q 520 30 513 38 q 542 21 526 21 q 599 42 572 21 q 651 107 625 63 q 704 222 676 151 l 731 213 q 670 83 701 133 q 605 9 640 33 q 523 -14 569 -14 m 496 -301 q 428 -292 460 -301 q 374 -260 395 -283 q 353 -196 353 -237 q 377 -119 353 -154 q 439 -58 401 -85 q 517 -12 476 -31 q 589 16 557 6 l 597 5 q 545 -34 572 -9 q 500 -95 519 -59 q 482 -178 482 -131 q 499 -240 482 -220 q 542 -260 517 -260 q 582 -249 565 -260 q 613 -223 600 -239 q 634 -190 626 -206 l 656 -200 q 627 -243 646 -219 q 577 -284 608 -267 q 496 -301 545 -301 z "},"å":{"ha":762,"x_min":45,"x_max":731,"o":"m 221 -14 q 88 47 131 -14 q 45 212 45 108 q 75 370 45 292 q 155 512 106 448 q 265 614 205 576 q 383 653 324 653 q 464 625 435 653 q 504 552 492 597 q 516 452 516 506 q 506 351 516 404 q 477 246 496 298 q 431 147 458 194 q 372 64 405 100 q 301 7 339 28 q 221 -14 263 -14 m 242 26 q 317 52 281 26 q 386 122 354 78 q 442 221 418 166 q 480 335 467 276 q 494 450 494 394 q 484 538 494 501 q 453 596 474 576 q 399 617 433 617 q 327 587 363 617 q 259 508 291 558 q 203 398 228 458 q 165 276 178 338 q 151 160 151 214 q 175 60 151 94 q 242 26 199 26 m 523 -14 q 451 13 474 -14 q 428 81 428 39 q 429 102 428 92 q 431 118 430 111 l 451 230 l 487 338 l 507 464 l 549 639 l 667 639 l 516 72 q 513 50 513 62 q 520 30 513 38 q 542 21 526 21 q 599 42 572 21 q 651 107 625 63 q 704 222 676 151 l 731 213 q 670 83 701 133 q 605 9 640 33 q 523 -14 569 -14 m 473 764 q 384 800 420 764 q 349 888 349 835 q 384 978 349 942 q 473 1014 420 1014 q 562 978 526 1014 q 598 888 598 942 q 562 800 598 835 q 473 764 526 764 m 469 791 q 500 801 486 791 q 525 826 515 810 q 541 862 535 842 q 547 902 547 882 q 528 964 547 942 q 476 986 510 986 q 446 976 460 986 q 422 950 432 967 q 406 914 411 934 q 400 874 400 894 q 418 813 400 835 q 469 791 436 791 z "},"ã":{"ha":762,"x_min":45,"x_max":776,"o":"m 221 -14 q 88 47 131 -14 q 45 212 45 108 q 75 370 45 292 q 155 512 106 448 q 265 614 205 576 q 383 653 324 653 q 464 625 435 653 q 504 552 492 597 q 516 452 516 506 q 506 351 516 404 q 477 246 496 298 q 431 147 458 194 q 372 64 405 100 q 301 7 339 28 q 221 -14 263 -14 m 242 26 q 317 52 281 26 q 386 122 354 78 q 442 221 418 166 q 480 335 467 276 q 494 450 494 394 q 484 538 494 501 q 453 596 474 576 q 399 617 433 617 q 327 587 363 617 q 259 508 291 558 q 203 398 228 458 q 165 276 178 338 q 151 160 151 214 q 175 60 151 94 q 242 26 199 26 m 523 -14 q 451 13 474 -14 q 428 81 428 39 q 429 102 428 92 q 431 118 430 111 l 451 230 l 487 338 l 507 464 l 549 639 l 667 639 l 516 72 q 513 50 513 62 q 520 30 513 38 q 542 21 526 21 q 599 42 572 21 q 651 107 625 63 q 704 222 676 151 l 731 213 q 670 83 701 133 q 605 9 640 33 q 523 -14 569 -14 m 609 764 q 536 781 567 764 q 479 819 505 797 q 428 857 453 840 q 374 874 403 874 q 310 851 334 874 q 267 778 287 828 l 240 778 q 284 876 253 837 q 351 935 314 915 q 422 954 388 954 q 489 938 460 954 q 544 899 519 921 q 592 861 569 878 q 642 844 616 844 q 706 868 682 844 q 749 940 731 892 l 776 940 q 736 836 763 875 q 676 781 710 797 q 609 764 643 764 z "},"æ":{"ha":1059,"x_min":25,"x_max":1054,"o":"m 672 -14 q 569 10 616 -14 q 494 87 522 35 q 465 222 465 139 l 493 216 q 525 395 494 315 q 608 533 556 476 q 724 621 659 590 q 856 652 788 652 q 957 639 913 652 q 1028 597 1002 626 q 1054 517 1054 567 q 1030 428 1054 465 q 963 368 1005 392 q 870 331 922 344 q 764 310 818 317 q 659 302 709 304 q 569 301 608 301 l 569 325 q 688 330 626 325 q 804 353 750 335 q 891 411 858 372 q 924 520 924 451 q 909 596 924 565 q 856 627 893 627 q 761 592 809 627 q 673 496 713 557 q 607 357 632 435 q 582 194 582 279 q 594 103 582 142 q 633 42 607 64 q 700 20 659 20 q 810 45 761 20 q 897 112 859 71 q 963 199 935 153 l 992 199 q 919 97 965 145 q 812 17 874 48 q 672 -14 750 -14 m 236 -14 q 133 0 181 -14 q 55 46 85 15 q 25 129 25 78 q 67 247 25 194 q 189 331 109 300 q 381 363 268 363 l 483 363 l 483 335 l 381 335 q 272 308 321 335 q 195 234 224 282 q 167 122 167 186 q 190 41 167 68 q 249 13 213 13 q 327 44 289 13 q 397 130 366 76 q 442 251 427 183 l 480 423 q 490 491 488 456 q 485 556 492 526 q 457 604 478 585 q 393 622 435 622 q 330 616 363 622 q 268 598 297 610 q 224 565 240 585 q 270 567 250 574 q 300 546 290 561 q 311 511 311 531 q 283 451 311 469 q 229 432 256 432 q 177 451 197 432 q 158 508 158 471 q 194 583 158 551 q 287 633 230 615 q 407 650 344 650 q 537 617 497 650 q 583 531 577 583 q 578 423 589 479 l 518 251 q 482 137 506 186 q 423 54 458 88 q 341 3 388 20 q 236 -14 294 -14 z "},"b":{"ha":688,"x_min":45,"x_max":632,"o":"m 247 -14 q 151 13 191 -14 q 85 81 111 40 q 45 167 59 123 l 273 1015 l 163 1015 l 163 1042 l 390 1042 l 145 131 q 168 49 145 81 q 243 17 192 17 q 333 44 291 17 q 410 120 376 72 q 470 226 445 167 q 509 348 495 285 q 522 468 522 410 q 495 582 522 545 q 425 619 468 619 q 348 595 383 619 q 284 529 313 571 q 234 433 256 487 q 195 319 212 379 l 171 319 q 222 457 194 396 q 282 562 249 519 q 355 628 315 606 q 438 651 394 651 q 578 582 524 651 q 632 399 632 512 q 601 244 632 318 q 517 111 571 169 q 394 20 464 53 q 247 -14 325 -14 z "},"c":{"ha":615,"x_min":45,"x_max":597,"o":"m 251 -14 q 98 48 151 -14 q 45 208 45 110 q 75 368 45 289 q 157 511 105 447 q 275 614 208 576 q 415 653 342 653 q 513 631 472 653 q 575 578 553 609 q 597 521 597 548 q 577 463 597 484 q 526 442 556 442 q 478 458 500 442 q 457 511 457 475 q 476 560 457 540 q 522 581 496 581 q 559 576 542 581 q 586 558 576 571 q 596 521 596 545 l 569 521 q 550 566 569 542 q 498 605 531 589 q 424 621 465 621 q 335 590 377 621 q 259 506 293 558 q 200 392 225 454 q 162 265 175 329 q 149 148 149 201 q 178 55 149 89 q 261 22 208 22 q 363 44 317 22 q 447 106 409 67 q 513 194 484 144 l 538 180 q 469 84 510 128 q 373 13 427 40 q 251 -14 318 -14 z "},"ć":{"ha":615,"x_min":45,"x_max":597,"o":"m 251 -14 q 98 48 151 -14 q 45 208 45 110 q 75 368 45 289 q 157 511 105 447 q 275 614 208 576 q 415 653 342 653 q 513 631 472 653 q 575 578 553 609 q 597 521 597 548 q 577 463 597 484 q 526 442 556 442 q 478 458 500 442 q 457 511 457 475 q 476 560 457 540 q 522 581 496 581 q 559 576 542 581 q 586 558 576 571 q 596 521 596 545 l 569 521 q 550 566 569 542 q 498 605 531 589 q 424 621 465 621 q 335 590 377 621 q 259 506 293 558 q 200 392 225 454 q 162 265 175 329 q 149 148 149 201 q 178 55 149 89 q 261 22 208 22 q 363 44 317 22 q 447 106 409 67 q 513 194 484 144 l 538 180 q 469 84 510 128 q 373 13 427 40 q 251 -14 318 -14 m 368 765 l 351 783 l 491 935 q 514 949 502 945 q 536 950 525 952 q 555 942 547 948 q 569 927 564 935 q 575 902 576 916 q 568 877 574 889 q 550 859 561 866 l 368 765 z "},"č":{"ha":615,"x_min":45,"x_max":673,"o":"m 251 -14 q 98 48 151 -14 q 45 208 45 110 q 75 368 45 289 q 157 511 105 447 q 275 614 208 576 q 415 653 342 653 q 513 631 472 653 q 575 578 553 609 q 597 521 597 548 q 577 463 597 484 q 526 442 556 442 q 478 458 500 442 q 457 511 457 475 q 476 560 457 540 q 522 581 496 581 q 559 576 542 581 q 586 558 576 571 q 596 521 596 545 l 569 521 q 550 566 569 542 q 498 605 531 589 q 424 621 465 621 q 335 590 377 621 q 259 506 293 558 q 200 392 225 454 q 162 265 175 329 q 149 148 149 201 q 178 55 149 89 q 261 22 208 22 q 363 44 317 22 q 447 106 409 67 q 513 194 484 144 l 538 180 q 469 84 510 128 q 373 13 427 40 q 251 -14 318 -14 m 400 778 l 277 931 l 296 949 l 448 840 l 657 947 l 673 931 l 489 778 l 400 778 z "},"ç":{"ha":615,"x_min":45,"x_max":597,"o":"m 251 -14 q 98 48 151 -14 q 45 208 45 110 q 75 368 45 289 q 157 511 105 447 q 275 614 208 576 q 415 653 342 653 q 513 631 472 653 q 575 578 553 609 q 597 521 597 548 q 577 463 597 484 q 526 442 556 442 q 478 458 500 442 q 457 511 457 475 q 476 560 457 540 q 522 581 496 581 q 559 576 542 581 q 586 558 576 571 q 596 521 596 545 l 569 521 q 550 566 569 542 q 498 605 531 589 q 424 621 465 621 q 335 590 377 621 q 259 506 293 558 q 200 392 225 454 q 162 265 175 329 q 149 148 149 201 q 178 55 149 89 q 261 22 208 22 q 363 44 317 22 q 447 106 409 67 q 513 194 484 144 l 538 180 q 469 84 510 128 q 373 13 427 40 q 251 -14 318 -14 m 134 -353 l 134 -327 q 236 -301 194 -327 q 277 -231 277 -276 q 237 -173 277 -187 q 128 -158 197 -158 l 274 8 l 307 8 l 210 -103 q 301 -115 263 -103 q 358 -149 338 -126 q 378 -208 378 -172 q 350 -280 378 -247 q 266 -333 321 -312 q 134 -353 212 -353 z "},"ĉ":{"ha":615,"x_min":45,"x_max":641,"o":"m 251 -14 q 98 48 151 -14 q 45 208 45 110 q 75 368 45 289 q 157 511 105 447 q 275 614 208 576 q 415 653 342 653 q 513 631 472 653 q 575 578 553 609 q 597 521 597 548 q 577 463 597 484 q 526 442 556 442 q 478 458 500 442 q 457 511 457 475 q 476 560 457 540 q 522 581 496 581 q 559 576 542 581 q 586 558 576 571 q 596 521 596 545 l 569 521 q 550 566 569 542 q 498 605 531 589 q 424 621 465 621 q 335 590 377 621 q 259 506 293 558 q 200 392 225 454 q 162 265 175 329 q 149 148 149 201 q 178 55 149 89 q 261 22 208 22 q 363 44 317 22 q 447 106 409 67 q 513 194 484 144 l 538 180 q 469 84 510 128 q 373 13 427 40 q 251 -14 318 -14 m 260 775 l 244 791 l 428 944 l 518 944 l 641 791 l 624 773 l 470 881 l 260 775 z "},"ċ":{"ha":615,"x_min":45,"x_max":597,"o":"m 251 -14 q 98 48 151 -14 q 45 208 45 110 q 75 368 45 289 q 157 511 105 447 q 275 614 208 576 q 415 653 342 653 q 513 631 472 653 q 575 578 553 609 q 597 521 597 548 q 577 463 597 484 q 526 442 556 442 q 478 458 500 442 q 457 511 457 475 q 476 560 457 540 q 522 581 496 581 q 559 576 542 581 q 586 558 576 571 q 596 521 596 545 l 569 521 q 550 566 569 542 q 498 605 531 589 q 424 621 465 621 q 335 590 377 621 q 259 506 293 558 q 200 392 225 454 q 162 265 175 329 q 149 148 149 201 q 178 55 149 89 q 261 22 208 22 q 363 44 317 22 q 447 106 409 67 q 513 194 484 144 l 538 180 q 469 84 510 128 q 373 13 427 40 q 251 -14 318 -14 m 483 883 q 441 894 460 883 q 411 925 422 906 q 400 967 400 944 q 411 1009 400 990 q 441 1039 422 1028 q 483 1050 460 1050 q 525 1039 506 1050 q 555 1009 544 1028 q 567 967 567 990 q 555 925 567 944 q 525 894 544 906 q 483 883 506 883 z "},"d":{"ha":762,"x_min":45,"x_max":774,"o":"m 523 -14 q 451 13 474 -14 q 428 81 428 39 q 429 97 428 86 q 431 118 429 107 l 451 230 l 497 344 l 499 428 l 656 1015 l 541 1015 l 541 1042 l 774 1042 l 516 72 q 513 50 513 61 q 519 30 513 39 q 542 21 526 21 q 599 42 572 21 q 651 107 625 63 q 704 222 676 151 l 731 213 q 671 83 701 133 q 605 9 641 33 q 523 -14 569 -14 m 222 -14 q 88 47 131 -14 q 45 212 45 108 q 75 370 45 292 q 155 512 106 448 q 265 614 205 576 q 383 653 324 653 q 463 626 434 653 q 504 553 492 599 q 516 452 516 508 q 506 351 516 404 q 477 246 496 298 q 432 147 458 194 q 373 64 406 100 q 302 7 340 28 q 222 -14 264 -14 m 242 26 q 317 52 281 26 q 386 122 354 78 q 442 221 418 166 q 480 335 467 276 q 494 450 494 394 q 484 538 494 501 q 453 596 474 576 q 399 617 433 617 q 327 587 363 617 q 260 508 292 557 q 204 398 228 458 q 165 276 179 338 q 151 160 151 214 q 174 60 151 94 q 242 26 197 26 z "},"ď":{"ha":762,"x_min":45,"x_max":1056,"o":"m 523 -14 q 451 13 474 -14 q 428 81 428 39 q 429 97 428 86 q 431 118 429 107 l 451 230 l 497 344 l 499 428 l 656 1015 l 541 1015 l 541 1042 l 774 1042 l 516 72 q 513 50 513 61 q 519 30 513 39 q 542 21 526 21 q 599 42 572 21 q 651 107 625 63 q 704 222 676 151 l 731 213 q 671 83 701 133 q 605 9 641 33 q 523 -14 569 -14 m 222 -14 q 88 47 131 -14 q 45 212 45 108 q 75 370 45 292 q 155 512 106 448 q 265 614 205 576 q 383 653 324 653 q 463 626 434 653 q 504 553 492 599 q 516 452 516 508 q 506 351 516 404 q 477 246 496 298 q 432 147 458 194 q 373 64 406 100 q 302 7 340 28 q 222 -14 264 -14 m 242 26 q 317 52 281 26 q 386 122 354 78 q 442 221 418 166 q 480 335 467 276 q 494 450 494 394 q 484 538 494 501 q 453 596 474 576 q 399 617 433 617 q 327 587 363 617 q 260 508 292 557 q 204 398 228 458 q 165 276 179 338 q 151 160 151 214 q 174 60 151 94 q 242 26 197 26 m 805 689 l 805 717 q 886 738 846 717 q 961 796 927 760 q 1013 876 994 832 q 1027 964 1031 919 l 1053 964 q 1039 927 1053 943 q 1003 901 1025 910 q 957 892 981 892 q 891 915 913 892 q 870 969 870 938 q 882 1012 870 992 q 916 1044 894 1032 q 963 1056 937 1056 q 1030 1030 1004 1056 q 1056 949 1056 1003 q 1035 856 1056 902 q 977 772 1013 810 q 897 711 942 734 q 805 689 852 689 z "},"đ":{"ha":762,"x_min":45,"x_max":799,"o":"m 391 778 l 391 805 l 799 805 l 799 778 l 391 778 m 523 -14 q 451 13 474 -14 q 428 81 428 39 q 429 97 428 86 q 431 118 429 107 l 451 230 l 497 344 l 499 428 l 656 1015 l 541 1015 l 541 1042 l 774 1042 l 516 72 q 513 50 513 61 q 519 30 513 39 q 542 21 526 21 q 599 42 572 21 q 651 107 625 63 q 704 222 676 151 l 731 213 q 671 83 701 133 q 605 9 641 33 q 523 -14 569 -14 m 222 -14 q 88 47 131 -14 q 45 212 45 108 q 75 370 45 292 q 155 512 106 448 q 265 614 205 576 q 383 653 324 653 q 463 626 434 653 q 504 553 492 599 q 516 452 516 508 q 506 351 516 404 q 477 246 496 298 q 432 147 458 194 q 373 64 406 100 q 302 7 340 28 q 222 -14 264 -14 m 242 26 q 317 52 281 26 q 386 122 354 78 q 442 221 418 166 q 480 335 467 276 q 494 450 494 394 q 484 538 494 501 q 453 596 474 576 q 399 617 433 617 q 327 587 363 617 q 260 508 292 557 q 204 398 228 458 q 165 276 179 338 q 151 160 151 214 q 174 60 151 94 q 242 26 197 26 z "},"ð":{"ha":777,"x_min":56,"x_max":875,"o":"m 328 -14 q 129 43 203 -14 q 56 236 56 101 q 94 429 56 346 q 193 568 132 512 q 324 652 254 624 q 457 681 394 681 q 576 646 538 681 q 626 549 615 611 q 637 406 637 488 l 617 458 q 605 550 617 508 q 563 618 592 592 q 488 644 535 644 q 399 622 442 644 q 319 560 356 600 q 253 466 281 520 q 210 346 226 412 q 194 208 194 281 q 205 113 194 157 q 245 41 216 68 q 326 13 274 13 q 413 44 370 13 q 492 124 455 74 q 557 233 529 174 q 601 351 585 292 q 617 458 617 410 l 626 480 q 623 636 626 558 q 606 786 619 715 q 561 911 592 856 q 473 999 529 967 q 327 1031 416 1031 l 327 1056 q 527 1016 443 1056 q 666 906 611 976 q 747 747 720 837 q 773 556 773 656 q 738 344 773 447 q 640 161 702 242 q 498 33 578 81 q 328 -14 417 -14 m 292 848 l 292 875 l 875 875 l 875 848 l 292 848 z "},"e":{"ha":641,"x_min":42,"x_max":589,"o":"m 247 -14 q 135 14 181 -14 q 65 92 89 42 q 42 208 42 142 q 71 367 42 288 q 153 510 100 446 q 277 614 206 575 q 431 653 348 653 q 548 616 506 653 q 589 524 589 578 q 550 422 589 467 q 446 346 511 377 q 303 296 381 315 q 146 272 225 278 l 146 296 q 257 311 205 300 q 351 342 309 323 q 423 390 393 362 q 470 457 453 419 q 486 543 486 494 q 471 600 486 576 q 422 625 456 625 q 346 603 382 625 q 280 542 310 581 q 224 455 249 503 q 181 352 199 406 q 154 245 163 299 q 144 146 144 192 q 177 49 144 76 q 258 22 209 22 q 359 44 313 22 q 443 105 406 66 q 509 194 481 144 l 533 179 q 465 83 506 126 q 369 13 424 39 q 247 -14 315 -14 z "},"é":{"ha":641,"x_min":42,"x_max":589,"o":"m 247 -14 q 135 14 181 -14 q 65 92 89 42 q 42 208 42 142 q 71 367 42 288 q 153 510 100 446 q 277 614 206 575 q 431 653 348 653 q 548 616 506 653 q 589 524 589 578 q 550 422 589 467 q 446 346 511 377 q 303 296 381 315 q 146 272 225 278 l 146 296 q 257 311 205 300 q 351 342 309 323 q 423 390 393 362 q 470 457 453 419 q 486 543 486 494 q 471 600 486 576 q 422 625 456 625 q 346 603 382 625 q 280 542 310 581 q 224 455 249 503 q 181 352 199 406 q 154 245 163 299 q 144 146 144 192 q 177 49 144 76 q 258 22 209 22 q 359 44 313 22 q 443 105 406 66 q 509 194 481 144 l 533 179 q 465 83 506 126 q 369 13 424 39 q 247 -14 315 -14 m 337 765 l 320 783 l 460 935 q 482 949 471 945 q 505 950 494 952 q 524 942 515 948 q 538 927 533 935 q 544 902 544 916 q 536 877 543 889 q 519 859 530 866 l 337 765 z "},"ĕ":{"ha":641,"x_min":42,"x_max":603,"o":"m 247 -14 q 135 14 181 -14 q 65 92 89 42 q 42 208 42 142 q 71 367 42 288 q 153 510 100 446 q 277 614 206 575 q 431 653 348 653 q 548 616 506 653 q 589 524 589 578 q 550 422 589 467 q 446 346 511 377 q 303 296 381 315 q 146 272 225 278 l 146 296 q 257 311 205 300 q 351 342 309 323 q 423 390 393 362 q 470 457 453 419 q 486 543 486 494 q 471 600 486 576 q 422 625 456 625 q 346 603 382 625 q 280 542 310 581 q 224 455 249 503 q 181 352 199 406 q 154 245 163 299 q 144 146 144 192 q 177 49 144 76 q 258 22 209 22 q 359 44 313 22 q 443 105 406 66 q 509 194 481 144 l 533 179 q 465 83 506 126 q 369 13 424 39 q 247 -14 315 -14 m 408 765 q 342 781 367 765 q 306 823 317 797 q 293 881 294 849 q 297 944 292 913 l 324 944 q 330 888 319 910 q 365 853 341 865 q 422 842 390 842 q 488 853 455 842 q 544 888 520 865 q 576 944 569 910 l 603 944 q 584 881 598 913 q 547 823 571 849 q 490 781 524 797 q 408 765 456 765 z "},"ě":{"ha":641,"x_min":42,"x_max":642,"o":"m 247 -14 q 135 14 181 -14 q 65 92 89 42 q 42 208 42 142 q 71 367 42 288 q 153 510 100 446 q 277 614 206 575 q 431 653 348 653 q 548 616 506 653 q 589 524 589 578 q 550 422 589 467 q 446 346 511 377 q 303 296 381 315 q 146 272 225 278 l 146 296 q 257 311 205 300 q 351 342 309 323 q 423 390 393 362 q 470 457 453 419 q 486 543 486 494 q 471 600 486 576 q 422 625 456 625 q 346 603 382 625 q 280 542 310 581 q 224 455 249 503 q 181 352 199 406 q 154 245 163 299 q 144 146 144 192 q 177 49 144 76 q 258 22 209 22 q 359 44 313 22 q 443 105 406 66 q 509 194 481 144 l 533 179 q 465 83 506 126 q 369 13 424 39 q 247 -14 315 -14 m 369 778 l 246 931 l 265 949 l 417 840 l 626 947 l 642 931 l 458 778 l 369 778 z "},"ê":{"ha":641,"x_min":42,"x_max":610,"o":"m 247 -14 q 135 14 181 -14 q 65 92 89 42 q 42 208 42 142 q 71 367 42 288 q 153 510 100 446 q 277 614 206 575 q 431 653 348 653 q 548 616 506 653 q 589 524 589 578 q 550 422 589 467 q 446 346 511 377 q 303 296 381 315 q 146 272 225 278 l 146 296 q 257 311 205 300 q 351 342 309 323 q 423 390 393 362 q 470 457 453 419 q 486 543 486 494 q 471 600 486 576 q 422 625 456 625 q 346 603 382 625 q 280 542 310 581 q 224 455 249 503 q 181 352 199 406 q 154 245 163 299 q 144 146 144 192 q 177 49 144 76 q 258 22 209 22 q 359 44 313 22 q 443 105 406 66 q 509 194 481 144 l 533 179 q 465 83 506 126 q 369 13 424 39 q 247 -14 315 -14 m 228 775 l 213 791 l 397 944 l 487 944 l 610 791 l 592 773 l 439 881 l 228 775 z "},"ë":{"ha":641,"x_min":42,"x_max":589,"o":"m 247 -14 q 135 14 181 -14 q 65 92 89 42 q 42 208 42 142 q 71 367 42 288 q 153 510 100 446 q 277 614 206 575 q 431 653 348 653 q 548 616 506 653 q 589 524 589 578 q 550 422 589 467 q 446 346 511 377 q 303 296 381 315 q 146 272 225 278 l 146 296 q 257 311 205 300 q 351 342 309 323 q 423 390 393 362 q 470 457 453 419 q 486 543 486 494 q 471 600 486 576 q 422 625 456 625 q 346 603 382 625 q 280 542 310 581 q 224 455 249 503 q 181 352 199 406 q 154 245 163 299 q 144 146 144 192 q 177 49 144 76 q 258 22 209 22 q 359 44 313 22 q 443 105 406 66 q 509 194 481 144 l 533 179 q 465 83 506 126 q 369 13 424 39 q 247 -14 315 -14 m 513 771 q 466 790 485 771 q 446 838 446 810 q 466 885 446 865 q 513 905 485 905 q 560 885 541 905 q 579 838 579 865 q 560 790 579 810 q 513 771 541 771 m 291 771 q 243 790 263 771 q 224 838 224 810 q 243 885 224 865 q 291 905 263 905 q 338 885 319 905 q 357 838 357 865 q 338 790 357 810 q 291 771 319 771 z "},"ė":{"ha":641,"x_min":42,"x_max":589,"o":"m 247 -14 q 135 14 181 -14 q 65 92 89 42 q 42 208 42 142 q 71 367 42 288 q 153 510 100 446 q 277 614 206 575 q 431 653 348 653 q 548 616 506 653 q 589 524 589 578 q 550 422 589 467 q 446 346 511 377 q 303 296 381 315 q 146 272 225 278 l 146 296 q 257 311 205 300 q 351 342 309 323 q 423 390 393 362 q 470 457 453 419 q 486 543 486 494 q 471 600 486 576 q 422 625 456 625 q 346 603 382 625 q 280 542 310 581 q 224 455 249 503 q 181 352 199 406 q 154 245 163 299 q 144 146 144 192 q 177 49 144 76 q 258 22 209 22 q 359 44 313 22 q 443 105 406 66 q 509 194 481 144 l 533 179 q 465 83 506 126 q 369 13 424 39 q 247 -14 315 -14 m 451 883 q 410 894 428 883 q 380 925 391 906 q 369 967 369 944 q 380 1009 369 990 q 410 1039 391 1028 q 451 1050 428 1050 q 493 1039 474 1050 q 524 1009 513 1028 q 535 967 535 990 q 524 925 535 944 q 493 894 513 906 q 451 883 474 883 z "},"è":{"ha":641,"x_min":42,"x_max":589,"o":"m 247 -14 q 135 14 181 -14 q 65 92 89 42 q 42 208 42 142 q 71 367 42 288 q 153 510 100 446 q 277 614 206 575 q 431 653 348 653 q 548 616 506 653 q 589 524 589 578 q 550 422 589 467 q 446 346 511 377 q 303 296 381 315 q 146 272 225 278 l 146 296 q 257 311 205 300 q 351 342 309 323 q 423 390 393 362 q 470 457 453 419 q 486 543 486 494 q 471 600 486 576 q 422 625 456 625 q 346 603 382 625 q 280 542 310 581 q 224 455 249 503 q 181 352 199 406 q 154 245 163 299 q 144 146 144 192 q 177 49 144 76 q 258 22 209 22 q 359 44 313 22 q 443 105 406 66 q 509 194 481 144 l 533 179 q 465 83 506 126 q 369 13 424 39 q 247 -14 315 -14 m 471 765 l 289 859 q 271 877 278 866 q 264 902 265 889 q 270 927 264 916 q 284 942 275 935 q 303 950 292 948 q 325 949 314 952 q 348 935 337 945 l 488 783 l 471 765 z "},"ē":{"ha":641,"x_min":42,"x_max":589,"o":"m 247 -14 q 135 14 181 -14 q 65 92 89 42 q 42 208 42 142 q 71 367 42 288 q 153 510 100 446 q 277 614 206 575 q 431 653 348 653 q 548 616 506 653 q 589 524 589 578 q 550 422 589 467 q 446 346 511 377 q 303 296 381 315 q 146 272 225 278 l 146 296 q 257 311 205 300 q 351 342 309 323 q 423 390 393 362 q 470 457 453 419 q 486 543 486 494 q 471 600 486 576 q 422 625 456 625 q 346 603 382 625 q 280 542 310 581 q 224 455 249 503 q 181 352 199 406 q 154 245 163 299 q 144 146 144 192 q 177 49 144 76 q 258 22 209 22 q 359 44 313 22 q 443 105 406 66 q 509 194 481 144 l 533 179 q 465 83 506 126 q 369 13 424 39 q 247 -14 315 -14 m 212 778 l 212 805 l 545 805 l 545 778 l 212 778 z "},"ę":{"ha":641,"x_min":42,"x_max":589,"o":"m 247 -14 q 135 14 181 -14 q 65 92 89 42 q 42 208 42 142 q 71 367 42 288 q 153 510 100 446 q 277 614 206 575 q 431 653 348 653 q 548 616 506 653 q 589 524 589 578 q 550 422 589 467 q 446 346 511 377 q 303 296 381 315 q 146 272 225 278 l 146 296 q 257 311 205 300 q 351 342 309 323 q 423 390 393 362 q 470 457 453 419 q 486 543 486 494 q 471 600 486 576 q 422 625 456 625 q 346 603 382 625 q 280 542 310 581 q 224 455 249 503 q 181 352 199 406 q 154 245 163 299 q 144 146 144 192 q 177 49 144 76 q 258 22 209 22 q 359 44 313 22 q 443 105 406 66 q 509 194 481 144 l 533 179 q 465 83 506 126 q 369 13 424 39 q 247 -14 315 -14 m 249 -301 q 181 -292 213 -301 q 127 -260 148 -283 q 106 -196 106 -237 q 130 -119 106 -154 q 192 -58 154 -85 q 269 -12 229 -31 q 342 16 310 6 l 349 5 q 298 -34 325 -9 q 253 -95 272 -59 q 235 -178 235 -131 q 252 -240 235 -220 q 294 -260 269 -260 q 335 -249 317 -260 q 366 -223 353 -239 q 387 -190 378 -206 l 408 -200 q 380 -243 399 -219 q 330 -284 361 -267 q 249 -301 298 -301 z "},"f":{"ha":483,"x_min":-271,"x_max":680,"o":"m -124 -361 q -205 -343 -172 -361 q -254 -299 -237 -326 q -271 -243 -271 -272 q -250 -186 -271 -206 q -199 -166 -228 -166 q -148 -183 -169 -166 q -126 -235 -126 -200 q -137 -273 -126 -258 q -165 -297 -149 -289 q -199 -305 -182 -305 q -232 -298 -216 -305 q -259 -276 -249 -290 q -269 -243 -269 -262 l -242 -243 q -229 -282 -242 -260 q -189 -319 -216 -303 q -121 -335 -162 -335 q -57 -316 -84 -335 q -10 -259 -30 -296 q 26 -171 10 -222 q 57 -58 42 -120 l 234 710 q 274 836 249 775 q 337 947 300 898 q 423 1026 374 997 q 533 1056 472 1056 q 614 1038 582 1056 q 663 993 647 1020 q 680 938 680 966 q 660 881 680 901 q 608 860 640 860 q 558 877 580 860 q 535 929 535 894 q 546 966 535 951 q 573 991 556 982 q 608 999 590 999 q 632 995 619 999 q 655 984 644 992 q 672 964 665 976 q 678 938 678 953 l 652 938 q 639 977 652 956 q 600 1014 626 999 q 533 1030 574 1030 q 471 1010 498 1030 q 424 952 444 990 q 388 864 404 915 q 357 750 372 813 l 176 -16 q 135 -141 160 -80 q 73 -252 110 -203 q -12 -332 37 -302 q -124 -361 -61 -361 m 82 612 l 82 639 l 517 639 l 517 612 l 82 612 z "},"g":{"ha":819,"x_min":-59,"x_max":802,"o":"m 212 -361 q 50 -337 109 -361 q -34 -273 -10 -312 q -59 -188 -59 -233 q -34 -110 -59 -146 q 28 -47 -9 -74 q 104 -4 66 -19 q 169 11 142 11 l 209 11 q 115 -27 153 1 q 57 -97 77 -56 q 38 -187 38 -138 q 77 -292 38 -252 q 199 -331 117 -331 q 351 -313 281 -331 q 474 -261 422 -294 q 557 -183 527 -228 q 586 -87 586 -139 q 559 -29 586 -46 q 490 -12 533 -12 q 448 -12 476 -12 q 385 -12 420 -12 q 316 -12 350 -12 q 256 -12 282 -12 q 221 -12 230 -12 q 114 4 158 -12 q 45 51 69 21 q 22 120 22 81 q 39 182 22 153 q 90 233 57 211 q 166 267 122 255 q 262 279 210 279 l 260 261 q 160 231 195 261 q 124 167 124 200 q 146 117 124 135 q 200 93 168 99 q 263 86 233 86 q 323 86 288 86 q 392 87 358 87 q 445 88 426 88 q 576 57 524 88 q 629 -58 629 26 q 592 -191 629 -134 q 493 -286 555 -248 q 358 -342 432 -324 q 212 -361 285 -361 m 363 222 q 263 245 307 222 q 192 310 218 268 q 167 412 167 353 q 204 533 167 478 q 302 620 241 588 q 433 652 363 652 q 533 628 489 652 q 603 559 578 603 q 629 456 629 515 q 592 337 629 390 q 494 253 555 284 q 363 222 434 222 m 349 249 q 405 266 378 249 q 456 310 433 282 q 498 373 480 338 q 525 446 515 408 q 535 518 535 483 q 514 594 535 564 q 447 625 492 625 q 391 609 418 625 q 340 565 363 592 q 298 502 316 537 q 270 429 281 467 q 260 357 260 392 q 282 280 260 311 q 349 249 303 249 m 722 646 q 780 625 757 646 q 802 569 802 603 q 784 520 802 540 q 738 499 767 499 q 692 516 713 499 q 672 561 672 532 q 684 596 672 581 q 713 617 696 611 q 741 605 728 613 q 763 582 754 597 q 742 609 757 600 q 709 618 727 618 q 655 600 681 618 q 606 552 628 583 q 564 481 583 521 l 544 492 q 625 608 581 569 q 722 646 669 646 z "},"ğ":{"ha":819,"x_min":-59,"x_max":802,"o":"m 212 -361 q 50 -337 109 -361 q -34 -273 -10 -312 q -59 -188 -59 -233 q -34 -110 -59 -146 q 28 -47 -9 -74 q 104 -4 66 -19 q 169 11 142 11 l 209 11 q 115 -27 153 1 q 57 -97 77 -56 q 38 -187 38 -138 q 77 -292 38 -252 q 199 -331 117 -331 q 351 -313 281 -331 q 474 -261 422 -294 q 557 -183 527 -228 q 586 -87 586 -139 q 559 -29 586 -46 q 490 -12 533 -12 q 448 -12 476 -12 q 385 -12 420 -12 q 316 -12 350 -12 q 256 -12 282 -12 q 221 -12 230 -12 q 114 4 158 -12 q 45 51 69 21 q 22 120 22 81 q 39 182 22 153 q 90 233 57 211 q 166 267 122 255 q 262 279 210 279 l 260 261 q 160 231 195 261 q 124 167 124 200 q 146 117 124 135 q 200 93 168 99 q 263 86 233 86 q 323 86 288 86 q 392 87 358 87 q 445 88 426 88 q 576 57 524 88 q 629 -58 629 26 q 592 -191 629 -134 q 493 -286 555 -248 q 358 -342 432 -324 q 212 -361 285 -361 m 363 222 q 263 245 307 222 q 192 310 218 268 q 167 412 167 353 q 204 533 167 478 q 302 620 241 588 q 433 652 363 652 q 533 628 489 652 q 603 559 578 603 q 629 456 629 515 q 592 337 629 390 q 494 253 555 284 q 363 222 434 222 m 349 249 q 405 266 378 249 q 456 310 433 282 q 498 373 480 338 q 525 446 515 408 q 535 518 535 483 q 514 594 535 564 q 447 625 492 625 q 391 609 418 625 q 340 565 363 592 q 298 502 316 537 q 270 429 281 467 q 260 357 260 392 q 282 280 260 311 q 349 249 303 249 m 722 646 q 780 625 757 646 q 802 569 802 603 q 784 520 802 540 q 738 499 767 499 q 692 516 713 499 q 672 561 672 532 q 684 596 672 581 q 713 617 696 611 q 741 605 728 613 q 763 582 754 597 q 742 609 757 600 q 709 618 727 618 q 655 600 681 618 q 606 552 628 583 q 564 481 583 521 l 544 492 q 625 608 581 569 q 722 646 669 646 m 476 776 q 410 792 435 776 q 374 834 385 808 q 361 892 363 860 q 365 956 360 924 l 392 956 q 398 899 387 922 q 433 864 409 876 q 490 853 458 853 q 556 864 523 853 q 613 899 588 876 q 644 956 637 922 l 671 956 q 652 892 666 924 q 615 834 639 860 q 558 792 592 808 q 476 776 524 776 z "},"ĝ":{"ha":819,"x_min":-59,"x_max":802,"o":"m 212 -361 q 50 -337 109 -361 q -34 -273 -10 -312 q -59 -188 -59 -233 q -34 -110 -59 -146 q 28 -47 -9 -74 q 104 -4 66 -19 q 169 11 142 11 l 209 11 q 115 -27 153 1 q 57 -97 77 -56 q 38 -187 38 -138 q 77 -292 38 -252 q 199 -331 117 -331 q 351 -313 281 -331 q 474 -261 422 -294 q 557 -183 527 -228 q 586 -87 586 -139 q 559 -29 586 -46 q 490 -12 533 -12 q 448 -12 476 -12 q 385 -12 420 -12 q 316 -12 350 -12 q 256 -12 282 -12 q 221 -12 230 -12 q 114 4 158 -12 q 45 51 69 21 q 22 120 22 81 q 39 182 22 153 q 90 233 57 211 q 166 267 122 255 q 262 279 210 279 l 260 261 q 160 231 195 261 q 124 167 124 200 q 146 117 124 135 q 200 93 168 99 q 263 86 233 86 q 323 86 288 86 q 392 87 358 87 q 445 88 426 88 q 576 57 524 88 q 629 -58 629 26 q 592 -191 629 -134 q 493 -286 555 -248 q 358 -342 432 -324 q 212 -361 285 -361 m 363 222 q 263 245 307 222 q 192 310 218 268 q 167 412 167 353 q 204 533 167 478 q 302 620 241 588 q 433 652 363 652 q 533 628 489 652 q 603 559 578 603 q 629 456 629 515 q 592 337 629 390 q 494 253 555 284 q 363 222 434 222 m 349 249 q 405 266 378 249 q 456 310 433 282 q 498 373 480 338 q 525 446 515 408 q 535 518 535 483 q 514 594 535 564 q 447 625 492 625 q 391 609 418 625 q 340 565 363 592 q 298 502 316 537 q 270 429 281 467 q 260 357 260 392 q 282 280 260 311 q 349 249 303 249 m 722 646 q 780 625 757 646 q 802 569 802 603 q 784 520 802 540 q 738 499 767 499 q 692 516 713 499 q 672 561 672 532 q 684 596 672 581 q 713 617 696 611 q 741 605 728 613 q 763 582 754 597 q 742 609 757 600 q 709 618 727 618 q 655 600 681 618 q 606 552 628 583 q 564 481 583 521 l 544 492 q 625 608 581 569 q 722 646 669 646 m 297 786 l 281 802 l 465 955 l 555 955 l 678 802 l 660 784 l 507 892 l 297 786 z "},"ģ":{"ha":819,"x_min":-59,"x_max":802,"o":"m 212 -361 q 50 -337 109 -361 q -34 -273 -10 -312 q -59 -188 -59 -233 q -34 -110 -59 -146 q 28 -47 -9 -74 q 104 -4 66 -19 q 169 11 142 11 l 209 11 q 115 -27 153 1 q 57 -97 77 -56 q 38 -187 38 -138 q 77 -292 38 -252 q 199 -331 117 -331 q 351 -313 281 -331 q 474 -261 422 -294 q 557 -183 527 -228 q 586 -87 586 -139 q 559 -29 586 -46 q 490 -12 533 -12 q 448 -12 476 -12 q 385 -12 420 -12 q 316 -12 350 -12 q 256 -12 282 -12 q 221 -12 230 -12 q 114 4 158 -12 q 45 51 69 21 q 22 120 22 81 q 39 182 22 153 q 90 233 57 211 q 166 267 122 255 q 262 279 210 279 l 260 261 q 160 231 195 261 q 124 167 124 200 q 146 117 124 135 q 200 93 168 99 q 263 86 233 86 q 323 86 288 86 q 392 87 358 87 q 445 88 426 88 q 576 57 524 88 q 629 -58 629 26 q 592 -191 629 -134 q 493 -286 555 -248 q 358 -342 432 -324 q 212 -361 285 -361 m 363 222 q 263 245 307 222 q 192 310 218 268 q 167 412 167 353 q 204 533 167 478 q 302 620 241 588 q 433 652 363 652 q 533 628 489 652 q 603 559 578 603 q 629 456 629 515 q 592 337 629 390 q 494 253 555 284 q 363 222 434 222 m 349 249 q 405 266 378 249 q 456 310 433 282 q 498 373 480 338 q 525 446 515 408 q 535 518 535 483 q 514 594 535 564 q 447 625 492 625 q 391 609 418 625 q 340 565 363 592 q 298 502 316 537 q 270 429 281 467 q 260 357 260 392 q 282 280 260 311 q 349 249 303 249 m 722 646 q 780 625 757 646 q 802 569 802 603 q 784 520 802 540 q 738 499 767 499 q 692 516 713 499 q 672 561 672 532 q 684 596 672 581 q 713 617 696 611 q 741 605 728 613 q 763 582 754 597 q 742 609 757 600 q 709 618 727 618 q 655 600 681 618 q 606 552 628 583 q 564 481 583 521 l 544 492 q 625 608 581 569 q 722 646 669 646 m 483 774 q 429 795 450 774 q 408 860 408 816 q 425 934 408 897 q 471 1001 442 971 q 536 1050 500 1032 q 609 1068 572 1068 l 609 1045 q 544 1028 576 1045 q 484 982 511 1010 q 443 918 458 953 q 431 847 428 883 l 410 847 q 422 878 410 865 q 451 898 433 891 q 488 906 469 906 q 540 887 524 906 q 557 843 557 869 q 547 809 557 825 q 521 784 538 794 q 483 774 504 774 z "},"ġ":{"ha":819,"x_min":-59,"x_max":802,"o":"m 212 -361 q 50 -337 109 -361 q -34 -273 -10 -312 q -59 -188 -59 -233 q -34 -110 -59 -146 q 28 -47 -9 -74 q 104 -4 66 -19 q 169 11 142 11 l 209 11 q 115 -27 153 1 q 57 -97 77 -56 q 38 -187 38 -138 q 77 -292 38 -252 q 199 -331 117 -331 q 351 -313 281 -331 q 474 -261 422 -294 q 557 -183 527 -228 q 586 -87 586 -139 q 559 -29 586 -46 q 490 -12 533 -12 q 448 -12 476 -12 q 385 -12 420 -12 q 316 -12 350 -12 q 256 -12 282 -12 q 221 -12 230 -12 q 114 4 158 -12 q 45 51 69 21 q 22 120 22 81 q 39 182 22 153 q 90 233 57 211 q 166 267 122 255 q 262 279 210 279 l 260 261 q 160 231 195 261 q 124 167 124 200 q 146 117 124 135 q 200 93 168 99 q 263 86 233 86 q 323 86 288 86 q 392 87 358 87 q 445 88 426 88 q 576 57 524 88 q 629 -58 629 26 q 592 -191 629 -134 q 493 -286 555 -248 q 358 -342 432 -324 q 212 -361 285 -361 m 363 222 q 263 245 307 222 q 192 310 218 268 q 167 412 167 353 q 204 533 167 478 q 302 620 241 588 q 433 652 363 652 q 533 628 489 652 q 603 559 578 603 q 629 456 629 515 q 592 337 629 390 q 494 253 555 284 q 363 222 434 222 m 349 249 q 405 266 378 249 q 456 310 433 282 q 498 373 480 338 q 525 446 515 408 q 535 518 535 483 q 514 594 535 564 q 447 625 492 625 q 391 609 418 625 q 340 565 363 592 q 298 502 316 537 q 270 429 281 467 q 260 357 260 392 q 282 280 260 311 q 349 249 303 249 m 722 646 q 780 625 757 646 q 802 569 802 603 q 784 520 802 540 q 738 499 767 499 q 692 516 713 499 q 672 561 672 532 q 684 596 672 581 q 713 617 696 611 q 741 605 728 613 q 763 582 754 597 q 742 609 757 600 q 709 618 727 618 q 655 600 681 618 q 606 552 628 583 q 564 481 583 521 l 544 492 q 625 608 581 569 q 722 646 669 646 m 519 894 q 478 905 497 894 q 448 936 459 917 q 437 978 437 955 q 448 1020 437 1001 q 478 1050 459 1039 q 519 1061 497 1061 q 561 1050 542 1061 q 592 1020 581 1039 q 603 978 603 1001 q 592 936 603 955 q 561 905 581 917 q 519 894 542 894 z "},"h":{"ha":775,"x_min":24,"x_max":744,"o":"m 24 0 l 296 1015 l 188 1015 l 188 1042 l 417 1042 l 139 0 l 24 0 m 528 -14 q 449 9 479 -14 q 419 71 419 31 q 423 96 419 82 q 431 128 426 110 l 518 428 q 541 526 535 485 q 535 590 547 567 q 489 612 524 612 q 413 576 456 612 q 327 481 370 541 q 247 344 283 420 q 188 185 210 267 l 172 185 q 212 308 186 243 q 272 433 238 372 q 347 544 307 494 q 432 623 388 593 q 522 652 476 652 q 612 623 582 652 q 648 547 642 594 q 636 444 653 500 l 530 73 q 527 61 528 68 q 526 49 526 55 q 553 22 526 22 q 638 68 600 22 q 717 222 676 115 l 744 213 q 684 83 714 133 q 616 9 653 33 q 528 -14 579 -14 z "},"ħ":{"ha":775,"x_min":24,"x_max":744,"o":"m 85 813 l 85 840 l 490 840 l 490 813 l 85 813 m 24 0 l 296 1015 l 188 1015 l 188 1042 l 417 1042 l 139 0 l 24 0 m 528 -14 q 449 9 479 -14 q 419 71 419 31 q 423 96 419 82 q 431 128 426 110 l 518 428 q 541 526 535 485 q 535 590 547 567 q 489 612 524 612 q 413 576 456 612 q 327 481 370 541 q 247 344 283 420 q 188 185 210 267 l 172 185 q 212 308 186 243 q 272 433 238 372 q 347 544 307 494 q 432 623 388 593 q 522 652 476 652 q 612 623 582 652 q 648 547 642 594 q 636 444 653 500 l 530 73 q 527 61 528 68 q 526 49 526 55 q 553 22 526 22 q 638 68 600 22 q 717 222 676 115 l 744 213 q 684 83 714 133 q 616 9 653 33 q 528 -14 579 -14 z "},"ĥ":{"ha":775,"x_min":24,"x_max":794,"o":"m 24 0 l 296 1015 l 188 1015 l 188 1042 l 417 1042 l 139 0 l 24 0 m 528 -14 q 449 9 479 -14 q 419 71 419 31 q 423 96 419 82 q 431 128 426 110 l 518 428 q 541 526 535 485 q 535 590 547 567 q 489 612 524 612 q 413 576 456 612 q 327 481 370 541 q 247 344 283 420 q 188 185 210 267 l 172 185 q 212 308 186 243 q 272 433 238 372 q 347 544 307 494 q 432 623 388 593 q 522 652 476 652 q 612 623 582 652 q 648 547 642 594 q 636 444 653 500 l 530 73 q 527 61 528 68 q 526 49 526 55 q 553 22 526 22 q 638 68 600 22 q 717 222 676 115 l 744 213 q 684 83 714 133 q 616 9 653 33 q 528 -14 579 -14 m 413 1112 l 398 1128 l 581 1281 l 672 1281 l 794 1128 l 777 1110 l 624 1218 l 413 1112 z "},"i":{"ha":401,"x_min":51,"x_max":408,"o":"m 156 -14 q 76 10 101 -14 q 51 74 51 34 q 52 95 51 84 q 57 118 54 107 l 199 612 l 97 612 l 97 639 l 315 639 l 155 72 q 153 61 153 67 q 152 50 152 55 q 158 30 152 38 q 180 21 165 21 q 238 41 211 21 q 289 106 264 62 q 343 222 315 151 l 369 213 q 309 83 340 133 q 243 9 279 33 q 156 -14 206 -14 m 324 881 q 282 893 301 881 q 252 923 263 904 q 241 965 241 942 q 252 1007 241 988 q 282 1038 263 1026 q 324 1049 301 1049 q 366 1038 347 1049 q 396 1007 385 1026 q 408 965 408 988 q 396 923 408 942 q 366 893 385 904 q 324 881 347 881 z "},"ı":{"ha":471,"x_min":73,"x_max":419,"o":"m 175 -14 q 98 11 124 -14 q 73 88 73 35 q 74 102 73 93 q 76 118 74 112 l 187 612 l 94 612 l 94 639 l 319 639 l 188 76 q 185 63 186 69 q 185 51 185 56 q 191 32 185 40 q 210 24 197 24 q 279 53 244 24 q 343 131 313 83 q 392 235 372 179 l 419 226 q 320 54 379 122 q 175 -14 261 -14 z "},"í":{"ha":471,"x_min":73,"x_max":419,"o":"m 175 -14 q 98 11 124 -14 q 73 88 73 35 q 74 102 73 93 q 76 118 74 112 l 187 612 l 94 612 l 94 639 l 319 639 l 188 76 q 185 63 186 69 q 185 51 185 56 q 191 32 185 40 q 210 24 197 24 q 279 53 244 24 q 343 131 313 83 q 392 235 372 179 l 419 226 q 320 54 379 122 q 175 -14 261 -14 m 210 765 l 194 783 l 333 935 q 356 949 344 945 q 378 950 367 952 q 398 942 389 948 q 411 927 406 935 q 417 902 418 916 q 410 877 417 889 q 392 859 403 866 l 210 765 z "},"ĭ":{"ha":471,"x_min":73,"x_max":476,"o":"m 175 -14 q 98 11 124 -14 q 73 88 73 35 q 74 102 73 93 q 76 118 74 112 l 187 612 l 94 612 l 94 639 l 319 639 l 188 76 q 185 63 186 69 q 185 51 185 56 q 191 32 185 40 q 210 24 197 24 q 279 53 244 24 q 343 131 313 83 q 392 235 372 179 l 419 226 q 320 54 379 122 q 175 -14 261 -14 m 281 765 q 215 781 240 765 q 179 823 190 797 q 166 881 167 849 q 170 944 165 913 l 197 944 q 203 888 192 910 q 238 853 214 865 q 295 842 263 842 q 360 853 328 842 q 417 888 393 865 q 449 944 442 910 l 476 944 q 457 881 471 913 q 420 823 444 849 q 363 781 397 797 q 281 765 328 765 z "},"î":{"ha":471,"x_min":73,"x_max":483,"o":"m 175 -14 q 98 11 124 -14 q 73 88 73 35 q 74 102 73 93 q 76 118 74 112 l 187 612 l 94 612 l 94 639 l 319 639 l 188 76 q 185 63 186 69 q 185 51 185 56 q 191 32 185 40 q 210 24 197 24 q 279 53 244 24 q 343 131 313 83 q 392 235 372 179 l 419 226 q 320 54 379 122 q 175 -14 261 -14 m 101 775 l 86 791 l 269 944 l 360 944 l 483 791 l 465 773 l 312 881 l 101 775 z "},"ï":{"ha":471,"x_min":73,"x_max":452,"o":"m 175 -14 q 98 11 124 -14 q 73 88 73 35 q 74 102 73 93 q 76 118 74 112 l 187 612 l 94 612 l 94 639 l 319 639 l 188 76 q 185 63 186 69 q 185 51 185 56 q 191 32 185 40 q 210 24 197 24 q 279 53 244 24 q 343 131 313 83 q 392 235 372 179 l 419 226 q 320 54 379 122 q 175 -14 261 -14 m 386 771 q 339 790 358 771 q 319 838 319 810 q 339 885 319 865 q 386 905 358 905 q 433 885 414 905 q 452 838 452 865 q 433 790 452 810 q 386 771 414 771 m 164 771 q 116 790 136 771 q 97 838 97 810 q 116 885 97 865 q 164 905 136 905 q 211 885 192 905 q 230 838 230 865 q 211 790 230 810 q 164 771 192 771 z "},"ì":{"ha":471,"x_min":73,"x_max":419,"o":"m 175 -14 q 98 11 124 -14 q 73 88 73 35 q 74 102 73 93 q 76 118 74 112 l 187 612 l 94 612 l 94 639 l 319 639 l 188 76 q 185 63 186 69 q 185 51 185 56 q 191 32 185 40 q 210 24 197 24 q 279 53 244 24 q 343 131 313 83 q 392 235 372 179 l 419 226 q 320 54 379 122 q 175 -14 261 -14 m 344 765 l 163 859 q 145 877 151 866 q 138 902 138 889 q 144 927 138 916 q 157 942 149 935 q 177 950 166 948 q 199 949 188 952 q 222 935 210 945 l 361 783 l 344 765 z "},"ī":{"ha":471,"x_min":73,"x_max":419,"o":"m 175 -14 q 98 11 124 -14 q 73 88 73 35 q 74 102 73 93 q 76 118 74 112 l 187 612 l 94 612 l 94 639 l 319 639 l 188 76 q 185 63 186 69 q 185 51 185 56 q 191 32 185 40 q 210 24 197 24 q 279 53 244 24 q 343 131 313 83 q 392 235 372 179 l 419 226 q 320 54 379 122 q 175 -14 261 -14 m 85 778 l 85 805 l 418 805 l 418 778 l 85 778 z "},"į":{"ha":471,"x_min":11,"x_max":419,"o":"m 175 -14 q 98 11 124 -14 q 73 88 73 35 q 74 102 73 93 q 76 118 74 112 l 187 612 l 94 612 l 94 639 l 319 639 l 188 76 q 185 63 186 69 q 185 51 185 56 q 191 32 185 40 q 210 24 197 24 q 279 53 244 24 q 343 131 313 83 q 392 235 372 179 l 419 226 q 320 54 379 122 q 175 -14 261 -14 m 324 883 q 283 894 301 883 q 253 925 264 906 q 242 967 242 944 q 253 1009 242 990 q 283 1039 264 1028 q 324 1050 301 1050 q 366 1039 347 1050 q 397 1009 385 1028 q 408 967 408 990 q 397 925 408 944 q 366 894 385 906 q 324 883 347 883 m 154 -301 q 86 -292 119 -301 q 32 -260 53 -283 q 11 -196 11 -237 q 35 -119 11 -154 q 97 -58 60 -85 q 175 -12 135 -31 q 247 16 215 6 l 255 5 q 204 -34 231 -9 q 159 -95 177 -59 q 140 -178 140 -131 q 158 -240 140 -220 q 200 -260 175 -260 q 241 -249 223 -260 q 271 -223 258 -239 q 292 -190 284 -206 l 314 -200 q 285 -243 304 -219 q 235 -284 267 -267 q 154 -301 203 -301 z "},"ĩ":{"ha":471,"x_min":53,"x_max":590,"o":"m 175 -14 q 98 11 124 -14 q 73 88 73 35 q 74 102 73 93 q 76 118 74 112 l 187 612 l 94 612 l 94 639 l 319 639 l 188 76 q 185 63 186 69 q 185 51 185 56 q 191 32 185 40 q 210 24 197 24 q 279 53 244 24 q 343 131 313 83 q 392 235 372 179 l 419 226 q 320 54 379 122 q 175 -14 261 -14 m 423 764 q 350 781 381 764 q 293 819 319 797 q 242 857 267 840 q 188 874 217 874 q 124 851 148 874 q 81 778 101 828 l 53 778 q 98 876 67 837 q 165 935 128 915 q 235 954 201 954 q 303 938 274 954 q 358 899 333 921 q 406 861 383 878 q 456 844 430 844 q 520 868 496 844 q 563 940 544 892 l 590 940 q 550 836 576 875 q 490 781 524 797 q 423 764 457 764 z "},"ĳ":{"ha":762,"x_min":28,"x_max":712,"o":"m 156 -14 q 76 10 101 -14 q 51 74 51 34 q 52 95 51 84 q 57 118 54 107 l 199 612 l 97 612 l 97 639 l 315 639 l 155 72 q 153 61 153 67 q 152 50 152 55 q 158 30 152 38 q 180 21 165 21 q 238 41 211 21 q 289 106 264 62 q 343 222 315 151 l 369 213 q 309 83 340 133 q 243 9 279 33 q 156 -14 206 -14 m 324 881 q 282 893 301 881 q 252 923 263 904 q 241 965 241 942 q 252 1007 241 988 q 282 1038 263 1026 q 324 1049 301 1049 q 366 1038 347 1049 q 396 1007 385 1026 q 408 965 408 988 q 396 923 408 942 q 366 893 385 904 q 324 881 347 881 m 164 -361 q 100 -350 132 -361 q 48 -316 69 -338 q 28 -262 28 -294 q 38 -220 28 -237 q 64 -194 48 -203 q 100 -186 81 -186 q 152 -205 131 -186 q 172 -254 172 -223 q 155 -302 172 -281 q 103 -323 138 -323 q 51 -305 73 -323 q 29 -262 29 -287 l 56 -262 q 71 -297 56 -281 q 112 -325 87 -314 q 167 -335 138 -335 q 248 -300 216 -335 q 303 -203 281 -265 q 345 -60 326 -141 l 510 612 l 418 612 l 418 639 l 631 639 l 463 -16 q 419 -143 446 -81 q 354 -254 392 -205 q 269 -332 316 -303 q 164 -361 222 -361 m 629 888 q 570 913 595 888 q 546 972 546 938 q 570 1031 546 1007 q 629 1056 595 1056 q 688 1031 664 1056 q 712 972 712 1007 q 688 913 712 938 q 629 888 664 888 z "},"j":{"ha":354,"x_min":-292,"x_max":392,"o":"m -156 -361 q -219 -350 -187 -361 q -271 -316 -251 -338 q -292 -262 -292 -294 q -282 -220 -292 -237 q -255 -194 -272 -203 q -219 -186 -239 -186 q -168 -205 -188 -186 q -147 -254 -147 -223 q -165 -302 -147 -281 q -217 -323 -182 -323 q -268 -305 -247 -323 q -290 -262 -290 -287 l -264 -262 q -248 -297 -264 -281 q -207 -325 -233 -314 q -152 -335 -182 -335 q -71 -300 -103 -335 q -16 -203 -39 -265 q 26 -60 6 -141 l 191 612 l 99 612 l 99 639 l 311 639 l 143 -16 q 99 -143 126 -81 q 34 -254 72 -205 q -51 -332 -3 -303 q -156 -361 -98 -361 m 310 888 q 251 913 276 888 q 226 972 226 938 q 251 1031 226 1007 q 310 1056 276 1056 q 368 1031 344 1056 q 392 972 392 1007 q 368 913 392 938 q 310 888 344 888 z "},"ȷ":{"ha":442,"x_min":-233,"x_max":334,"o":"m -76 -361 q -166 -340 -132 -361 q -217 -285 -201 -319 q -233 -217 -233 -252 q -222 -167 -233 -188 q -192 -135 -210 -147 q -153 -124 -174 -124 q -118 -131 -136 -124 q -89 -155 -101 -138 q -76 -199 -76 -171 q -85 -234 -76 -216 q -111 -263 -94 -251 q -151 -274 -127 -274 q -189 -268 -171 -274 q -219 -250 -208 -262 q -231 -217 -231 -237 l -205 -217 q -192 -275 -205 -248 q -152 -319 -179 -302 q -80 -335 -124 -335 q -4 -303 -33 -335 q 43 -218 25 -271 q 72 -100 60 -165 q 95 28 83 -36 l 207 612 l 78 612 l 78 639 l 334 639 l 206 -16 q 173 -143 193 -81 q 120 -254 152 -205 q 40 -332 88 -303 q -76 -361 -8 -361 z "},"ĵ":{"ha":442,"x_min":-233,"x_max":526,"o":"m -76 -361 q -166 -340 -132 -361 q -217 -285 -201 -319 q -233 -217 -233 -252 q -222 -167 -233 -188 q -192 -135 -210 -147 q -153 -124 -174 -124 q -118 -131 -136 -124 q -89 -155 -101 -138 q -76 -199 -76 -171 q -85 -234 -76 -216 q -111 -263 -94 -251 q -151 -274 -127 -274 q -189 -268 -171 -274 q -219 -250 -208 -262 q -231 -217 -231 -237 l -205 -217 q -192 -275 -205 -248 q -152 -319 -179 -302 q -80 -335 -124 -335 q -4 -303 -33 -335 q 43 -218 25 -271 q 72 -100 60 -165 q 95 28 83 -36 l 207 612 l 78 612 l 78 639 l 334 639 l 206 -16 q 173 -143 193 -81 q 120 -254 152 -205 q 40 -332 88 -303 q -76 -361 -8 -361 m 145 775 l 130 791 l 313 944 l 403 944 l 526 791 l 509 773 l 356 881 l 145 775 z "},"k":{"ha":702,"x_min":24,"x_max":677,"o":"m 24 0 l 297 1015 l 174 1015 l 174 1042 l 417 1042 l 131 0 l 24 0 m 446 -14 q 373 11 397 -14 q 349 81 349 36 q 350 99 349 89 q 353 118 351 109 l 372 194 q 386 252 378 219 q 396 316 394 285 q 384 367 398 347 q 332 388 371 388 q 257 366 283 388 q 221 316 232 345 q 203 264 210 288 l 187 264 q 226 359 202 328 q 278 400 249 390 q 338 410 307 410 q 407 396 377 410 q 454 354 436 383 q 477 281 472 325 q 472 175 482 237 l 449 63 q 448 53 449 58 q 448 47 448 49 q 476 23 448 23 q 535 45 506 23 q 594 113 565 67 q 651 228 623 158 l 677 219 q 578 44 633 101 q 446 -14 524 -14 m 281 310 q 246 316 263 310 q 219 330 228 322 l 229 356 q 250 342 237 347 q 281 337 263 337 q 332 360 309 337 q 374 422 354 384 q 411 502 393 460 q 481 613 442 573 q 577 652 520 652 q 629 640 607 652 q 664 604 651 627 q 677 551 677 581 q 656 495 677 515 q 609 475 635 475 q 564 492 583 475 q 544 540 544 509 q 562 585 544 567 q 605 602 581 602 q 634 597 618 602 q 663 580 651 591 q 676 551 676 568 l 649 551 q 641 590 649 573 q 616 617 633 608 q 576 627 600 627 q 500 594 533 627 q 440 497 466 561 q 398 408 421 451 q 347 338 376 365 q 281 310 319 310 z "},"ķ":{"ha":702,"x_min":24,"x_max":677,"o":"m 24 0 l 297 1015 l 174 1015 l 174 1042 l 417 1042 l 131 0 l 24 0 m 446 -14 q 373 11 397 -14 q 349 81 349 36 q 350 99 349 89 q 353 118 351 109 l 372 194 q 386 252 378 219 q 396 316 394 285 q 384 367 398 347 q 332 388 371 388 q 257 366 283 388 q 221 316 232 345 q 203 264 210 288 l 187 264 q 226 359 202 328 q 278 400 249 390 q 338 410 307 410 q 407 396 377 410 q 454 354 436 383 q 477 281 472 325 q 472 175 482 237 l 449 63 q 448 53 449 58 q 448 47 448 49 q 476 23 448 23 q 535 45 506 23 q 594 113 565 67 q 651 228 623 158 l 677 219 q 578 44 633 101 q 446 -14 524 -14 m 281 310 q 246 316 263 310 q 219 330 228 322 l 229 356 q 250 342 237 347 q 281 337 263 337 q 332 360 309 337 q 374 422 354 384 q 411 502 393 460 q 481 613 442 573 q 577 652 520 652 q 629 640 607 652 q 664 604 651 627 q 677 551 677 581 q 656 495 677 515 q 609 475 635 475 q 564 492 583 475 q 544 540 544 509 q 562 585 544 567 q 605 602 581 602 q 634 597 618 602 q 663 580 651 591 q 676 551 676 568 l 649 551 q 641 590 649 573 q 616 617 633 608 q 576 627 600 627 q 500 594 533 627 q 440 497 466 561 q 398 408 421 451 q 347 338 376 365 q 281 310 319 310 m 152 -433 l 152 -410 q 217 -392 185 -410 q 277 -346 250 -375 q 318 -282 303 -317 q 329 -212 333 -247 l 351 -212 q 340 -242 351 -229 q 310 -263 328 -256 q 274 -270 292 -270 q 221 -252 238 -270 q 204 -208 204 -233 q 214 -174 204 -190 q 241 -149 224 -158 q 278 -139 258 -139 q 332 -160 311 -139 q 353 -224 353 -181 q 336 -299 353 -262 q 290 -366 319 -335 q 225 -415 261 -397 q 152 -433 190 -433 z "},"ĸ":{"ha":776,"x_min":66,"x_max":744,"o":"m 66 0 l 205 606 l 89 606 l 89 639 l 341 639 l 190 0 l 66 0 m 499 -14 q 425 11 450 -14 q 401 88 401 35 q 401 102 401 93 q 403 118 402 112 l 419 194 q 435 258 426 224 q 447 321 444 291 q 435 369 449 351 q 383 388 422 388 q 308 366 334 388 q 270 316 281 345 q 252 264 258 288 l 228 264 q 271 360 244 328 q 330 402 298 392 q 394 413 363 413 q 462 400 430 413 q 516 358 494 387 q 543 283 538 330 q 533 168 549 236 l 508 59 q 507 47 507 53 q 535 24 507 24 q 601 51 567 24 q 665 126 635 78 q 718 235 695 174 l 744 226 q 641 49 700 112 q 499 -14 582 -14 m 333 310 q 298 316 315 310 q 270 330 280 322 l 281 356 q 302 342 289 347 q 333 337 315 337 q 381 360 361 337 q 417 420 401 383 q 452 502 434 458 q 520 613 482 574 q 615 652 558 652 q 658 644 638 652 q 691 621 677 636 q 714 585 706 606 q 722 536 722 563 q 699 476 722 496 q 650 457 676 457 q 617 465 633 457 q 591 488 601 473 q 581 526 581 503 q 601 574 581 556 q 651 592 622 592 q 679 586 663 592 q 708 568 695 580 q 720 536 720 556 l 694 536 q 689 574 694 557 q 674 602 683 590 q 650 619 664 613 q 617 626 635 626 q 541 595 574 626 q 481 497 508 565 q 442 407 462 449 q 396 337 422 364 q 333 310 370 310 z "},"l":{"ha":406,"x_min":38,"x_max":403,"o":"m 145 -14 q 65 10 91 -14 q 38 74 38 35 q 40 98 38 88 q 44 118 42 109 l 286 1015 l 156 1015 l 156 1042 l 403 1042 l 142 72 q 140 59 141 66 q 140 48 140 53 q 167 21 140 21 q 224 42 198 21 q 277 107 251 63 q 331 222 303 151 l 357 213 q 297 83 327 133 q 231 9 267 33 q 145 -14 194 -14 z "},"ĺ":{"ha":406,"x_min":38,"x_max":451,"o":"m 145 -14 q 65 10 91 -14 q 38 74 38 35 q 40 98 38 88 q 44 118 42 109 l 286 1015 l 156 1015 l 156 1042 l 403 1042 l 142 72 q 140 59 141 66 q 140 48 140 53 q 167 21 140 21 q 224 42 198 21 q 277 107 251 63 q 331 222 303 151 l 357 213 q 297 83 327 133 q 231 9 267 33 q 145 -14 194 -14 m 243 1167 l 226 1185 l 366 1338 q 389 1351 377 1348 q 411 1353 400 1355 q 430 1344 422 1351 q 444 1330 439 1338 q 450 1305 451 1319 q 443 1280 449 1292 q 425 1262 436 1269 l 243 1167 z "},"ľ":{"ha":406,"x_min":38,"x_max":667,"o":"m 145 -14 q 65 10 91 -14 q 38 74 38 35 q 40 98 38 88 q 44 118 42 109 l 286 1015 l 156 1015 l 156 1042 l 403 1042 l 142 72 q 140 59 141 66 q 140 48 140 53 q 167 21 140 21 q 224 42 198 21 q 277 107 251 63 q 331 222 303 151 l 357 213 q 297 83 327 133 q 231 9 267 33 q 145 -14 194 -14 m 416 689 l 416 717 q 498 738 457 717 q 572 796 538 760 q 624 876 606 832 q 638 964 642 919 l 665 964 q 650 927 665 943 q 614 901 636 910 q 568 892 592 892 q 502 915 524 892 q 481 969 481 938 q 493 1012 481 992 q 527 1044 506 1032 q 574 1056 548 1056 q 641 1030 615 1056 q 667 949 667 1003 q 646 856 667 902 q 589 772 624 810 q 508 711 553 734 q 416 689 463 689 z "},"ļ":{"ha":406,"x_min":-22,"x_max":403,"o":"m 145 -14 q 65 10 91 -14 q 38 74 38 35 q 40 98 38 88 q 44 118 42 109 l 286 1015 l 156 1015 l 156 1042 l 403 1042 l 142 72 q 140 59 141 66 q 140 48 140 53 q 167 21 140 21 q 224 42 198 21 q 277 107 251 63 q 331 222 303 151 l 357 213 q 297 83 327 133 q 231 9 267 33 q 145 -14 194 -14 m -22 -433 l -22 -410 q 44 -392 11 -410 q 103 -346 76 -375 q 144 -282 130 -317 q 156 -212 159 -247 l 178 -212 q 166 -242 178 -229 q 137 -263 155 -256 q 100 -270 119 -270 q 47 -252 64 -270 q 31 -208 31 -233 q 40 -174 31 -190 q 67 -149 50 -158 q 105 -139 84 -139 q 158 -160 138 -139 q 179 -224 179 -181 q 162 -299 179 -262 q 116 -366 145 -335 q 52 -415 88 -397 q -22 -433 16 -433 z "},"ŀ":{"ha":406,"x_min":38,"x_max":525,"o":"m 145 -14 q 65 10 91 -14 q 38 74 38 35 q 40 98 38 88 q 44 118 42 109 l 286 1015 l 156 1015 l 156 1042 l 403 1042 l 142 72 q 140 59 141 66 q 140 48 140 53 q 167 21 140 21 q 224 42 198 21 q 277 107 251 63 q 331 222 303 151 l 357 213 q 297 83 327 133 q 231 9 267 33 q 145 -14 194 -14 m 442 467 q 400 478 419 467 q 370 509 381 490 q 358 551 358 528 q 370 593 358 574 q 400 623 381 612 q 442 635 419 635 q 484 623 465 635 q 514 593 503 612 q 525 551 525 574 q 514 509 525 528 q 484 478 503 490 q 442 467 465 467 z "},"ł":{"ha":406,"x_min":38,"x_max":447,"o":"m 51 523 l 51 556 l 447 806 l 447 773 l 51 523 m 145 -14 q 65 10 91 -14 q 38 74 38 35 q 40 98 38 88 q 44 118 42 109 l 286 1015 l 156 1015 l 156 1042 l 403 1042 l 142 72 q 140 59 141 66 q 140 48 140 53 q 167 21 140 21 q 224 42 198 21 q 277 107 251 63 q 331 222 303 151 l 357 213 q 297 83 327 133 q 231 9 267 33 q 145 -14 194 -14 z "},"m":{"ha":1141,"x_min":38,"x_max":1094,"o":"m 878 -14 q 800 11 824 -14 q 776 75 776 35 q 780 104 776 90 q 785 128 783 117 l 873 428 q 899 567 899 519 q 855 615 898 615 q 772 578 815 615 q 688 480 728 542 q 615 341 647 418 q 562 185 582 265 l 542 185 q 595 346 562 264 q 672 498 628 428 q 767 610 715 567 q 878 652 819 652 q 969 623 940 652 q 1002 547 999 594 q 988 444 1005 500 l 881 74 q 878 60 879 67 q 877 47 877 53 q 884 29 877 36 q 905 22 892 22 q 961 42 935 22 q 1014 106 988 62 q 1068 222 1040 150 l 1094 213 q 1034 83 1065 133 q 967 9 1004 33 q 878 -14 930 -14 m 38 0 l 184 612 l 94 612 l 94 639 l 302 639 l 149 0 l 38 0 m 406 0 l 510 428 q 534 568 533 520 q 492 615 535 615 q 408 578 452 615 q 322 480 364 542 q 247 341 281 418 q 193 185 213 265 l 173 185 q 227 346 193 264 q 307 498 262 428 q 407 610 353 567 q 520 652 461 652 q 605 623 577 652 q 636 547 632 594 q 626 444 640 500 l 517 0 l 406 0 z "},"n":{"ha":793,"x_min":29,"x_max":741,"o":"m 525 -14 q 444 7 471 -14 q 417 72 417 28 q 420 101 417 86 q 426 124 423 115 l 522 428 q 544 523 539 481 q 538 588 550 565 q 490 612 526 612 q 415 576 457 612 q 329 478 372 540 q 250 341 286 417 q 192 185 213 265 l 172 185 q 214 307 188 242 q 274 432 240 371 q 349 543 309 493 q 433 623 390 593 q 522 652 477 652 q 614 623 582 652 q 651 547 645 594 q 640 444 658 499 l 528 73 q 525 60 526 67 q 524 48 524 53 q 530 29 524 37 q 550 22 535 22 q 636 68 599 22 q 715 222 673 115 l 741 213 q 681 83 711 133 q 614 9 651 33 q 525 -14 576 -14 m 29 0 l 190 612 l 97 612 l 97 639 l 310 639 l 144 0 l 29 0 z "},"ń":{"ha":793,"x_min":29,"x_max":741,"o":"m 525 -14 q 444 7 471 -14 q 417 72 417 28 q 420 101 417 86 q 426 124 423 115 l 522 428 q 544 523 539 481 q 538 588 550 565 q 490 612 526 612 q 415 576 457 612 q 329 478 372 540 q 250 341 286 417 q 192 185 213 265 l 172 185 q 214 307 188 242 q 274 432 240 371 q 349 543 309 493 q 433 623 390 593 q 522 652 477 652 q 614 623 582 652 q 651 547 645 594 q 640 444 658 499 l 528 73 q 525 60 526 67 q 524 48 524 53 q 530 29 524 37 q 550 22 535 22 q 636 68 599 22 q 715 222 673 115 l 741 213 q 681 83 711 133 q 614 9 651 33 q 525 -14 576 -14 m 29 0 l 190 612 l 97 612 l 97 639 l 310 639 l 144 0 l 29 0 m 393 765 l 376 783 l 516 935 q 539 949 527 945 q 561 950 550 952 q 580 942 572 948 q 594 927 589 935 q 600 902 601 916 q 593 877 599 889 q 575 859 586 866 l 393 765 z "},"ŉ":{"ha":1038,"x_min":80,"x_max":928,"o":"m 713 -14 q 631 7 658 -14 q 604 72 604 28 q 607 101 604 86 q 613 124 610 115 l 709 428 q 732 523 726 481 q 725 588 738 565 q 677 612 713 612 q 602 576 644 612 q 517 478 560 540 q 437 341 474 417 q 379 185 401 265 l 360 185 q 401 307 375 242 q 462 432 427 371 q 537 543 497 493 q 621 623 577 593 q 709 652 665 652 q 801 623 769 652 q 839 547 833 594 q 828 444 845 499 l 715 73 q 712 60 713 67 q 711 48 711 53 q 717 29 711 37 q 738 22 723 22 q 823 68 786 22 q 903 222 860 115 l 928 213 q 868 83 899 133 q 801 9 838 33 q 713 -14 764 -14 m 217 0 l 377 612 l 285 612 l 285 639 l 498 639 l 331 0 l 217 0 m 80 644 l 80 672 q 161 694 121 672 q 236 751 202 715 q 288 831 269 788 q 302 919 306 875 l 328 919 q 314 882 328 899 q 278 857 300 866 q 232 847 256 847 q 166 870 188 847 q 145 925 145 893 q 157 968 145 948 q 191 999 169 988 q 238 1011 212 1011 q 286 1000 265 1011 q 319 965 308 988 q 331 904 331 941 q 310 811 331 858 q 252 727 288 765 q 172 667 217 690 q 80 644 127 644 z "},"ň":{"ha":793,"x_min":29,"x_max":741,"o":"m 525 -14 q 444 7 471 -14 q 417 72 417 28 q 420 101 417 86 q 426 124 423 115 l 522 428 q 544 523 539 481 q 538 588 550 565 q 490 612 526 612 q 415 576 457 612 q 329 478 372 540 q 250 341 286 417 q 192 185 213 265 l 172 185 q 214 307 188 242 q 274 432 240 371 q 349 543 309 493 q 433 623 390 593 q 522 652 477 652 q 614 623 582 652 q 651 547 645 594 q 640 444 658 499 l 528 73 q 525 60 526 67 q 524 48 524 53 q 530 29 524 37 q 550 22 535 22 q 636 68 599 22 q 715 222 673 115 l 741 213 q 681 83 711 133 q 614 9 651 33 q 525 -14 576 -14 m 29 0 l 190 612 l 97 612 l 97 639 l 310 639 l 144 0 l 29 0 m 425 778 l 302 931 l 321 949 l 473 840 l 682 947 l 698 931 l 514 778 l 425 778 z "},"ņ":{"ha":793,"x_min":29,"x_max":741,"o":"m 525 -14 q 444 7 471 -14 q 417 72 417 28 q 420 101 417 86 q 426 124 423 115 l 522 428 q 544 523 539 481 q 538 588 550 565 q 490 612 526 612 q 415 576 457 612 q 329 478 372 540 q 250 341 286 417 q 192 185 213 265 l 172 185 q 214 307 188 242 q 274 432 240 371 q 349 543 309 493 q 433 623 390 593 q 522 652 477 652 q 614 623 582 652 q 651 547 645 594 q 640 444 658 499 l 528 73 q 525 60 526 67 q 524 48 524 53 q 530 29 524 37 q 550 22 535 22 q 636 68 599 22 q 715 222 673 115 l 741 213 q 681 83 711 133 q 614 9 651 33 q 525 -14 576 -14 m 29 0 l 190 612 l 97 612 l 97 639 l 310 639 l 144 0 l 29 0 m 173 -433 l 173 -410 q 238 -392 206 -410 q 298 -346 271 -375 q 339 -282 324 -317 q 350 -212 353 -247 l 372 -212 q 361 -242 372 -229 q 331 -263 349 -256 q 294 -270 313 -270 q 242 -252 258 -270 q 225 -208 225 -233 q 235 -174 225 -190 q 261 -149 244 -158 q 299 -139 278 -139 q 353 -160 332 -139 q 374 -224 374 -181 q 357 -299 374 -262 q 311 -366 340 -335 q 246 -415 282 -397 q 173 -433 210 -433 z "},"ñ":{"ha":793,"x_min":29,"x_max":773,"o":"m 525 -14 q 444 7 471 -14 q 417 72 417 28 q 420 101 417 86 q 426 124 423 115 l 522 428 q 544 523 539 481 q 538 588 550 565 q 490 612 526 612 q 415 576 457 612 q 329 478 372 540 q 250 341 286 417 q 192 185 213 265 l 172 185 q 214 307 188 242 q 274 432 240 371 q 349 543 309 493 q 433 623 390 593 q 522 652 477 652 q 614 623 582 652 q 651 547 645 594 q 640 444 658 499 l 528 73 q 525 60 526 67 q 524 48 524 53 q 530 29 524 37 q 550 22 535 22 q 636 68 599 22 q 715 222 673 115 l 741 213 q 681 83 711 133 q 614 9 651 33 q 525 -14 576 -14 m 29 0 l 190 612 l 97 612 l 97 639 l 310 639 l 144 0 l 29 0 m 606 764 q 533 781 564 764 q 476 819 501 797 q 425 857 450 840 q 370 874 400 874 q 307 851 331 874 q 264 778 283 828 l 236 778 q 280 876 250 837 q 347 935 310 915 q 418 954 384 954 q 486 938 456 954 q 540 899 515 921 q 589 861 565 878 q 639 844 613 844 q 703 868 678 844 q 745 940 727 892 l 773 940 q 733 836 759 875 q 673 781 706 797 q 606 764 640 764 z "},"ŋ":{"ha":849,"x_min":-89,"x_max":674,"o":"m 256 -361 q 166 -340 199 -361 q 122 -283 133 -318 q 119 -210 110 -249 q 142 -162 126 -181 q 177 -133 157 -143 q 219 -124 198 -124 q 267 -140 245 -124 q 278 -199 288 -157 q 247 -250 272 -225 q 187 -274 222 -274 q 150 -267 167 -274 q 125 -245 133 -259 q 121 -210 116 -231 l 147 -210 q 149 -271 140 -242 q 186 -318 159 -300 q 258 -335 213 -335 q 333 -304 305 -335 q 380 -220 362 -272 q 410 -103 397 -167 q 438 28 423 -38 l 528 418 l 660 444 l 553 -16 q 514 -145 538 -83 q 456 -256 491 -208 q 373 -333 422 -305 q 256 -361 324 -361 m -89 0 l -83 27 l 229 27 l 223 0 l -89 0 m 8 0 l 150 612 l 53 612 l 58 639 l 274 639 l 127 0 l 8 0 m 182 313 q 222 414 192 356 q 297 525 251 471 q 399 616 342 580 q 520 652 456 652 q 634 625 600 652 q 671 551 668 599 q 660 444 674 504 l 528 418 q 545 520 542 476 q 534 588 548 564 q 483 612 521 612 q 392 582 438 612 q 306 506 346 552 q 238 408 266 460 q 199 313 210 357 l 182 313 z "},"o":{"ha":676,"x_min":45,"x_max":624,"o":"m 251 -14 q 96 50 147 -14 q 45 208 45 114 q 75 379 45 299 q 158 521 106 460 q 277 618 210 583 q 417 653 344 653 q 573 589 523 653 q 624 431 624 524 q 593 259 624 340 q 511 117 563 178 q 392 21 459 56 q 251 -14 325 -14 m 244 13 q 318 35 283 13 q 385 97 353 58 q 443 186 417 135 q 488 292 469 236 q 517 406 507 349 q 528 514 528 463 q 503 595 528 565 q 424 625 478 625 q 351 603 387 625 q 284 542 315 581 q 226 452 252 503 q 181 346 200 402 q 151 233 162 290 q 141 124 141 176 q 166 43 141 74 q 244 13 192 13 z "},"ó":{"ha":676,"x_min":45,"x_max":624,"o":"m 251 -14 q 96 50 147 -14 q 45 208 45 114 q 75 379 45 299 q 158 521 106 460 q 277 618 210 583 q 417 653 344 653 q 573 589 523 653 q 624 431 624 524 q 593 259 624 340 q 511 117 563 178 q 392 21 459 56 q 251 -14 325 -14 m 244 13 q 318 35 283 13 q 385 97 353 58 q 443 186 417 135 q 488 292 469 236 q 517 406 507 349 q 528 514 528 463 q 503 595 528 565 q 424 625 478 625 q 351 603 387 625 q 284 542 315 581 q 226 452 252 503 q 181 346 200 402 q 151 233 162 290 q 141 124 141 176 q 166 43 141 74 q 244 13 192 13 m 370 765 l 353 783 l 493 935 q 516 949 504 945 q 538 950 527 952 q 557 942 549 948 q 571 927 566 935 q 577 902 578 916 q 570 877 576 889 q 552 859 563 866 l 370 765 z "},"ŏ":{"ha":676,"x_min":45,"x_max":636,"o":"m 251 -14 q 96 50 147 -14 q 45 208 45 114 q 75 379 45 299 q 158 521 106 460 q 277 618 210 583 q 417 653 344 653 q 573 589 523 653 q 624 431 624 524 q 593 259 624 340 q 511 117 563 178 q 392 21 459 56 q 251 -14 325 -14 m 244 13 q 318 35 283 13 q 385 97 353 58 q 443 186 417 135 q 488 292 469 236 q 517 406 507 349 q 528 514 528 463 q 503 595 528 565 q 424 625 478 625 q 351 603 387 625 q 284 542 315 581 q 226 452 252 503 q 181 346 200 402 q 151 233 162 290 q 141 124 141 176 q 166 43 141 74 q 244 13 192 13 m 442 765 q 375 781 400 765 q 339 823 351 797 q 327 881 328 849 q 331 944 326 913 l 358 944 q 363 888 352 910 q 399 853 374 865 q 456 842 423 842 q 521 853 488 842 q 578 888 553 865 q 609 944 602 910 l 636 944 q 618 881 631 913 q 581 823 604 849 q 523 781 557 797 q 442 765 489 765 z "},"ô":{"ha":676,"x_min":45,"x_max":643,"o":"m 251 -14 q 96 50 147 -14 q 45 208 45 114 q 75 379 45 299 q 158 521 106 460 q 277 618 210 583 q 417 653 344 653 q 573 589 523 653 q 624 431 624 524 q 593 259 624 340 q 511 117 563 178 q 392 21 459 56 q 251 -14 325 -14 m 244 13 q 318 35 283 13 q 385 97 353 58 q 443 186 417 135 q 488 292 469 236 q 517 406 507 349 q 528 514 528 463 q 503 595 528 565 q 424 625 478 625 q 351 603 387 625 q 284 542 315 581 q 226 452 252 503 q 181 346 200 402 q 151 233 162 290 q 141 124 141 176 q 166 43 141 74 q 244 13 192 13 m 262 775 l 247 791 l 430 944 l 520 944 l 643 791 l 626 773 l 472 881 l 262 775 z "},"ö":{"ha":676,"x_min":45,"x_max":624,"o":"m 251 -14 q 96 50 147 -14 q 45 208 45 114 q 75 379 45 299 q 158 521 106 460 q 277 618 210 583 q 417 653 344 653 q 573 589 523 653 q 624 431 624 524 q 593 259 624 340 q 511 117 563 178 q 392 21 459 56 q 251 -14 325 -14 m 244 13 q 318 35 283 13 q 385 97 353 58 q 443 186 417 135 q 488 292 469 236 q 517 406 507 349 q 528 514 528 463 q 503 595 528 565 q 424 625 478 625 q 351 603 387 625 q 284 542 315 581 q 226 452 252 503 q 181 346 200 402 q 151 233 162 290 q 141 124 141 176 q 166 43 141 74 q 244 13 192 13 m 547 771 q 499 790 519 771 q 479 838 479 810 q 499 885 479 865 q 547 905 519 905 q 593 885 574 905 q 613 838 613 865 q 593 790 613 810 q 547 771 574 771 m 324 771 q 277 790 297 771 q 257 838 257 810 q 277 885 257 865 q 324 905 297 905 q 371 885 352 905 q 390 838 390 865 q 371 790 390 810 q 324 771 352 771 z "},"ò":{"ha":676,"x_min":45,"x_max":624,"o":"m 251 -14 q 96 50 147 -14 q 45 208 45 114 q 75 379 45 299 q 158 521 106 460 q 277 618 210 583 q 417 653 344 653 q 573 589 523 653 q 624 431 624 524 q 593 259 624 340 q 511 117 563 178 q 392 21 459 56 q 251 -14 325 -14 m 244 13 q 318 35 283 13 q 385 97 353 58 q 443 186 417 135 q 488 292 469 236 q 517 406 507 349 q 528 514 528 463 q 503 595 528 565 q 424 625 478 625 q 351 603 387 625 q 284 542 315 581 q 226 452 252 503 q 181 346 200 402 q 151 233 162 290 q 141 124 141 176 q 166 43 141 74 q 244 13 192 13 m 504 765 l 322 859 q 305 877 311 866 q 298 902 298 889 q 303 927 297 916 q 317 942 308 935 q 336 950 326 948 q 359 949 347 952 q 381 935 370 945 l 521 783 l 504 765 z "},"ő":{"ha":676,"x_min":45,"x_max":724,"o":"m 251 -14 q 96 50 147 -14 q 45 208 45 114 q 75 379 45 299 q 158 521 106 460 q 277 618 210 583 q 417 653 344 653 q 573 589 523 653 q 624 431 624 524 q 593 259 624 340 q 511 117 563 178 q 392 21 459 56 q 251 -14 325 -14 m 244 13 q 318 35 283 13 q 385 97 353 58 q 443 186 417 135 q 488 292 469 236 q 517 406 507 349 q 528 514 528 463 q 503 595 528 565 q 424 625 478 625 q 351 603 387 625 q 284 542 315 581 q 226 452 252 503 q 181 346 200 402 q 151 233 162 290 q 141 124 141 176 q 166 43 141 74 q 244 13 192 13 m 516 765 l 499 783 l 639 935 q 661 949 650 945 q 684 950 673 952 q 703 942 694 948 q 717 927 712 935 q 723 902 724 916 q 716 877 722 889 q 698 859 709 866 l 516 765 m 231 765 l 215 783 l 354 935 q 377 949 365 945 q 399 950 388 952 q 418 942 410 948 q 432 927 427 935 q 438 902 439 916 q 431 877 438 889 q 413 859 424 866 l 231 765 z "},"ō":{"ha":676,"x_min":45,"x_max":624,"o":"m 251 -14 q 96 50 147 -14 q 45 208 45 114 q 75 379 45 299 q 158 521 106 460 q 277 618 210 583 q 417 653 344 653 q 573 589 523 653 q 624 431 624 524 q 593 259 624 340 q 511 117 563 178 q 392 21 459 56 q 251 -14 325 -14 m 244 13 q 318 35 283 13 q 385 97 353 58 q 443 186 417 135 q 488 292 469 236 q 517 406 507 349 q 528 514 528 463 q 503 595 528 565 q 424 625 478 625 q 351 603 387 625 q 284 542 315 581 q 226 452 252 503 q 181 346 200 402 q 151 233 162 290 q 141 124 141 176 q 166 43 141 74 q 244 13 192 13 m 245 778 l 245 805 l 578 805 l 578 778 l 245 778 z "},"ø":{"ha":676,"x_min":-87,"x_max":816,"o":"m -87 -171 l 781 804 l 816 804 l -51 -171 l -87 -171 m 251 -14 q 96 50 147 -14 q 45 208 45 114 q 75 379 45 299 q 158 521 106 460 q 277 618 210 583 q 417 653 344 653 q 573 589 523 653 q 624 431 624 524 q 593 259 624 340 q 511 117 563 178 q 392 21 459 56 q 251 -14 325 -14 m 244 13 q 318 35 283 13 q 385 97 353 58 q 443 186 417 135 q 488 292 469 236 q 517 406 507 349 q 528 514 528 463 q 503 595 528 565 q 424 625 478 625 q 351 603 387 625 q 284 542 315 581 q 226 452 252 503 q 181 346 200 402 q 151 233 162 290 q 141 124 141 176 q 166 43 141 74 q 244 13 192 13 z "},"õ":{"ha":676,"x_min":45,"x_max":751,"o":"m 251 -14 q 96 50 147 -14 q 45 208 45 114 q 75 379 45 299 q 158 521 106 460 q 277 618 210 583 q 417 653 344 653 q 573 589 523 653 q 624 431 624 524 q 593 259 624 340 q 511 117 563 178 q 392 21 459 56 q 251 -14 325 -14 m 244 13 q 318 35 283 13 q 385 97 353 58 q 443 186 417 135 q 488 292 469 236 q 517 406 507 349 q 528 514 528 463 q 503 595 528 565 q 424 625 478 625 q 351 603 387 625 q 284 542 315 581 q 226 452 252 503 q 181 346 200 402 q 151 233 162 290 q 141 124 141 176 q 166 43 141 74 q 244 13 192 13 m 583 764 q 510 781 542 764 q 453 819 479 797 q 403 857 428 840 q 348 874 378 874 q 285 851 308 874 q 242 778 261 828 l 214 778 q 258 876 228 837 q 325 935 288 915 q 396 954 362 954 q 464 938 434 954 q 518 899 493 921 q 567 861 543 878 q 617 844 590 844 q 681 868 656 844 q 723 940 705 892 l 751 940 q 710 836 737 875 q 651 781 684 797 q 583 764 617 764 z "},"œ":{"ha":1082,"x_min":45,"x_max":1030,"o":"m 251 -14 q 96 50 147 -14 q 45 208 45 114 q 75 379 45 299 q 158 521 106 460 q 277 618 210 583 q 417 653 344 653 q 573 589 523 653 q 624 431 624 524 q 593 259 624 340 q 511 117 563 178 q 392 21 459 56 q 251 -14 325 -14 m 244 13 q 318 35 283 13 q 385 97 353 58 q 443 186 417 135 q 488 292 469 236 q 517 406 507 349 q 528 514 528 463 q 503 595 528 565 q 424 625 478 625 q 351 603 387 625 q 284 542 315 581 q 226 452 252 503 q 181 346 200 402 q 151 233 162 290 q 141 124 141 176 q 166 43 141 74 q 244 13 192 13 m 688 -14 q 576 14 622 -14 q 506 92 530 42 q 483 208 483 142 q 512 367 483 288 q 594 510 541 446 q 718 614 647 575 q 872 653 789 653 q 989 616 947 653 q 1030 524 1030 578 q 991 422 1030 467 q 887 346 952 377 q 744 296 822 315 q 587 272 666 278 l 587 296 q 698 311 646 300 q 792 342 750 323 q 864 390 834 362 q 911 457 894 419 q 927 543 927 494 q 912 600 927 576 q 863 625 897 625 q 787 603 823 625 q 720 542 751 581 q 665 455 690 503 q 622 352 640 406 q 595 245 604 299 q 585 146 585 192 q 618 49 585 76 q 699 22 650 22 q 800 44 754 22 q 884 105 847 66 q 950 194 922 144 l 974 179 q 906 83 947 126 q 810 13 865 39 q 688 -14 756 -14 z "},"p":{"ha":771,"x_min":-131,"x_max":685,"o":"m -31 -347 l 226 612 l 133 612 l 133 639 l 326 639 l 272 405 l 240 296 l 232 225 l 81 -347 l -31 -347 m -131 -347 l -131 -320 l 201 -320 l 201 -347 l -131 -347 m 331 22 q 402 52 367 22 q 470 131 438 81 q 526 241 501 181 q 565 365 551 302 q 578 483 578 428 q 556 578 578 544 q 488 613 533 613 q 413 586 450 613 q 344 517 376 560 q 288 418 312 473 q 250 303 263 363 q 236 189 236 244 q 259 68 236 113 q 331 22 281 22 m 347 -14 q 266 14 295 -14 q 226 88 238 42 q 214 187 214 133 q 224 288 214 235 q 253 393 234 341 q 298 492 272 445 q 357 575 324 539 q 428 632 390 611 q 508 653 467 653 q 642 592 599 653 q 685 427 685 531 q 655 269 685 347 q 574 127 624 191 q 465 25 524 63 q 347 -14 405 -14 z "},"þ":{"ha":795,"x_min":-101,"x_max":744,"o":"m -14 -347 l 297 1015 l 204 1015 l 204 1042 l 429 1042 l 285 408 l 253 304 l 244 220 l 111 -347 l -14 -347 m -101 -347 l -101 -320 l 212 -320 l 212 -347 l -101 -347 m 351 32 q 448 69 402 32 q 529 167 494 106 q 585 299 565 227 q 605 439 605 370 q 576 564 605 517 q 494 611 548 611 q 408 584 447 611 q 339 513 369 557 q 288 414 309 468 q 256 306 267 360 q 244 206 244 251 q 258 116 244 156 q 295 55 272 77 q 351 32 319 32 m 385 -14 q 262 48 301 -14 q 223 206 223 110 q 235 310 223 251 q 270 428 247 368 q 331 539 294 488 q 416 621 367 590 q 526 652 465 652 q 625 630 575 652 q 710 558 676 608 q 744 422 744 508 q 712 248 744 328 q 627 110 680 169 q 510 19 574 51 q 385 -14 447 -14 z "},"q":{"ha":698,"x_min":38,"x_max":665,"o":"m 287 -347 l 441 221 q 470 287 453 250 q 495 354 488 324 l 494 419 l 549 625 l 665 653 l 396 -347 l 287 -347 m 179 -347 l 179 -320 l 519 -320 l 519 -347 l 179 -347 m 214 -14 q 81 47 124 -14 q 38 212 38 108 q 68 370 38 292 q 148 512 99 448 q 258 614 198 576 q 376 653 317 653 q 456 626 427 653 q 497 553 485 599 q 509 452 509 508 q 499 351 509 404 q 470 246 489 298 q 424 147 451 194 q 365 64 398 100 q 294 7 332 28 q 214 -14 256 -14 m 235 26 q 310 51 274 26 q 379 121 347 77 q 435 220 411 165 q 473 335 460 276 q 487 450 487 394 q 477 538 487 501 q 447 596 467 576 q 392 617 426 617 q 320 587 356 617 q 252 507 284 557 q 196 396 221 457 q 158 273 172 335 q 144 156 144 210 q 167 60 144 95 q 235 26 190 26 z "},"r":{"ha":578,"x_min":31,"x_max":544,"o":"m 31 0 l 183 612 l 77 612 l 77 639 l 294 639 l 141 0 l 31 0 m 175 212 q 207 329 188 268 q 252 448 226 390 q 309 551 278 505 q 377 625 341 597 q 454 652 414 652 q 520 629 497 652 q 544 572 544 606 q 526 517 544 540 q 476 495 508 495 q 427 513 447 495 q 407 560 407 531 q 426 608 407 588 q 477 627 444 627 q 525 613 506 627 q 543 572 543 598 l 516 572 q 500 610 516 594 q 456 626 485 626 q 384 599 418 626 q 320 527 349 572 q 266 428 290 483 q 222 317 241 374 q 191 212 203 261 l 175 212 z "},"ŕ":{"ha":578,"x_min":31,"x_max":544,"o":"m 31 0 l 183 612 l 77 612 l 77 639 l 294 639 l 141 0 l 31 0 m 175 212 q 207 329 188 268 q 252 448 226 390 q 309 551 278 505 q 377 625 341 597 q 454 652 414 652 q 520 629 497 652 q 544 572 544 606 q 526 517 544 540 q 476 495 508 495 q 427 513 447 495 q 407 560 407 531 q 426 608 407 588 q 477 627 444 627 q 525 613 506 627 q 543 572 543 598 l 516 572 q 500 610 516 594 q 456 626 485 626 q 384 599 418 626 q 320 527 349 572 q 266 428 290 483 q 222 317 241 374 q 191 212 203 261 l 175 212 m 314 765 l 297 783 l 437 935 q 459 949 448 945 q 482 950 471 952 q 501 942 492 948 q 515 927 510 935 q 521 902 522 916 q 514 877 520 889 q 496 859 507 866 l 314 765 z "},"ř":{"ha":578,"x_min":31,"x_max":619,"o":"m 31 0 l 183 612 l 77 612 l 77 639 l 294 639 l 141 0 l 31 0 m 175 212 q 207 329 188 268 q 252 448 226 390 q 309 551 278 505 q 377 625 341 597 q 454 652 414 652 q 520 629 497 652 q 544 572 544 606 q 526 517 544 540 q 476 495 508 495 q 427 513 447 495 q 407 560 407 531 q 426 608 407 588 q 477 627 444 627 q 525 613 506 627 q 543 572 543 598 l 516 572 q 500 610 516 594 q 456 626 485 626 q 384 599 418 626 q 320 527 349 572 q 266 428 290 483 q 222 317 241 374 q 191 212 203 261 l 175 212 m 346 778 l 223 931 l 242 949 l 394 840 l 603 947 l 619 931 l 435 778 l 346 778 z "},"ŗ":{"ha":578,"x_min":-66,"x_max":544,"o":"m 31 0 l 183 612 l 77 612 l 77 639 l 294 639 l 141 0 l 31 0 m 175 212 q 207 329 188 268 q 252 448 226 390 q 309 551 278 505 q 377 625 341 597 q 454 652 414 652 q 520 629 497 652 q 544 572 544 606 q 526 517 544 540 q 476 495 508 495 q 427 513 447 495 q 407 560 407 531 q 426 608 407 588 q 477 627 444 627 q 525 613 506 627 q 543 572 543 598 l 516 572 q 500 610 516 594 q 456 626 485 626 q 384 599 418 626 q 320 527 349 572 q 266 428 290 483 q 222 317 241 374 q 191 212 203 261 l 175 212 m -66 -433 l -66 -410 q -1 -392 -33 -410 q 59 -346 32 -375 q 100 -282 85 -317 q 111 -212 115 -247 l 133 -212 q 122 -242 133 -229 q 92 -263 110 -256 q 56 -270 74 -270 q 3 -252 19 -270 q -14 -208 -14 -233 q -4 -174 -14 -190 q 23 -149 6 -158 q 60 -139 40 -139 q 114 -160 93 -139 q 135 -224 135 -181 q 118 -299 135 -262 q 72 -366 101 -335 q 7 -415 43 -397 q -66 -433 -28 -433 z "},"ȓ":{"ha":578,"x_min":31,"x_max":544,"o":"m 31 0 l 183 612 l 77 612 l 77 639 l 294 639 l 141 0 l 31 0 m 175 212 q 207 329 188 268 q 252 448 226 390 q 309 551 278 505 q 377 625 341 597 q 454 652 414 652 q 520 629 497 652 q 544 572 544 606 q 526 517 544 540 q 476 495 508 495 q 427 513 447 495 q 407 560 407 531 q 426 608 407 588 q 477 627 444 627 q 525 613 506 627 q 543 572 543 598 l 516 572 q 500 610 516 594 q 456 626 485 626 q 384 599 418 626 q 320 527 349 572 q 266 428 290 483 q 222 317 241 374 q 191 212 203 261 l 175 212 m 185 763 q 203 826 190 794 q 240 884 217 858 q 298 926 264 910 q 379 942 333 942 q 445 926 421 942 q 482 884 470 910 q 494 826 493 858 q 490 763 496 794 l 463 763 q 458 819 469 797 q 422 854 447 842 q 365 865 398 865 q 300 854 333 865 q 243 819 267 842 q 212 763 219 797 l 185 763 z "},"s":{"ha":572,"x_min":24,"x_max":534,"o":"m 254 -14 q 143 5 196 -14 q 58 59 91 23 q 24 146 24 94 q 43 199 24 176 q 94 222 61 222 q 140 202 122 222 q 158 151 158 182 q 138 103 158 119 q 92 86 118 86 q 58 92 74 86 q 34 112 43 99 q 26 146 26 125 l 63 146 q 89 74 63 103 q 157 29 114 44 q 253 14 201 14 q 331 27 292 14 q 395 66 369 40 q 421 133 421 93 q 398 201 421 172 q 340 252 376 229 q 265 297 305 275 q 190 343 225 318 q 132 399 154 367 q 109 475 109 431 q 139 566 109 526 q 222 629 169 606 q 342 651 274 651 q 446 633 403 651 q 511 585 489 614 q 534 528 534 557 q 515 473 534 490 q 472 456 496 456 q 426 473 446 456 q 406 523 406 489 q 425 568 406 549 q 472 588 443 588 q 513 571 494 588 q 533 528 533 554 l 500 528 q 481 575 500 553 q 427 610 462 597 q 342 624 392 624 q 273 613 307 624 q 217 580 239 602 q 194 522 194 557 q 216 462 194 487 q 273 416 238 437 q 347 375 308 396 q 421 328 386 354 q 477 268 456 303 q 499 183 499 233 q 463 77 499 122 q 371 10 427 33 q 254 -14 315 -14 z "},"ś":{"ha":572,"x_min":24,"x_max":534,"o":"m 254 -14 q 143 5 196 -14 q 58 59 91 23 q 24 146 24 94 q 43 199 24 176 q 94 222 61 222 q 140 202 122 222 q 158 151 158 182 q 138 103 158 119 q 92 86 118 86 q 58 92 74 86 q 34 112 43 99 q 26 146 26 125 l 63 146 q 89 74 63 103 q 157 29 114 44 q 253 14 201 14 q 331 27 292 14 q 395 66 369 40 q 421 133 421 93 q 398 201 421 172 q 340 252 376 229 q 265 297 305 275 q 190 343 225 318 q 132 399 154 367 q 109 475 109 431 q 139 566 109 526 q 222 629 169 606 q 342 651 274 651 q 446 633 403 651 q 511 585 489 614 q 534 528 534 557 q 515 473 534 490 q 472 456 496 456 q 426 473 446 456 q 406 523 406 489 q 425 568 406 549 q 472 588 443 588 q 513 571 494 588 q 533 528 533 554 l 500 528 q 481 575 500 553 q 427 610 462 597 q 342 624 392 624 q 273 613 307 624 q 217 580 239 602 q 194 522 194 557 q 216 462 194 487 q 273 416 238 437 q 347 375 308 396 q 421 328 386 354 q 477 268 456 303 q 499 183 499 233 q 463 77 499 122 q 371 10 427 33 q 254 -14 315 -14 m 293 765 l 276 783 l 416 935 q 439 949 427 945 q 461 950 450 952 q 480 942 472 948 q 494 927 489 935 q 500 902 501 916 q 493 877 499 889 q 475 859 486 866 l 293 765 z "},"š":{"ha":572,"x_min":24,"x_max":598,"o":"m 254 -14 q 143 5 196 -14 q 58 59 91 23 q 24 146 24 94 q 43 199 24 176 q 94 222 61 222 q 140 202 122 222 q 158 151 158 182 q 138 103 158 119 q 92 86 118 86 q 58 92 74 86 q 34 112 43 99 q 26 146 26 125 l 63 146 q 89 74 63 103 q 157 29 114 44 q 253 14 201 14 q 331 27 292 14 q 395 66 369 40 q 421 133 421 93 q 398 201 421 172 q 340 252 376 229 q 265 297 305 275 q 190 343 225 318 q 132 399 154 367 q 109 475 109 431 q 139 566 109 526 q 222 629 169 606 q 342 651 274 651 q 446 633 403 651 q 511 585 489 614 q 534 528 534 557 q 515 473 534 490 q 472 456 496 456 q 426 473 446 456 q 406 523 406 489 q 425 568 406 549 q 472 588 443 588 q 513 571 494 588 q 533 528 533 554 l 500 528 q 481 575 500 553 q 427 610 462 597 q 342 624 392 624 q 273 613 307 624 q 217 580 239 602 q 194 522 194 557 q 216 462 194 487 q 273 416 238 437 q 347 375 308 396 q 421 328 386 354 q 477 268 456 303 q 499 183 499 233 q 463 77 499 122 q 371 10 427 33 q 254 -14 315 -14 m 325 778 l 202 931 l 221 949 l 373 840 l 582 947 l 598 931 l 414 778 l 325 778 z "},"ş":{"ha":572,"x_min":24,"x_max":534,"o":"m 254 -14 q 143 5 196 -14 q 58 59 91 23 q 24 146 24 94 q 43 199 24 176 q 94 222 61 222 q 140 202 122 222 q 158 151 158 182 q 138 103 158 119 q 92 86 118 86 q 58 92 74 86 q 34 112 43 99 q 26 146 26 125 l 63 146 q 89 74 63 103 q 157 29 114 44 q 253 14 201 14 q 331 27 292 14 q 395 66 369 40 q 421 133 421 93 q 398 201 421 172 q 340 252 376 229 q 265 297 305 275 q 190 343 225 318 q 132 399 154 367 q 109 475 109 431 q 139 566 109 526 q 222 629 169 606 q 342 651 274 651 q 446 633 403 651 q 511 585 489 614 q 534 528 534 557 q 515 473 534 490 q 472 456 496 456 q 426 473 446 456 q 406 523 406 489 q 425 568 406 549 q 472 588 443 588 q 513 571 494 588 q 533 528 533 554 l 500 528 q 481 575 500 553 q 427 610 462 597 q 342 624 392 624 q 273 613 307 624 q 217 580 239 602 q 194 522 194 557 q 216 462 194 487 q 273 416 238 437 q 347 375 308 396 q 421 328 386 354 q 477 268 456 303 q 499 183 499 233 q 463 77 499 122 q 371 10 427 33 q 254 -14 315 -14 m 101 -353 l 101 -327 q 203 -301 162 -327 q 244 -231 244 -276 q 204 -173 244 -187 q 96 -158 164 -158 l 241 8 l 274 8 l 177 -103 q 268 -115 231 -103 q 326 -149 306 -126 q 346 -208 346 -172 q 317 -280 346 -247 q 234 -333 288 -312 q 101 -353 179 -353 z "},"ŝ":{"ha":572,"x_min":24,"x_max":566,"o":"m 254 -14 q 143 5 196 -14 q 58 59 91 23 q 24 146 24 94 q 43 199 24 176 q 94 222 61 222 q 140 202 122 222 q 158 151 158 182 q 138 103 158 119 q 92 86 118 86 q 58 92 74 86 q 34 112 43 99 q 26 146 26 125 l 63 146 q 89 74 63 103 q 157 29 114 44 q 253 14 201 14 q 331 27 292 14 q 395 66 369 40 q 421 133 421 93 q 398 201 421 172 q 340 252 376 229 q 265 297 305 275 q 190 343 225 318 q 132 399 154 367 q 109 475 109 431 q 139 566 109 526 q 222 629 169 606 q 342 651 274 651 q 446 633 403 651 q 511 585 489 614 q 534 528 534 557 q 515 473 534 490 q 472 456 496 456 q 426 473 446 456 q 406 523 406 489 q 425 568 406 549 q 472 588 443 588 q 513 571 494 588 q 533 528 533 554 l 500 528 q 481 575 500 553 q 427 610 462 597 q 342 624 392 624 q 273 613 307 624 q 217 580 239 602 q 194 522 194 557 q 216 462 194 487 q 273 416 238 437 q 347 375 308 396 q 421 328 386 354 q 477 268 456 303 q 499 183 499 233 q 463 77 499 122 q 371 10 427 33 q 254 -14 315 -14 m 185 775 l 169 791 l 353 944 l 443 944 l 566 791 l 549 773 l 395 881 l 185 775 z "},"ș":{"ha":572,"x_min":24,"x_max":534,"o":"m 254 -14 q 143 5 196 -14 q 58 59 91 23 q 24 146 24 94 q 43 199 24 176 q 94 222 61 222 q 140 202 122 222 q 158 151 158 182 q 138 103 158 119 q 92 86 118 86 q 58 92 74 86 q 34 112 43 99 q 26 146 26 125 l 63 146 q 89 74 63 103 q 157 29 114 44 q 253 14 201 14 q 331 27 292 14 q 395 66 369 40 q 421 133 421 93 q 398 201 421 172 q 340 252 376 229 q 265 297 305 275 q 190 343 225 318 q 132 399 154 367 q 109 475 109 431 q 139 566 109 526 q 222 629 169 606 q 342 651 274 651 q 446 633 403 651 q 511 585 489 614 q 534 528 534 557 q 515 473 534 490 q 472 456 496 456 q 426 473 446 456 q 406 523 406 489 q 425 568 406 549 q 472 588 443 588 q 513 571 494 588 q 533 528 533 554 l 500 528 q 481 575 500 553 q 427 610 462 597 q 342 624 392 624 q 273 613 307 624 q 217 580 239 602 q 194 522 194 557 q 216 462 194 487 q 273 416 238 437 q 347 375 308 396 q 421 328 386 354 q 477 268 456 303 q 499 183 499 233 q 463 77 499 122 q 371 10 427 33 q 254 -14 315 -14 m 81 -433 l 81 -410 q 146 -392 113 -410 q 205 -346 178 -375 q 247 -282 232 -317 q 258 -212 261 -247 l 280 -212 q 268 -242 280 -229 q 239 -263 257 -256 q 202 -270 221 -270 q 149 -252 166 -270 q 133 -208 133 -233 q 142 -174 133 -190 q 169 -149 152 -158 q 207 -139 186 -139 q 260 -160 240 -139 q 281 -224 281 -181 q 264 -299 281 -262 q 218 -366 247 -335 q 154 -415 190 -397 q 81 -433 118 -433 z "},"ß":{"ha":945,"x_min":-28,"x_max":988,"o":"m 90 0 l 243 682 q 324 881 269 797 q 465 1010 378 965 q 671 1056 551 1056 q 798 1041 740 1056 q 899 999 856 1027 q 964 930 941 971 q 988 835 988 888 q 958 727 988 777 q 872 638 928 676 q 733 578 815 600 q 546 557 651 557 l 546 577 q 668 600 613 577 q 764 662 724 624 q 826 746 804 701 q 848 835 848 791 q 834 930 848 885 q 781 1002 819 974 q 671 1031 743 1031 q 545 1001 596 1031 q 460 919 494 971 q 405 803 427 868 q 367 668 383 738 l 216 0 l 90 0 m -28 0 l -28 27 l 347 27 l 347 0 l -28 0 m 620 -14 q 515 9 558 -14 q 450 72 472 32 q 428 161 428 111 q 441 226 428 200 q 475 266 454 252 q 521 279 497 279 q 574 259 553 279 q 595 201 595 239 q 584 162 595 179 q 554 135 572 144 q 515 125 535 125 q 478 135 493 125 q 458 160 464 145 q 472 90 456 123 q 523 35 489 56 q 606 15 557 15 q 683 35 652 15 q 731 90 713 56 q 756 170 749 125 q 764 264 764 215 q 753 363 764 313 q 717 456 742 413 q 650 524 692 498 q 546 549 608 549 l 546 569 q 750 530 672 569 q 867 423 829 492 q 904 264 904 354 q 878 139 904 191 q 810 52 852 86 q 717 2 767 19 q 620 -14 667 -14 z "},"ſ":{"ha":489,"x_min":-267,"x_max":683,"o":"m -120 -361 q -201 -343 -168 -361 q -251 -299 -234 -326 q -267 -243 -267 -272 q -246 -186 -267 -206 q -195 -166 -225 -166 q -145 -183 -167 -166 q -124 -235 -124 -200 q -135 -273 -124 -258 q -162 -297 -146 -289 q -196 -305 -178 -305 q -229 -298 -212 -305 q -256 -276 -245 -290 q -266 -243 -266 -262 l -239 -243 q -226 -282 -239 -260 q -186 -319 -213 -303 q -117 -335 -159 -335 q -53 -316 -81 -335 q -6 -259 -26 -296 q 30 -171 14 -222 q 60 -58 46 -120 l 238 710 q 278 836 252 775 q 341 947 303 898 q 426 1026 378 997 q 536 1056 475 1056 q 617 1038 585 1056 q 667 993 650 1020 q 683 938 683 966 q 664 881 683 901 q 612 860 644 860 q 561 877 583 860 q 539 929 539 894 q 549 966 539 951 q 576 991 560 982 q 612 999 593 999 q 634 995 622 999 q 657 984 647 992 q 675 964 668 976 q 682 938 682 953 l 656 938 q 643 977 656 956 q 603 1014 630 999 q 536 1030 577 1030 q 474 1010 501 1030 q 428 952 448 990 q 391 864 408 915 q 360 750 375 813 l 179 -16 q 139 -141 164 -80 q 77 -252 113 -203 q -9 -332 40 -302 q -120 -361 -58 -361 z "},"t":{"ha":453,"x_min":69,"x_max":449,"o":"m 192 -14 q 122 0 149 -14 q 82 35 95 13 q 69 81 69 57 q 73 112 69 92 q 82 153 76 132 l 251 778 l 363 778 l 171 82 q 167 66 169 75 q 165 47 165 56 q 208 21 165 21 q 265 35 237 21 q 319 76 293 49 q 368 143 344 103 q 413 235 392 183 l 440 226 q 373 96 410 150 q 292 14 337 42 q 192 -14 247 -14 m 74 611 l 74 639 l 449 639 l 449 611 l 74 611 z "},"ŧ":{"ha":453,"x_min":40,"x_max":449,"o":"m 40 410 l 40 437 l 421 437 l 421 410 l 40 410 m 192 -14 q 122 0 149 -14 q 82 35 95 13 q 69 81 69 57 q 73 112 69 92 q 82 153 76 132 l 251 778 l 363 778 l 171 82 q 167 66 169 75 q 165 47 165 56 q 208 21 165 21 q 265 35 237 21 q 319 76 293 49 q 368 143 344 103 q 413 235 392 183 l 440 226 q 373 96 410 150 q 292 14 337 42 q 192 -14 247 -14 m 74 611 l 74 639 l 449 639 l 449 611 l 74 611 z "},"ť":{"ha":453,"x_min":69,"x_max":674,"o":"m 192 -14 q 122 0 149 -14 q 82 35 95 13 q 69 81 69 57 q 73 112 69 92 q 82 153 76 132 l 251 778 l 363 778 l 171 82 q 167 66 169 75 q 165 47 165 56 q 208 21 165 21 q 265 35 237 21 q 319 76 293 49 q 368 143 344 103 q 413 235 392 183 l 440 226 q 373 96 410 150 q 292 14 337 42 q 192 -14 247 -14 m 74 611 l 74 639 l 449 639 l 449 611 l 74 611 m 422 715 l 422 742 q 504 764 463 742 q 578 822 544 785 q 630 901 612 858 q 644 990 649 945 l 671 990 q 657 952 671 969 q 620 927 642 936 q 574 917 598 917 q 509 940 530 917 q 488 995 488 963 q 500 1038 488 1018 q 533 1069 512 1058 q 581 1081 554 1081 q 648 1055 622 1081 q 674 974 674 1029 q 652 882 674 928 q 595 798 631 835 q 514 737 559 760 q 422 715 469 715 z "},"ţ":{"ha":453,"x_min":47,"x_max":449,"o":"m 192 -14 q 122 0 149 -14 q 82 35 95 13 q 69 81 69 57 q 73 112 69 92 q 82 153 76 132 l 251 778 l 363 778 l 171 82 q 167 66 169 75 q 165 47 165 56 q 208 21 165 21 q 265 35 237 21 q 319 76 293 49 q 368 143 344 103 q 413 235 392 183 l 440 226 q 373 96 410 150 q 292 14 337 42 q 192 -14 247 -14 m 74 611 l 74 639 l 449 639 l 449 611 l 74 611 m 53 -353 l 53 -327 q 155 -301 113 -327 q 196 -231 196 -276 q 156 -173 196 -187 q 47 -158 115 -158 l 192 8 l 226 8 l 128 -103 q 219 -115 182 -103 q 277 -149 257 -126 q 297 -208 297 -172 q 268 -280 297 -247 q 185 -333 240 -312 q 53 -353 131 -353 z "},"ț":{"ha":453,"x_min":32,"x_max":449,"o":"m 192 -14 q 122 0 149 -14 q 82 35 95 13 q 69 81 69 57 q 73 112 69 92 q 82 153 76 132 l 251 778 l 363 778 l 171 82 q 167 66 169 75 q 165 47 165 56 q 208 21 165 21 q 265 35 237 21 q 319 76 293 49 q 368 143 344 103 q 413 235 392 183 l 440 226 q 373 96 410 150 q 292 14 337 42 q 192 -14 247 -14 m 74 611 l 74 639 l 449 639 l 449 611 l 74 611 m 32 -433 l 32 -410 q 97 -392 65 -410 q 157 -346 130 -375 q 198 -282 183 -317 q 209 -212 213 -247 l 231 -212 q 220 -242 231 -229 q 190 -263 208 -256 q 153 -270 172 -270 q 101 -252 117 -270 q 84 -208 84 -233 q 94 -174 84 -190 q 120 -149 103 -158 q 158 -139 138 -139 q 212 -160 191 -139 q 233 -224 233 -181 q 216 -299 233 -262 q 170 -366 199 -335 q 105 -415 141 -397 q 32 -433 69 -433 z "},"u":{"ha":792,"x_min":42,"x_max":741,"o":"m 176 -14 q 79 15 109 -14 q 45 92 49 44 q 56 196 42 140 l 163 612 l 71 612 l 71 639 l 287 639 l 174 212 q 155 116 160 158 q 160 50 149 74 q 208 26 171 26 q 285 63 240 26 q 375 160 329 99 q 459 298 421 222 q 516 454 497 374 l 537 454 q 496 332 523 397 q 433 207 469 268 q 355 95 397 145 q 267 16 313 45 q 176 -14 222 -14 m 531 -14 q 451 14 477 -14 q 424 73 424 42 q 426 94 424 81 q 431 118 428 107 l 563 639 l 680 639 l 527 73 q 525 60 526 67 q 524 48 524 53 q 550 22 524 22 q 609 42 583 22 q 662 107 636 63 q 715 222 688 151 l 741 213 q 681 83 711 133 q 615 9 651 33 q 531 -14 578 -14 z "},"ú":{"ha":792,"x_min":42,"x_max":741,"o":"m 176 -14 q 79 15 109 -14 q 45 92 49 44 q 56 196 42 140 l 163 612 l 71 612 l 71 639 l 287 639 l 174 212 q 155 116 160 158 q 160 50 149 74 q 208 26 171 26 q 285 63 240 26 q 375 160 329 99 q 459 298 421 222 q 516 454 497 374 l 537 454 q 496 332 523 397 q 433 207 469 268 q 355 95 397 145 q 267 16 313 45 q 176 -14 222 -14 m 531 -14 q 451 14 477 -14 q 424 73 424 42 q 426 94 424 81 q 431 118 428 107 l 563 639 l 680 639 l 527 73 q 525 60 526 67 q 524 48 524 53 q 550 22 524 22 q 609 42 583 22 q 662 107 636 63 q 715 222 688 151 l 741 213 q 681 83 711 133 q 615 9 651 33 q 531 -14 578 -14 m 356 765 l 339 783 l 478 935 q 501 949 490 945 q 523 950 513 952 q 543 942 534 948 q 556 927 551 935 q 563 902 563 916 q 555 877 562 889 q 538 859 549 866 l 356 765 z "},"ŭ":{"ha":792,"x_min":42,"x_max":741,"o":"m 176 -14 q 79 15 109 -14 q 45 92 49 44 q 56 196 42 140 l 163 612 l 71 612 l 71 639 l 287 639 l 174 212 q 155 116 160 158 q 160 50 149 74 q 208 26 171 26 q 285 63 240 26 q 375 160 329 99 q 459 298 421 222 q 516 454 497 374 l 537 454 q 496 332 523 397 q 433 207 469 268 q 355 95 397 145 q 267 16 313 45 q 176 -14 222 -14 m 531 -14 q 451 14 477 -14 q 424 73 424 42 q 426 94 424 81 q 431 118 428 107 l 563 639 l 680 639 l 527 73 q 525 60 526 67 q 524 48 524 53 q 550 22 524 22 q 609 42 583 22 q 662 107 636 63 q 715 222 688 151 l 741 213 q 681 83 711 133 q 615 9 651 33 q 531 -14 578 -14 m 427 765 q 361 781 385 765 q 325 823 336 797 q 312 881 313 849 q 316 944 311 913 l 343 944 q 349 888 338 910 q 384 853 360 865 q 441 842 408 842 q 506 853 474 842 q 563 888 539 865 q 594 944 588 910 l 622 944 q 603 881 617 913 q 566 823 590 849 q 508 781 542 797 q 427 765 474 765 z "},"û":{"ha":792,"x_min":42,"x_max":741,"o":"m 176 -14 q 79 15 109 -14 q 45 92 49 44 q 56 196 42 140 l 163 612 l 71 612 l 71 639 l 287 639 l 174 212 q 155 116 160 158 q 160 50 149 74 q 208 26 171 26 q 285 63 240 26 q 375 160 329 99 q 459 298 421 222 q 516 454 497 374 l 537 454 q 496 332 523 397 q 433 207 469 268 q 355 95 397 145 q 267 16 313 45 q 176 -14 222 -14 m 531 -14 q 451 14 477 -14 q 424 73 424 42 q 426 94 424 81 q 431 118 428 107 l 563 639 l 680 639 l 527 73 q 525 60 526 67 q 524 48 524 53 q 550 22 524 22 q 609 42 583 22 q 662 107 636 63 q 715 222 688 151 l 741 213 q 681 83 711 133 q 615 9 651 33 q 531 -14 578 -14 m 247 775 l 232 791 l 415 944 l 506 944 l 628 791 l 611 773 l 458 881 l 247 775 z "},"ü":{"ha":792,"x_min":42,"x_max":741,"o":"m 176 -14 q 79 15 109 -14 q 45 92 49 44 q 56 196 42 140 l 163 612 l 71 612 l 71 639 l 287 639 l 174 212 q 155 116 160 158 q 160 50 149 74 q 208 26 171 26 q 285 63 240 26 q 375 160 329 99 q 459 298 421 222 q 516 454 497 374 l 537 454 q 496 332 523 397 q 433 207 469 268 q 355 95 397 145 q 267 16 313 45 q 176 -14 222 -14 m 531 -14 q 451 14 477 -14 q 424 73 424 42 q 426 94 424 81 q 431 118 428 107 l 563 639 l 680 639 l 527 73 q 525 60 526 67 q 524 48 524 53 q 550 22 524 22 q 609 42 583 22 q 662 107 636 63 q 715 222 688 151 l 741 213 q 681 83 711 133 q 615 9 651 33 q 531 -14 578 -14 m 532 771 q 484 790 504 771 q 465 838 465 810 q 484 885 465 865 q 532 905 504 905 q 579 885 560 905 q 598 838 598 865 q 579 790 598 810 q 532 771 560 771 m 310 771 q 262 790 282 771 q 242 838 242 810 q 262 885 242 865 q 310 905 282 905 q 357 885 338 905 q 376 838 376 865 q 357 790 376 810 q 310 771 338 771 z "},"ù":{"ha":792,"x_min":42,"x_max":741,"o":"m 176 -14 q 79 15 109 -14 q 45 92 49 44 q 56 196 42 140 l 163 612 l 71 612 l 71 639 l 287 639 l 174 212 q 155 116 160 158 q 160 50 149 74 q 208 26 171 26 q 285 63 240 26 q 375 160 329 99 q 459 298 421 222 q 516 454 497 374 l 537 454 q 496 332 523 397 q 433 207 469 268 q 355 95 397 145 q 267 16 313 45 q 176 -14 222 -14 m 531 -14 q 451 14 477 -14 q 424 73 424 42 q 426 94 424 81 q 431 118 428 107 l 563 639 l 680 639 l 527 73 q 525 60 526 67 q 524 48 524 53 q 550 22 524 22 q 609 42 583 22 q 662 107 636 63 q 715 222 688 151 l 741 213 q 681 83 711 133 q 615 9 651 33 q 531 -14 578 -14 m 490 765 l 308 859 q 290 877 297 866 q 283 902 283 889 q 289 927 283 916 q 302 942 294 935 q 322 950 311 948 q 344 949 333 952 q 367 935 356 945 l 506 783 l 490 765 z "},"ű":{"ha":792,"x_min":42,"x_max":741,"o":"m 176 -14 q 79 15 109 -14 q 45 92 49 44 q 56 196 42 140 l 163 612 l 71 612 l 71 639 l 287 639 l 174 212 q 155 116 160 158 q 160 50 149 74 q 208 26 171 26 q 285 63 240 26 q 375 160 329 99 q 459 298 421 222 q 516 454 497 374 l 537 454 q 496 332 523 397 q 433 207 469 268 q 355 95 397 145 q 267 16 313 45 q 176 -14 222 -14 m 531 -14 q 451 14 477 -14 q 424 73 424 42 q 426 94 424 81 q 431 118 428 107 l 563 639 l 680 639 l 527 73 q 525 60 526 67 q 524 48 524 53 q 550 22 524 22 q 609 42 583 22 q 662 107 636 63 q 715 222 688 151 l 741 213 q 681 83 711 133 q 615 9 651 33 q 531 -14 578 -14 m 501 765 l 485 783 l 624 935 q 647 949 635 945 q 669 950 658 952 q 689 942 680 948 q 702 927 697 935 q 708 902 709 916 q 701 877 708 889 q 683 859 694 866 l 501 765 m 217 765 l 200 783 l 340 935 q 362 949 351 945 q 384 950 374 952 q 404 942 395 948 q 417 927 413 935 q 424 902 424 916 q 416 877 423 889 q 399 859 410 866 l 217 765 z "},"ū":{"ha":792,"x_min":42,"x_max":741,"o":"m 176 -14 q 79 15 109 -14 q 45 92 49 44 q 56 196 42 140 l 163 612 l 71 612 l 71 639 l 287 639 l 174 212 q 155 116 160 158 q 160 50 149 74 q 208 26 171 26 q 285 63 240 26 q 375 160 329 99 q 459 298 421 222 q 516 454 497 374 l 537 454 q 496 332 523 397 q 433 207 469 268 q 355 95 397 145 q 267 16 313 45 q 176 -14 222 -14 m 531 -14 q 451 14 477 -14 q 424 73 424 42 q 426 94 424 81 q 431 118 428 107 l 563 639 l 680 639 l 527 73 q 525 60 526 67 q 524 48 524 53 q 550 22 524 22 q 609 42 583 22 q 662 107 636 63 q 715 222 688 151 l 741 213 q 681 83 711 133 q 615 9 651 33 q 531 -14 578 -14 m 231 778 l 231 805 l 564 805 l 564 778 l 231 778 z "},"ų":{"ha":792,"x_min":42,"x_max":741,"o":"m 176 -14 q 79 15 109 -14 q 45 92 49 44 q 56 196 42 140 l 163 612 l 71 612 l 71 639 l 287 639 l 174 212 q 155 116 160 158 q 160 50 149 74 q 208 26 171 26 q 285 63 240 26 q 375 160 329 99 q 459 298 421 222 q 516 454 497 374 l 537 454 q 496 332 523 397 q 433 207 469 268 q 355 95 397 145 q 267 16 313 45 q 176 -14 222 -14 m 531 -14 q 451 14 477 -14 q 424 73 424 42 q 426 94 424 81 q 431 118 428 107 l 563 639 l 680 639 l 527 73 q 525 60 526 67 q 524 48 524 53 q 550 22 524 22 q 609 42 583 22 q 662 107 636 63 q 715 222 688 151 l 741 213 q 681 83 711 133 q 615 9 651 33 q 531 -14 578 -14 m 505 -301 q 437 -292 469 -301 q 383 -260 404 -283 q 362 -196 362 -237 q 386 -119 362 -154 q 448 -58 410 -85 q 526 -12 485 -31 q 598 16 566 6 l 606 5 q 555 -34 581 -9 q 509 -95 528 -59 q 491 -178 491 -131 q 508 -240 491 -220 q 551 -260 526 -260 q 591 -249 574 -260 q 622 -223 609 -239 q 643 -190 635 -206 l 665 -200 q 636 -243 655 -219 q 586 -284 617 -267 q 505 -301 554 -301 z "},"ů":{"ha":792,"x_min":42,"x_max":741,"o":"m 176 -14 q 79 15 109 -14 q 45 92 49 44 q 56 196 42 140 l 163 612 l 71 612 l 71 639 l 287 639 l 174 212 q 155 116 160 158 q 160 50 149 74 q 208 26 171 26 q 285 63 240 26 q 375 160 329 99 q 459 298 421 222 q 516 454 497 374 l 537 454 q 496 332 523 397 q 433 207 469 268 q 355 95 397 145 q 267 16 313 45 q 176 -14 222 -14 m 531 -14 q 451 14 477 -14 q 424 73 424 42 q 426 94 424 81 q 431 118 428 107 l 563 639 l 680 639 l 527 73 q 525 60 526 67 q 524 48 524 53 q 550 22 524 22 q 609 42 583 22 q 662 107 636 63 q 715 222 688 151 l 741 213 q 681 83 711 133 q 615 9 651 33 q 531 -14 578 -14 m 432 764 q 343 800 379 764 q 308 888 308 835 q 343 978 308 942 q 432 1014 379 1014 q 521 978 485 1014 q 557 888 557 942 q 521 800 557 835 q 432 764 485 764 m 428 791 q 459 801 445 791 q 484 826 474 810 q 500 862 494 842 q 506 902 506 882 q 487 964 506 942 q 435 986 469 986 q 405 976 419 986 q 381 950 391 967 q 365 914 370 934 q 359 874 359 894 q 377 813 359 835 q 428 791 395 791 z "},"ũ":{"ha":792,"x_min":42,"x_max":741,"o":"m 176 -14 q 79 15 109 -14 q 45 92 49 44 q 56 196 42 140 l 163 612 l 71 612 l 71 639 l 287 639 l 174 212 q 155 116 160 158 q 160 50 149 74 q 208 26 171 26 q 285 63 240 26 q 375 160 329 99 q 459 298 421 222 q 516 454 497 374 l 537 454 q 496 332 523 397 q 433 207 469 268 q 355 95 397 145 q 267 16 313 45 q 176 -14 222 -14 m 531 -14 q 451 14 477 -14 q 424 73 424 42 q 426 94 424 81 q 431 118 428 107 l 563 639 l 680 639 l 527 73 q 525 60 526 67 q 524 48 524 53 q 550 22 524 22 q 609 42 583 22 q 662 107 636 63 q 715 222 688 151 l 741 213 q 681 83 711 133 q 615 9 651 33 q 531 -14 578 -14 m 568 764 q 495 781 526 764 q 438 819 464 797 q 388 857 413 840 q 333 874 363 874 q 269 851 293 874 q 226 778 246 828 l 199 778 q 243 876 213 837 q 310 935 273 915 q 381 954 347 954 q 448 938 419 954 q 503 899 478 921 q 551 861 528 878 q 601 844 575 844 q 665 868 641 844 q 708 940 690 892 l 735 940 q 695 836 722 875 q 635 781 669 797 q 568 764 602 764 z "},"v":{"ha":703,"x_min":24,"x_max":638,"o":"m 285 -14 q 182 10 219 -14 q 134 78 144 34 q 139 182 124 122 l 231 567 q 234 580 233 573 q 235 592 235 587 q 228 610 235 603 q 208 617 221 617 q 162 603 183 617 q 120 564 140 589 q 83 504 101 539 q 50 426 66 469 l 24 433 q 65 526 44 485 q 110 595 86 567 q 165 638 135 623 q 231 652 194 652 q 310 625 281 652 q 339 559 339 599 q 336 531 339 544 q 333 511 334 519 l 258 193 q 242 100 246 138 q 251 42 238 62 q 302 22 264 22 q 386 54 343 22 q 470 141 430 87 q 542 261 510 195 q 592 397 574 328 q 610 526 610 466 q 601 582 610 561 q 577 614 592 603 q 543 624 562 624 l 543 650 q 584 641 565 650 q 614 614 603 631 q 625 572 625 597 q 600 516 625 539 q 543 493 576 493 q 486 515 507 493 q 465 572 465 536 q 488 628 465 604 q 543 651 510 651 q 591 638 569 651 q 625 597 613 624 q 638 526 638 569 q 618 390 638 463 q 563 245 598 316 q 483 115 528 174 q 388 21 438 56 q 285 -14 337 -14 z "},"w":{"ha":996,"x_min":19,"x_max":947,"o":"m 599 -14 q 520 0 552 -14 q 470 44 488 13 q 448 126 453 75 q 453 250 444 176 l 546 639 l 657 639 l 567 258 q 547 172 557 215 q 537 95 538 129 q 554 40 537 60 q 613 19 571 19 q 723 58 674 19 q 809 159 772 97 q 869 292 845 221 q 906 429 894 363 q 917 540 917 495 q 904 600 917 576 q 858 624 891 624 l 858 650 q 902 637 885 650 q 929 606 920 624 q 938 572 938 588 q 914 515 938 536 q 855 493 890 493 q 796 514 819 493 q 774 569 774 535 q 797 627 774 603 q 858 651 820 651 q 923 620 898 651 q 947 540 947 588 q 935 425 947 494 q 898 279 924 355 q 832 137 873 203 q 734 28 792 70 q 599 -14 676 -14 m 236 -14 q 135 15 169 -14 q 95 92 101 44 q 108 196 90 140 l 235 568 q 238 582 237 574 q 240 594 240 589 q 213 618 240 618 q 148 595 176 618 q 96 528 120 573 q 46 417 72 484 l 19 426 q 73 547 46 496 q 138 625 100 597 q 235 653 176 653 q 317 632 290 653 q 344 576 344 610 q 342 543 344 560 q 334 511 340 526 l 221 185 q 205 63 193 103 q 259 23 216 23 q 335 51 301 23 q 397 131 369 80 q 447 250 424 182 q 489 399 469 319 l 509 399 q 475 274 493 335 q 435 162 457 214 q 385 70 413 110 q 320 8 357 31 q 236 -14 283 -14 z "},"ẃ":{"ha":996,"x_min":19,"x_max":947,"o":"m 599 -14 q 520 0 552 -14 q 470 44 488 13 q 448 126 453 75 q 453 250 444 176 l 546 639 l 657 639 l 567 258 q 547 172 557 215 q 537 95 538 129 q 554 40 537 60 q 613 19 571 19 q 723 58 674 19 q 809 159 772 97 q 869 292 845 221 q 906 429 894 363 q 917 540 917 495 q 904 600 917 576 q 858 624 891 624 l 858 650 q 902 637 885 650 q 929 606 920 624 q 938 572 938 588 q 914 515 938 536 q 855 493 890 493 q 796 514 819 493 q 774 569 774 535 q 797 627 774 603 q 858 651 820 651 q 923 620 898 651 q 947 540 947 588 q 935 425 947 494 q 898 279 924 355 q 832 137 873 203 q 734 28 792 70 q 599 -14 676 -14 m 236 -14 q 135 15 169 -14 q 95 92 101 44 q 108 196 90 140 l 235 568 q 238 582 237 574 q 240 594 240 589 q 213 618 240 618 q 148 595 176 618 q 96 528 120 573 q 46 417 72 484 l 19 426 q 73 547 46 496 q 138 625 100 597 q 235 653 176 653 q 317 632 290 653 q 344 576 344 610 q 342 543 344 560 q 334 511 340 526 l 221 185 q 205 63 193 103 q 259 23 216 23 q 335 51 301 23 q 397 131 369 80 q 447 250 424 182 q 489 399 469 319 l 509 399 q 475 274 493 335 q 435 162 457 214 q 385 70 413 110 q 320 8 357 31 q 236 -14 283 -14 m 557 765 l 540 783 l 680 935 q 702 949 691 945 q 725 950 714 952 q 744 942 735 948 q 758 927 753 935 q 764 902 765 916 q 757 877 763 889 q 739 859 750 866 l 557 765 z "},"ŵ":{"ha":996,"x_min":19,"x_max":947,"o":"m 599 -14 q 520 0 552 -14 q 470 44 488 13 q 448 126 453 75 q 453 250 444 176 l 546 639 l 657 639 l 567 258 q 547 172 557 215 q 537 95 538 129 q 554 40 537 60 q 613 19 571 19 q 723 58 674 19 q 809 159 772 97 q 869 292 845 221 q 906 429 894 363 q 917 540 917 495 q 904 600 917 576 q 858 624 891 624 l 858 650 q 902 637 885 650 q 929 606 920 624 q 938 572 938 588 q 914 515 938 536 q 855 493 890 493 q 796 514 819 493 q 774 569 774 535 q 797 627 774 603 q 858 651 820 651 q 923 620 898 651 q 947 540 947 588 q 935 425 947 494 q 898 279 924 355 q 832 137 873 203 q 734 28 792 70 q 599 -14 676 -14 m 236 -14 q 135 15 169 -14 q 95 92 101 44 q 108 196 90 140 l 235 568 q 238 582 237 574 q 240 594 240 589 q 213 618 240 618 q 148 595 176 618 q 96 528 120 573 q 46 417 72 484 l 19 426 q 73 547 46 496 q 138 625 100 597 q 235 653 176 653 q 317 632 290 653 q 344 576 344 610 q 342 543 344 560 q 334 511 340 526 l 221 185 q 205 63 193 103 q 259 23 216 23 q 335 51 301 23 q 397 131 369 80 q 447 250 424 182 q 489 399 469 319 l 509 399 q 475 274 493 335 q 435 162 457 214 q 385 70 413 110 q 320 8 357 31 q 236 -14 283 -14 m 449 775 l 433 791 l 617 944 l 707 944 l 830 791 l 813 773 l 659 881 l 449 775 z "},"ẅ":{"ha":996,"x_min":19,"x_max":947,"o":"m 599 -14 q 520 0 552 -14 q 470 44 488 13 q 448 126 453 75 q 453 250 444 176 l 546 639 l 657 639 l 567 258 q 547 172 557 215 q 537 95 538 129 q 554 40 537 60 q 613 19 571 19 q 723 58 674 19 q 809 159 772 97 q 869 292 845 221 q 906 429 894 363 q 917 540 917 495 q 904 600 917 576 q 858 624 891 624 l 858 650 q 902 637 885 650 q 929 606 920 624 q 938 572 938 588 q 914 515 938 536 q 855 493 890 493 q 796 514 819 493 q 774 569 774 535 q 797 627 774 603 q 858 651 820 651 q 923 620 898 651 q 947 540 947 588 q 935 425 947 494 q 898 279 924 355 q 832 137 873 203 q 734 28 792 70 q 599 -14 676 -14 m 236 -14 q 135 15 169 -14 q 95 92 101 44 q 108 196 90 140 l 235 568 q 238 582 237 574 q 240 594 240 589 q 213 618 240 618 q 148 595 176 618 q 96 528 120 573 q 46 417 72 484 l 19 426 q 73 547 46 496 q 138 625 100 597 q 235 653 176 653 q 317 632 290 653 q 344 576 344 610 q 342 543 344 560 q 334 511 340 526 l 221 185 q 205 63 193 103 q 259 23 216 23 q 335 51 301 23 q 397 131 369 80 q 447 250 424 182 q 489 399 469 319 l 509 399 q 475 274 493 335 q 435 162 457 214 q 385 70 413 110 q 320 8 357 31 q 236 -14 283 -14 m 733 771 q 686 790 706 771 q 666 838 666 810 q 686 885 666 865 q 733 905 706 905 q 780 885 761 905 q 799 838 799 865 q 780 790 799 810 q 733 771 761 771 m 511 771 q 464 790 483 771 q 444 838 444 810 q 464 885 444 865 q 511 905 483 905 q 558 885 539 905 q 577 838 577 865 q 558 790 577 810 q 511 771 539 771 z "}}}
